<?xml version="1.0" standalone="no"?>
<!DOCTYPE svg PUBLIC "-//W3C//DTD SVG 1.1//EN" "http://www.w3.org/Graphics/SVG/1.1/DTD/svg11.dtd" >
<svg xmlns="http://www.w3.org/2000/svg">
<metadata>
This is a custom SVG webfont generated by Font Squirrel.
Copyright   : Copyright c 1992 1998 Adobe Systems Incorporated  All Rights ReservedFormata is either a registered trademark or trademark of Berthold Types Limited in the United States andor other countries
</metadata>
<defs>
<font id="webfont6LVo1W0o" horiz-adv-x="980" >
<font-face units-per-em="2048" ascent="1536" descent="-512" />
<missing-glyph horiz-adv-x="468" />
<glyph unicode=" "  horiz-adv-x="468" />
<glyph unicode="&#x09;" horiz-adv-x="468" />
<glyph unicode="&#xa0;" horiz-adv-x="468" />
<glyph unicode="!" horiz-adv-x="468" d="M451 1083l-76 -290q-59 -227 -92 -383l-15 -15q-37 0 -139 -4l-10 12q14 49 47 230l43 219q66 352 102 575l15 15q88 0 213 8l10 -14q-20 -60 -98 -353zM260 225l10 -12q-29 -123 -45 -201l-10 -10q-111 0 -201 -4l-6 12q27 111 43 199l15 12q110 0 194 4z" />
<glyph unicode="&#x22;" horiz-adv-x="811" d="M801 1413l-84 -524h-47l-80 500q0 8 -1 20t-1 18q0 53 34.5 80t77.5 27q61 0 88 -47q13 -21 13 -74zM416 1413l-84 -524h-47l-80 500q0 8 -1 20t-1 18q0 53 34.5 80t77.5 27q61 0 88 -47q13 -21 13 -74z" />
<glyph unicode="#" horiz-adv-x="1193" d="M1161 629v-158h-307l-68 -471h-163l67 471h-225l-68 -471h-166l68 471h-283v158h306l32 219h-288v158h309l63 440h164l-61 -440h225l63 440h160l-59 -440h282v-158h-305l-33 -219h287zM485 629h228l30 219h-227z" />
<glyph unicode="$" horiz-adv-x="854" d="M522 774l56 -55q55 -53 83.5 -87t56 -98.5t27.5 -136.5q0 -141 -94 -266t-272 -149q-16 -57 -47 -189l-13 -10q-57 2 -122 2l-11 10q29 82 54 185q-158 18 -238 77q-14 14 -14 25q16 49 22 74l13 47l10 39l22 4q43 -55 103 -84q57 -29 127 -29q106 0 169.5 67.5 t63.5 155.5q0 51 -23.5 99.5t-47 74t-72.5 74.5l-45 45q-55 53 -83 85t-56.5 94.5t-28.5 132.5q0 145 105.5 265t301.5 124q33 127 41 168l15 12q35 -2 120 2l9 -12l-49 -183q96 -20 151 -59q8 -8 16 -27q-37 -100 -55 -159l-22 -5q-78 98 -197 99q-98 0 -155.5 -62.5 t-57.5 -130.5q0 -41 23.5 -85t46 -68.5t67.5 -65.5z" />
<glyph unicode="%" horiz-adv-x="1536" d="M682 1061q0 -219 -92 -436q-92 -219 -287 -219q-98 0 -158 65q-63 70 -63 215q0 207 90 432q92 223 287 223q98 0 157 -63q66 -70 66 -217zM315 522q53 0 98.5 73t70 173t38 185t13.5 128q0 145 -84 146q-51 0 -96.5 -72t-70 -171t-38 -185t-13.5 -131q0 -146 82 -146z M1477 639q0 -223 -93 -436q-92 -219 -284 -219q-98 0 -158 65q-63 70 -63 215q0 207 90 432q92 223 284 224q98 0 158 -64q66 -70 66 -217zM1112 100q53 0 98 73t69 173t37 185t13 128q0 145 -82 146q-70 0 -123 -123t-73.5 -246t-20.5 -190q0 -146 82 -146zM987 887 l-160 -256l-252 -408l-126 -211l-19 -10h-41q-18 0 -48 -1t-40 -1l-6 14l143 213l125 201l113 180l110 174l123 201l199 330l20 12q53 -2 121 0l4 -14z" />
<glyph unicode="&#x26;" horiz-adv-x="1110" d="M932 657l20 2l12 -22q7 -14 12 -25.5t11 -21.5l37 -68q0 -16 -10 -35q-59 -109 -189 -241l113 -226l-10 -18q-53 0 -193 -4l-12 10l-45 115q-152 -143 -334 -143q-170 0 -253 98t-83 229q0 86 34 157t102.5 127t117.5 86t135 75q-80 160 -80 278q0 137 94.5 231.5 t241.5 94.5q127 0 203 -75t76 -189q0 -170 -182 -306l-34 -22l-49 -33l-44 -29l139 -315q104 120 170 270zM616 258q-117 276 -151 348q-59 -35 -90 -55.5t-76 -57t-65.5 -80.5t-20.5 -98q0 -66 44 -117t132 -51q131 0 227 111zM565 836q92 47 152 110q57 61 57 135 q0 57 -33.5 96.5t-89.5 39.5q-63 0 -104 -45.5t-41 -118.5q0 -72 59 -217z" />
<glyph unicode="'" horiz-adv-x="425" d="M416 1413l-84 -524h-47l-80 500q0 8 -1 20t-1 18q0 53 34.5 80t77.5 27q61 0 88 -47q13 -21 13 -74z" />
<glyph unicode="(" horiz-adv-x="681" d="M360 -385l-12 8q-2 4 -7 8t-7 9q-82 92 -152.5 289.5t-70.5 412.5q0 193 59 380t156.5 331.5t202 253t212.5 182.5q10 8 35 18q49 -2 107 0l2 -14q-256 -221 -396 -483q-188 -358 -188 -756q0 -197 64 -410q41 -135 94 -215l-6 -14h-93z" />
<glyph unicode=")" horiz-adv-x="681" d="M301 1507l12 -8q2 -4 7.5 -8t7.5 -8q82 -92 152.5 -290t70.5 -413q0 -195 -59.5 -381t-156.5 -331.5t-201.5 -253t-213.5 -181.5q-10 -8 -35 -18q-49 2 -106 0l-2 14q254 217 395 484q188 358 188 755q0 195 -63 410q-41 135 -94 215l6 14h92z" />
<glyph unicode="*" horiz-adv-x="811" d="M897 1253l-8 -14q-119 -47 -277 -121q139 -80 228 -125l2 -16l-70 -109l-16 -2l-201 164q-27 -186 -35 -285l-12 -14q-25 0 -60.5 -1t-68.5 -3l-8 12l90 295l-246 -164l-14 2q-14 29 -27 60q-6 10 -27 57l7 15l280 118l-231 133l-4 15q61 86 73 106l15 2q84 -80 202 -174 q25 160 37 285l13 16q33 -2 129 2l8 -12q-55 -164 -90 -295l245 168l17 -2q20 -54 49 -113z" />
<glyph unicode="+" horiz-adv-x="1024" d="M954 678v-164h-366v-367h-164v367h-365v164h365v366h164v-366h366z" />
<glyph unicode="," horiz-adv-x="425" d="M270 225l4 -14q-39 -55 -108 -172l-176 -293l-19 -12q-27 0 -121 -4l-10 12q121 242 203 465l18 10q131 2 209 8z" />
<glyph unicode="-" horiz-adv-x="555" d="M508 657l8 -12l-45 -153l-16 -11q-8 0 -65.5 1t-67.5 1h-70q-174 0 -227 -2l-9 13q31 92 45 149l15 14q74 -4 262 -4q84 0 170 4z" />
<glyph unicode="." horiz-adv-x="425" d="M219 225l8 -12q-10 -41 -43 -201l-12 -10q-111 0 -199 -4l-8 12q12 47 45 199l15 12q110 0 194 4z" />
<glyph unicode="/" horiz-adv-x="641" d="M467 807l-322 -606l-297 -572l-16 -12q-88 0 -149 -2l-7 14q55 94 359 650l311 589l324 625l16 14q70 -2 150 0l4 -16q-144 -250 -373 -684z" />
<glyph unicode="0" horiz-adv-x="937" d="M911 942q0 -147 -36.5 -326.5t-98.5 -318.5q-18 -39 -30.5 -62.5t-51.5 -79t-80 -89t-109.5 -62.5t-146.5 -29q-139 0 -225 95q-92 102 -92 313q0 147 39 326.5t94 312.5q133 330 416 330q141 0 225 -90q96 -103 96 -320zM377 129q113 0 194 186q57 131 99.5 337 t42.5 321q0 113 -39 174q-37 53 -96 53q-111 0 -189 -178q-61 -133 -103 -341t-42 -327q0 -127 41 -176t92 -49z" />
<glyph unicode="1" horiz-adv-x="937" d="M655 858l-63 -278l-82 -385q-10 -70 -35 -183l-14 -10q-43 -2 -102.5 -3t-100.5 -1l-10 10q2 6 6 23q12 47 104 444l48 201q8 39 25.5 115.5t25.5 115.5l57 252q-111 -18 -174 -33l-8 11q25 92 33 133l12 16q285 39 383 66l12 -15l-8 -24q-23 -82 -109 -455z" />
<glyph unicode="2" horiz-adv-x="937" d="M778 182l13 -14q-27 -76 -48 -156l-18 -12q-63 2 -207 2h-469q-53 0 -88 -2l-10 31q10 12 113.5 123.5t123.5 136.5l213 235l141 162q46 55 88 135t42 148q0 78 -51.5 144.5t-161.5 66.5q-150 0 -293 -131l-21 6l48 184l14 19q129 90 301 90q182 0 278.5 -100.5 t96.5 -245.5q0 -111 -66 -232q-41 -72 -103.5 -145.5t-230.5 -255.5l-190 -199q229 0 485 10z" />
<glyph unicode="3" horiz-adv-x="937" d="M944 1307l-16 -19l-204 -246q-169 -205 -200 -245q121 -16 192.5 -103.5t71.5 -218.5q0 -76 -28.5 -157.5t-87 -161.5t-166 -130.5t-244.5 -50.5q-184 0 -303 74l-6 17l20 73l25 84l18 4q76 -88 234 -88q160 0 241.5 107.5t81.5 226.5q0 104 -64.5 153.5t-158.5 49.5 q-49 0 -96 -19l-27 33q2 2 4 5t5.5 5t5.5 5q29 31 58 66l67 84l55 71q131 158 172 215q2 2 14 20q-61 -2 -184 -2q-141 0 -244 -6l-10 14l45 144l16 14q90 -2 281 -2h193q78 0 233 4z" />
<glyph unicode="4" horiz-adv-x="937" d="M860 360l-16 -16q-66 2 -137 0q-43 -193 -70 -328l-14 -18q-96 0 -181 -4l-10 14q47 178 82 336h-262q-35 0 -126 -1t-126 -1l-8 16l28 119q18 31 31 43l293 381l131 171l166 222l14 19l23 16q14 0 43 -1t43 -1q23 0 158 4l8 -12l-187 -817q74 0 146 2l8 -15 q-19 -55 -37 -129zM211 502h342l102 420q47 190 66 258q-72 -90 -148 -197z" />
<glyph unicode="5" horiz-adv-x="937" d="M485 1161l-96 -330q51 18 105 19q143 0 228 -91t85 -249q0 -80 -27.5 -167t-84 -172t-162 -140.5t-242.5 -55.5q-176 0 -293 82l-6 15q12 49 18 71l25 93l20 4q76 -102 221 -103q139 0 229.5 100.5t90.5 247.5q0 104 -58.5 163t-156.5 59q-100 0 -199 -52l-24 11l75 258 l56 198q35 119 49 189l20 14q55 -2 170 -2q281 0 392 4l10 -12l-47 -144l-17 -14q-113 0 -211 4h-170z" />
<glyph unicode="6" horiz-adv-x="937" d="M907 1120l-22 -6q-63 82 -182 82t-203 -84q-57 -55 -104.5 -155.5t-69.5 -182.5q104 82 223 82q131 0 220 -89t89 -263q0 -90 -26.5 -179t-79 -169t-144.5 -129.5t-207 -49.5q-82 0 -147 29q-195 86 -195 393q0 276 134 568q180 385 499 385q156 0 252 -72l6 -18 q-37 -124 -43 -142zM475 692q-119 0 -194 -125q-29 -80 -29 -190q0 -238 166 -238q119 0 178 113t59 231q0 102 -49 155.5t-131 53.5z" />
<glyph unicode="7" horiz-adv-x="937" d="M1014 1329l6 -18l-172 -307l-326 -592q-172 -324 -211 -404l-16 -12q-152 -2 -221 -6l-6 16l239 393l443 764q-86 2 -227.5 0t-256 -5t-116.5 -3l-9 12q31 84 49 146l15 14q74 -2 295 -2h270q166 0 244 4z" />
<glyph unicode="8" horiz-adv-x="937" d="M655 709l19 -7q41 -14 71 -38q100 -78 101 -230q0 -80 -26.5 -157.5t-80 -146.5t-144.5 -112t-206 -43q-176 0 -276 95q-98 88 -98.5 243.5t94.5 272.5q86 100 225 131q-49 31 -66 47q-76 76 -75 197q0 170 108.5 279.5t292.5 109.5q158 0 245 -84t87 -217 q0 -104 -51.5 -183.5t-103.5 -111t-97 -41.5q-13 -4 -19 -4zM524 784q94 0 146.5 82t52.5 193q0 74 -35 108q-39 43 -102 43q-82 0 -137.5 -78.5t-55.5 -197.5q0 -70 35 -110t96 -40zM403 125q102 0 167 92t65 227q0 51 -16.5 88t-37 53.5t-48 27t-40 11.5t-22.5 1 q-98 0 -170 -82t-72 -232q0 -84 50 -135t124 -51z" />
<glyph unicode="9" horiz-adv-x="937" d="M643 571l8 25l-16 -16q-49 -51 -115 -80q-57 -25 -127 -25q-137 0 -214 95.5t-77 258.5q0 223 119 373t326 150q170 0 262 -119q88 -113 88 -324q0 -193 -67.5 -408.5t-172.5 -342.5q-152 -184 -381 -185q-55 0 -126 15q-76 18 -125 57l-9 16l45 144l21 6q63 -82 182 -82 q68 0 124 27.5t94 67.5t71 104.5t51.5 117.5t38.5 125zM471 639q154 0 221 164q12 88 13 145q0 131 -48 193q-45 57 -118 57q-92 0 -154 -78q-37 -43 -59.5 -116.5t-22.5 -145.5q0 -104 43 -161.5t125 -57.5z" />
<glyph unicode=":" horiz-adv-x="468" d="M264 225l8 -12q-25 -102 -43 -201l-12 -10q-111 0 -199 -4l-8 12q27 113 45 199l15 12q106 0 194 4zM455 1065l8 -12l-43 -199l-12 -12q-98 0 -199 -4l-8 12q27 113 45 199l14 12q107 0 195 4z" />
<glyph unicode=";" horiz-adv-x="468" d="M311 225l4 -14q-49 -74 -108 -174q-14 -20 -88 -145t-88 -146l-19 -14q-74 0 -121 -2l-10 12q117 233 203 463l18 12q88 0 209 8zM473 1065l8 -12q-6 -23 -43 -199l-12 -12q-98 0 -199 -4l-8 12l45 199l15 12q110 0 194 4z" />
<glyph unicode="&#x3c;" horiz-adv-x="1024" d="M1032 317v-178l-1024 496v176l1024 496v-179l-821 -405z" />
<glyph unicode="=" horiz-adv-x="1024" d="M1020 487v-159h-1024v159h1024zM1020 858v-160h-1024v160h1024z" />
<glyph unicode="&#x3e;" horiz-adv-x="1024" d="M1038 635l-1024 -496v178l824 406l-824 405v179l1024 -496v-176z" />
<glyph unicode="?" horiz-adv-x="768" d="M621 764l-58 -62q-80 -90 -111.5 -145t-58.5 -149l-14 -15l-143 -4l-7 12q0 31 25 113q23 70 54.5 116t94.5 118q90 100 128 146t71 112.5t33 130.5q0 72 -46 124t-145 52q-127 0 -237 -92l-17 8q27 88 43 151l17 23q115 70 252 70q92 0 158.5 -29t102.5 -76t52 -97 t16 -104q0 -82 -35.5 -162.5t-71 -124.5t-103.5 -116zM383 225l10 -12q-29 -123 -45 -201l-10 -10q-104 0 -201 -4l-6 12q33 145 43 199l14 12q111 0 195 4z" />
<glyph unicode="@" horiz-adv-x="1835" d="M1585 156l68 -82q-98 -98 -215 -170q-260 -158 -535 -158q-94 0 -193.5 19.5t-208 72.5t-192.5 133t-139 213t-55 301q0 184 69.5 359.5t191.5 311.5t301 219t382 83q244 0 397 -123q211 -166 211 -469q0 -274 -145.5 -498.5t-325.5 -224.5q-68 0 -117 37q-47 41 -55 137 q-123 -172 -293 -172q-125 0 -201 97q-68 86 -67 241q0 221 131 399.5t303 178.5q61 0 117 -31q76 -41 116 -143l31 127h139l-67 -307q-57 -281 -57 -357q0 -45 19 -65.5t42 -20.5q94 0 202.5 184.5t108.5 411.5q0 238 -140 363t-366 125q-319 0 -566 -256t-247 -617 q0 -295 194.5 -455.5t479.5 -160.5q373 0 682 297zM784 276q117 0 207 134.5t90 306.5q0 104 -51 157.5t-117 53.5q-129 0 -208.5 -143.5t-79.5 -299.5q0 -66 18.5 -110.5t47 -64t51 -27t42.5 -7.5z" />
<glyph unicode="A" horiz-adv-x="1067" d="M850 1456l8 -10q6 -229 31.5 -744.5t40.5 -689.5l-10 -10q-102 0 -203 -6l-10 12l-5 225l-6 213q-70 2 -209 3q-141 0 -208 -3l-74 -157l-62 -133q-20 -43 -63 -144l-12 -10q-12 0 -201 -4l-6 12l245 486l226 450l246 496l12 8q237 6 260 6zM670 1290l-320 -684 q27 0 83 -1t85 -1t87.5 1t86.5 1l-12 387q-4 98 -4 152q-2 100 -6 145z" />
<glyph unicode="B" horiz-adv-x="1024" d="M442 1446l154 2q203 0 278 -41q16 -8 34 -21.5t41.5 -41t39 -72.5t15.5 -103q0 -139 -77 -249.5t-212 -147.5l-25 -6q8 -2 21 -6q49 -14 82 -39q119 -82 118 -244q0 -102 -44 -209.5t-126 -171.5q-80 -63 -174 -77.5t-331 -18.5h-99q-66 0 -139 -2l-10 10q66 264 69 287 l64 283q96 432 123 563q41 182 55 291l16 12q92 0 127 2zM492 1303l-107 -480l80 -2q49 0 79.5 3t74 22.5t75.5 56.5q37 43 61.5 111.5t24.5 132.5q0 158 -174 158zM350 666l-112 -512h94q131 0 180 20q57 23 96 72t52.5 106.5t17.5 87t4 49.5q0 92 -49 136q-47 43 -193 43z " />
<glyph unicode="C" horiz-adv-x="1067" d="M950 236l13 -7l-52 -182l-14 -16q-113 -57 -274 -58q-252 0 -391.5 154t-139.5 420q0 215 87 430t233 340q184 156 411 156q190 0 330 -99l6 -14q-41 -119 -53 -160l-19 -4q-102 102 -249 102q-145 0 -267 -110.5t-188 -279.5t-66 -349q0 -190 89 -297q92 -111 260 -110 q157 0 284 84z" />
<glyph unicode="D" horiz-adv-x="1236" d="M-4 -2l-8 10q33 139 45 185q8 29 20.5 90t20.5 90l90 403q100 467 135 658l16 12l273 2q96 0 148 -3t133 -18.5t140.5 -53.5t104.5 -99q90 -123 90 -320q0 -164 -58.5 -364.5t-176.5 -347.5q-55 -70 -121 -117t-124 -71.5t-145 -38t-147.5 -15.5t-167.5 -2h-268z M494 1284l-99 -432q-94 -424 -96 -430q-31 -125 -53 -256h88q96 0 149.5 5t128 36t136.5 92q104 104 169.5 293.5t65.5 355.5q0 244 -172 314q-63 25 -187 25q-18 0 -36 -1z" />
<glyph unicode="E" horiz-adv-x="894" d="M754 178l6 -12l-45 -154l-10 -10h-357q-31 0 -92 -1t-92 -1q-113 0 -168 -4l-8 12l98 414l74 321l49 238l49 225l41 209q0 4 1 10.5t3 10.5l14 12h455q78 0 229 4l7 -10q-25 -90 -39 -148l-15 -12q-172 6 -462 6l-103 -459l252 5q176 2 205 4l6 -11q-14 -47 -39 -141 l-14 -10q-127 2 -267 2h-176l-43 -193l-67 -315h239q177 4 269 8z" />
<glyph unicode="F" horiz-adv-x="854" d="M348 653l-53 -247q-68 -322 -80 -392l-14 -12q-121 0 -205 -4l-10 10q37 135 82 338l92 406l100 467q27 129 41 217l16 12q63 -2 124 -2t118 2h240q86 0 229 2l6 -8q-6 -20 -19 -70l-22 -80l-10 -10q-255 7 -397 7q-57 0 -97 -1l-104 -479q276 0 436 6l6 -10l-39 -141 l-12 -13q-20 0 -150 2t-155 2q-51 0 -123 -2z" />
<glyph unicode="G" horiz-adv-x="1193" d="M1104 680l8 -10q-39 -147 -74 -295l-73 -309l-11 -15q-145 -76 -346 -76q-254 0 -387 146.5t-133 406.5q0 125 27.5 254t89 254t148.5 221.5t214 156t277 59.5q217 0 360 -115l4 -17l-13 -37.5l-13 -37.5l-25 -86l-18 -4q-113 129 -285 129q-111 0 -204 -52.5 t-154.5 -135.5t-105.5 -186.5t-63.5 -203.5t-19.5 -190q0 -160 64 -258q88 -125 250 -125q90 0 163 32l50 207q41 180 55 273l12 10q105 0 203 4z" />
<glyph unicode="H" horiz-adv-x="1193" d="M1186 1133l-78 -332q-88 -395 -113 -516q-4 -14 -26.5 -130t-28.5 -141l-12 -12q-121 0 -211 -4l-8 10q74 291 159 694h-32q-45 2 -136 3q-168 0 -335 -7q-51 -219 -70 -311l-78 -373l-14 -12q-115 0 -207 -4l-10 10l29 122q26 105 30 126l100 436l56 244q41 180 53 244 q25 147 51 254l12 10q154 4 211 6l9 -10l-93 -389l-41 -185q18 0 29 -2h92q262 0 381 6l47 213l72 351l14 10q166 4 211 6l8 -10q-59 -241 -71 -307z" />
<glyph unicode="I" horiz-adv-x="468" d="M350 649l-49 -225l-82 -412l-14 -12q-33 1 -68 1q-69 0 -145 -3l-8 10q14 57 63 271l100 436l105 475q18 82 47 244l14 12q115 0 213 4l9 -10q-2 -2 -2.5 -10.5t-2.5 -10.5z" />
<glyph unicode="J" horiz-adv-x="598" d="M547 948l-80 -362q-55 -248 -80 -333t-63 -142q-88 -129 -269 -129q-106 0 -178 36l-8 19q12 47 37 160l12 4q43 -43 109 -43q88 0 125.5 75.5t87.5 292.5l86 402l102 506l14 10h41q18 0 170 4l9 -10l-7 -23z" />
<glyph unicode="K" horiz-adv-x="1067" d="M1012 1251l-437 -463l195 -409q78 -154 86 -174q70 -141 96 -187l-10 -14q-70 0 -231 -6l-13 10q-12 33 -118 273l-211 469l-80 -371l-37 -180l-37 -185l-12 -12q-43 0 -207 -4l-8 10l127 545l51 219l72 332l65 330l12 12q121 0 209 4l8 -10q-43 -152 -81 -334l-74 -318 l356 394l107 114q96 115 127 146l16 6l84 -2q23 0 63.5 1t61.5 1l4 -10z" />
<glyph unicode="L" horiz-adv-x="854" d="M707 176l6 -12q-23 -72 -43 -154l-13 -10h-180h-207q-135 0 -272 -2l-10 10l55 228l47 210l100 453q33 131 62 275q8 37 53 262l12 10q135 0 215 4l9 -12l-64 -260l-55 -236l-88 -379l-43 -194q-31 -129 -45 -201h66q171 -1 395 8z" />
<glyph unicode="M" horiz-adv-x="1492" d="M1419 934l-80 -422q-74 -401 -88 -496l-14 -14q-113 0 -199 -4l-14 14q0 2 20.5 93.5t24.5 111.5l37 166l194 926l-419 -875l-193 -420l-12 -12q-92 0 -178 -2l-9 12q0 20 1.5 146.5t1.5 150.5l-9 987l-213 -798q-90 -344 -123 -486l-12 -10q-100 0 -174 -2l-10 10l6 21 q31 98 113 383l149 520l135 504l15 8h84q115 0 211 4l10 -12v-1119l344 732l180 385l16 10h76q41 0 217 4l11 -12l-54 -269z" />
<glyph unicode="N" horiz-adv-x="1236" d="M1180 934l-84 -385q-23 -96 -64 -289q-37 -166 -51 -246l-14 -12q-113 0 -215 -4l-15 12q-23 80 -67 256l-234 942l-172 -809l-78 -387l-14 -10q-29 0 -176 -4l-6 10l125 539l67 301q104 498 121 586l14 10q18 0 56.5 1t56.5 1q43 0 121 4l18 -10q35 -154 72 -291 l121 -485l100 -381l158 733l84 420l14 10h29q14 0 141 4l8 -10q0 -10 -4 -23z" />
<glyph unicode="O" horiz-adv-x="1280" d="M1241 944q0 -82 -14.5 -176t-44 -206.5t-84 -214t-126 -186.5t-180 -135.5t-237.5 -50.5q-111 0 -197 37q-270 117 -270 498q0 82 14.5 176t43 206t84 213t128 184t181 133.5t239.5 50.5q207 0 335 -136.5t128 -392.5zM561 139q115 0 209 92.5t145.5 228.5t79 267 t27.5 231q0 111 -27.5 187t-71.5 109.5t-80 46t-73 12.5q-113 0 -206 -89t-146 -222.5t-81 -268.5t-28 -246q0 -190 76 -269t176 -79z" />
<glyph unicode="P" horiz-adv-x="937" d="M328 553l-60 -270q-31 -145 -53 -271l-14 -12q-125 0 -203 -4l-10 12l96 398l51 231l55 248q84 379 115 551l14 12h275q74 0 112.5 -2t103 -24.5t105.5 -65.5q80 -84 80 -238q0 -104 -36.5 -218t-98.5 -189q-59 -72 -145 -109t-143.5 -42t-155.5 -7h-88zM451 1110 l-86 -395q22 -1 42 -1q111 0 162 19q63 23 109.5 73t66 110.5t27.5 105.5t8 80q0 143 -100 178q-37 14 -186 14q-2 -4 -4.5 -11t-2.5 -11z" />
<glyph unicode="Q" horiz-adv-x="1280" d="M1069 -258l-18 -4q-348 174 -504 235q-109 0 -201 43q-258 121 -258 496q0 78 13.5 170t43 203.5t84 213t127 186.5t182 136.5t242.5 51.5q223 0 346 -150q117 -141 117 -383q0 -172 -62.5 -396.5t-217.5 -389.5q-84 -86 -187 -134q244 -90 412 -137l4 -14 q-76 -76 -123 -127zM309 487q0 -188 75 -270t179 -82q115 0 209 92t146.5 228.5t80 269.5t27.5 236q0 252 -149 327q-49 25 -107 25q-115 0 -208 -91.5t-145 -225.5t-80 -268.5t-28 -240.5z" />
<glyph unicode="R" d="M311 1446l320 4q70 0 111.5 -4t101 -28.5t96.5 -71.5q59 -80 59 -209q0 -203 -118 -338q-86 -96 -242 -135l131 -408q63 -190 84 -238l-8 -14q-18 0 -56 -1t-57 -3q-37 0 -106 -4l-15 8q-23 98 -57 225l-100 400q-47 -4 -115 -4q-55 -225 -127 -613l-14 -12 q-113 0 -203 -4l-10 10l26 113q29 113 33 135q33 139 47 209l64 278q106 479 143 693zM451 1116l-76 -338q30 -1 57 -1q92 0 131 11q70 18 119 66.5t68.5 107t26.5 97.5t7 65q0 123 -84 158q-27 10 -122 10l-86 -2z" />
<glyph unicode="S" horiz-adv-x="937" d="M903 1210l-18 -4q-98 106 -219 107q-111 0 -175.5 -71t-64.5 -161q0 -66 35 -117t110 -122q92 -88 133 -134t75 -119t34 -157q0 -111 -48 -211t-160.5 -173t-270.5 -73q-207 0 -328 93l-4 18l45 160l19 6q98 -119 258 -119q123 0 191.5 80t68.5 180q0 57 -23.5 107.5 t-47.5 77t-71 69.5q-74 70 -103.5 100.5t-70.5 84t-54 102.5t-13 113q0 168 116.5 295.5t339.5 127.5q184 0 295 -86l6 -16z" />
<glyph unicode="T" horiz-adv-x="894" d="M633 895l-101 -446q-35 -156 -90 -435l-14 -12q-76 0 -207 -4l-8 10l78 328l94 397q6 31 18 85l23 100l20 86l64 282h-123q-18 0 -53 -1t-51 -1q-29 -4 -109 -4l-6 10l41 152l12 8q20 -2 279 -2h307q147 0 262 4l6 -12l-41 -148l-10 -10q-76 4 -164 4h-137z" />
<glyph unicode="U" horiz-adv-x="1193" d="M1245 1450l10 -10q-33 -135 -43 -183q-8 -39 -34 -151l-76 -332l-22 -89l-23 -97l-45 -182q-16 -57 -30.5 -96.5t-55.5 -109t-91.5 -112.5t-140.5 -78t-202 -35q-180 0 -295 90.5t-115 270.5q0 102 74 418l90 399q33 133 61 281l12 12q35 0 216 4l8 -10l-168 -686 q-76 -330 -76 -406q0 -115 65.5 -162t147.5 -47q121 0 199 74q66 61 102.5 174t108.5 422l67 303q53 252 66 322l14 12q94 0 176 4z" />
<glyph unicode="V" horiz-adv-x="1024" d="M1022 1065l-342 -688l-176 -365l-15 -10q-88 0 -227 -6l-10 12q-12 262 -16 385l-27 633q-18 354 -23 401l11 15q141 6 206 12l11 -12q0 -2 5 -267.5t7 -320.5l12 -633l375 805l184 410l17 12q141 0 184 2l8 -10l-102 -207q-8 -18 -38 -76.5t-44 -91.5z" />
<glyph unicode="W" horiz-adv-x="1622" d="M1632 1038l-254 -575l-190 -449l-17 -14q-40 1 -81 1q-82 0 -168 -3l-11 12q10 307 11 348l28 879l-325 -788l-99 -232q-59 -141 -82 -205l-14 -10q-139 0 -254 -4l-8 10q0 27 3 182.5t3 184.5l8 708q2 326 2 351l11 12q123 2 204 8l9 -10l-7 -166q-6 -168 -8 -203 l-33 -876l388 938q86 209 120 301l11 10h129q10 0 129 4l10 -10q-2 -119 -12 -355l-31 -892l342 833q102 250 162 410l16 10h53q61 0 123 2l8 -8q-14 -37 -51 -119l-47 -104z" />
<glyph unicode="X" horiz-adv-x="937" d="M608 760l88 -289l68 -229q49 -174 70 -228l-9 -12q-123 0 -219 -2l-10 10q-8 43 -59 254l-82 303l-172 -260l-93 -141l-98 -154l-16 -10h-64q-37 0 -131 -4l-6 14l223 307l299 426l-94 330l-108 359l10 12q17 0 36 -1q75 0 175 7l10 -8q76 -330 127 -512q18 33 176 266 l154 240l16 10h64q78 0 122 2l7 -12l-168 -232z" />
<glyph unicode="Y" d="M600 578l-65 -265l-62 -299l-12 -12q-111 0 -205 -4l-10 10l6 21l61 250q55 227 64 278q4 20 6 29l-107 471q-8 33 -23 102.5t-24 102.5l-43 170l9 10q74 2 217 10l10 -10q47 -336 123 -682l223 358l188 320l13 8h47q72 0 153 2l7 -10l-193 -285z" />
<glyph unicode="Z" horiz-adv-x="894" d="M756 174l8 -10l-45 -152l-10 -12q-242 2 -283 2h-291q-227 -2 -264 -4l-6 14l215 307l635 971h-266q-150 0 -250 -10l-9 12q27 76 46 146l10 10h250h233q20 0 143 1t148 1l4 -16l-254 -383l-577 -887l305 4q80 0 120 2q10 0 68 2t70 2z" />
<glyph unicode="[" horiz-adv-x="555" d="M365 684l-54 -229l-106 -482q-31 -143 -41 -225q86 -2 174 0l6 -10q-14 -51 -25 -105l-12 -14q-119 4 -360 -4l-13 14q18 57 50 191q2 6 90 397l139 612q98 438 139 660l17 14q229 0 364 4l4 -10l-28 -115l-13 -10q-84 2 -170 0q-48 -194 -161 -688z" />
<glyph unicode="\" horiz-adv-x="641" d="M510 -369l-12 -16q-72 4 -150 2l-8 14q-10 250 -31 572l-39 606q-29 451 -55 684l12 14q80 -2 150 0l10 -12q12 -371 31 -627l37 -587q41 -529 55 -650z" />
<glyph unicode="]" horiz-adv-x="555" d="M160 438l51 230l106 481q31 143 41 225q-86 2 -174 0l-6 10l27 105l12 14q117 -4 361 4l10 -14q-16 -57 -47 -190q-4 -20 -44 -191.5t-46 -206.5l-140 -612q-106 -471 -141 -660l-16 -14q-229 0 -363 -4l-6 10q18 66 29 115l12 10q84 -2 170 0q47 186 164 688z" />
<glyph unicode="^" horiz-adv-x="1492" d="M848 1446l369 -756h-199l-254 531l-262 -531h-197l385 756h158z" />
<glyph unicode="_" horiz-adv-x="1024" d="M-143 -154h1065v-102h-1065v102z" />
<glyph unicode="`" horiz-adv-x="468" d="M303 1489l10 -10q20 -174 41 -299l-8 -13q-61 0 -108 -2l-13 13l-110 295l10 16q80 -2 178 0z" />
<glyph unicode="a" d="M952 1051l-90 -398q-94 -420 -127 -641l-12 -10q-102 0 -186 -4l-11 10l27 103q-121 -127 -266 -127q-123 0 -195 84q-72 82 -72 237q0 145 60.5 320.5t195.5 300.5q68 61 145 93t122 38t123 8h278zM379 137q127 0 196 129q12 45 70 314l74 335q-18 2 -55 3 q-145 0 -244 -101q-92 -94 -139.5 -243.5t-47.5 -247.5q1 -189 146 -189z" />
<glyph unicode="b" d="M-20 -2l-9 10q4 16 13.5 58.5l35.5 154.5l60 252l84 377q113 483 135 668l14 12q115 16 215 37l9 -11l-62 -241l-76 -322q92 88 230 88q70 0 125 -26q158 -74 157 -316q0 -141 -53 -298.5t-151 -266.5q-68 -72 -157 -111.5t-154.5 -49t-164.5 -11.5l-112 -2 q-98 0 -139 -2zM365 838l-156 -686q18 -1 35 -1q111 0 168 23q143 59 216.5 230t73.5 319q0 94 -34 143q-45 59 -127 60q-102 0 -176 -88z" />
<glyph unicode="c" horiz-adv-x="768" d="M651 195l15 -7q-25 -78 -45 -159l-13 -15q-80 -33 -188 -32q-184 0 -284.5 103t-100.5 298q0 104 29.5 219t90 226.5t170 184t250.5 72.5q133 0 234 -57l4 -14q-4 -12 -13 -37t-14 -37q-14 -35 -22 -63l-21 -7q-72 57 -159 58q-90 0 -161 -57.5t-109 -144.5t-57 -171 t-19 -156q0 -119 56 -191.5t171 -72.5q102 1 186 60z" />
<glyph unicode="d" d="M989 1163l-90 -381q-127 -557 -162 -768l-14 -12q-98 0 -182 -4l-9 10l25 101q-121 -127 -262 -127q-117 0 -196 80.5t-79 246.5q0 244 130 463q182 299 532 299q23 0 80 -4l37 172q37 172 51 281l14 10q125 18 213 37l8 -11q-24 -88 -96 -393zM586 266l143 654 q-27 2 -61 2q-145 0 -250 -105q-92 -94 -140.5 -239.5t-48.5 -245.5q0 -195 152 -195q61 0 111.5 31t71 58.5t22.5 39.5z" />
<glyph unicode="e" horiz-adv-x="894" d="M721 201l18 -6q-18 -63 -41 -160l-14 -19q-100 -39 -233 -39q-197 0 -305.5 102.5t-108.5 301.5q0 113 30.5 231.5t90 227t162 177t231.5 68.5q158 0 237 -100q70 -84 70 -229q0 -104 -33 -230l-14 -10q-27 0 -192.5 1t-196.5 1q-53 0 -107.5 -1t-66.5 -1 q-14 -57 -15 -123q0 -98 31 -149q63 -113 232 -113q139 0 225 70zM274 651l381 4q16 74 17 125q0 20 -3 39t-13.5 53.5t-40 56t-76.5 21.5q-23 0 -46.5 -6t-65.5 -30.5t-83 -92.5t-70 -170z" />
<glyph unicode="f" horiz-adv-x="512" d="M573 928l-12 -15q-39 1 -79.5 1t-82.5 -1q-100 -422 -188 -899l-14 -12q-96 0 -189 -4l-10 10q25 115 47 205l41 184l117 516q-76 0 -129 -2l-6 11q23 74 34 131l13 12q45 -2 121 -2l16 90q12 63 19.5 92t22.5 81t29.5 76.5t40 59.5t56.5 51.5t75 28.5t99 12 q49 0 125 -16l6 -14l-35 -135l-12 -11q-37 12 -64 13q-76 0 -106.5 -55.5t-63.5 -207.5l-14 -65q41 0 172 4l6 -14z" />
<glyph unicode="g" horiz-adv-x="937" d="M948 1065l6 -12q-53 -217 -141 -613l-55 -258q-25 -113 -37 -161t-39 -132t-52.5 -127t-68.5 -89t-98 -72q-92 -47 -215 -47q-84 0 -166 32q-74 27 -117 74v16q47 59 82 123h16q18 -31 50 -53q59 -41 137 -41q55 0 99 24.5t70.5 56.5t51.5 91.5t36 98t28 108.5 q-90 -102 -252 -102q-127 0 -195 84q-66 84 -65 235q0 203 103 419t282 300q61 31 118.5 37t196.5 8h225zM567 244l150 667q-28 1 -52 1q-47 0 -77 -3q-45 -4 -102.5 -33.5t-104.5 -91.5q-61 -82 -101 -192.5t-49.5 -178t-9.5 -110.5q0 -174 144 -174q117 0 188 94 q0 2 6 9.5t8 11.5z" />
<glyph unicode="h" d="M856 573l-53 -249l-62 -310l-14 -12q-139 -2 -197 -6l-8 12l56 228l38 178q76 328 76 387q0 51 -31.5 81.5t-87.5 30.5q-121 0 -217 -110l-84 -383q-33 -150 -79 -408l-15 -12q-121 0 -196 -4l-13 12l156 666q154 690 170 846l16 12q109 14 211 35l10 -13q0 -2 -2 -10 t-4 -10q-90 -360 -135 -573q127 121 285 120q111 0 174 -63q53 -55 53 -152q0 -68 -47 -293z" />
<glyph unicode="i" horiz-adv-x="425" d="M297 535l-43 -213q-49 -242 -57 -308l-15 -12q-106 0 -207 -4l-10 10q18 82 49 193q0 2 80 352l27 129q45 203 65 354l15 11q113 14 211 32l10 -10q-41 -153 -125 -534zM508 1552l12 -12l-43 -174l-14 -14q-160 -18 -199 -25l-10 14q12 49 39 172l18 15q45 6 100.5 12 t96.5 12z" />
<glyph unicode="j" horiz-adv-x="425" d="M410 1081l10 -12q-6 -20 -86 -354l-70 -316l-43 -204l-45 -205q-51 -238 -125 -318q-98 -106 -266 -106q-10 0 -26.5 1t-22.5 1l-10 12q14 47 32 127l19 12q31 -2 50 2.5t46 26t43 62.5q35 80 86 333l88 416q57 266 94 475l15 13q102 11 211 34zM506 1552l14 -12 l-43 -174l-14 -14l-199 -25l-10 14l39 172l18 15z" />
<glyph unicode="k" horiz-adv-x="854" d="M729 874l-223 -237q35 -117 112 -322l55.5 -143.5t61.5 -155.5l-8 -12q-115 0 -217 -6l-8 10q-55 184 -96 305q-82 242 -97 291q-68 -285 -121 -592l-14 -10q-37 0 -79 -1t-67.5 -2t-50.5 -1l-8 10q4 23 66 277q41 168 59 250l49 221q57 246 123 579q27 133 33 185l12 12 q133 20 215 35l11 -11q-39 -141 -62 -247l-162 -682l199 221q76 86 170 205l16 10h80q61 0 119 2l4 -14q-27 -31 -93 -98z" />
<glyph unicode="l" horiz-adv-x="425" d="M397 987l-92 -412q-68 -305 -112 -561l-15 -12q-109 0 -198 -4l-9 10l66 287q31 117 55 244l62 266q74 344 112 545q23 119 27 170l14 12q115 16 213 35l10 -11q-33 -120 -133 -569z" />
<glyph unicode="m" horiz-adv-x="1492" d="M1376 606l-30 -149q-51 -227 -86 -418l-7 -25l-14 -12q-39 0 -195 -4l-10 12l4 15q43 168 84 354l47 205q35 156 35 209q0 45 -18 75q-29 47 -101 47q-129 0 -211 -112q-2 -55 -47 -273l-45 -215q-35 -156 -61 -303l-14 -10q-37 0 -92.5 -1t-100.5 -3l-8 12l84 359 l26 127q49 225 50 290q0 129 -109 129q-45 0 -103.5 -27.5t-95.5 -82.5l-69 -309q-63 -293 -99 -482l-14 -12q-47 0 -194 -4l-11 12q4 14 25.5 100.5t23.5 96.5l37 164l43 190q72 342 88 473l15 13q100 12 203 32l10 -10l-31 -119q133 131 289 131q98 0 151 -63 q29 -35 39 -82q143 143 324 143q92 0 160.5 -51t68.5 -170q0 -76 -41 -252z" />
<glyph unicode="n" d="M827 426l-30 -141l-52 -271l-14 -12q-104 0 -199 -4l-8 10q49 199 84 365l51 233q18 84 23 115q10 45 10 84q0 113 -123 113t-211 -113q-49 -213 -86 -391l-79 -400l-15 -12q-100 0 -194 -4l-11 10q2 8 7 21l77 331l31 146q70 322 100 522l15 12q88 12 205 35l8 -12 l-31 -113q141 131 297 131q90 0 157.5 -52t67.5 -163q0 -57 -55 -321z" />
<glyph unicode="o" d="M907 700q0 -47 -7 -115.5t-40 -181t-84 -202.5t-154.5 -157t-238.5 -67q-164 0 -254 97q-94 100 -94 288q0 68 11 149t47 186.5t90.5 188.5t152.5 141t225 58q164 0 258 -102q88 -99 88 -283zM399 119q113 0 183 123q51 92 87 240.5t36 256.5q0 205 -156 205 q-133 0 -207 -156q-37 -76 -69.5 -211t-32.5 -247q-1 -211 159 -211z" />
<glyph unicode="p" d="M418 1067l-23 -88q113 100 244 100q123 0 202 -88t79 -250q0 -106 -33 -236t-94 -231q-168 -279 -525 -278q-35 0 -88 4q-31 -131 -82 -414l-12 -10q-119 0 -203 -2l-10 10q80 322 98 404l39 164q150 672 180 882l13 13q100 12 207 32zM365 819l-150 -669q25 -6 61 -7 q109 0 197 58.5t137 148.5t75 186.5t26 182.5q0 205 -154 205q-116 -1 -192 -105z" />
<glyph unicode="q" d="M971 1065l8 -10q-63 -229 -145 -596l-82 -373q-55 -266 -99 -500l-16 -12q-35 1 -69 1q-68 0 -132 -3l-8 10q20 74 59 238q47 213 62 264q-121 -102 -252 -102q-133 0 -205 88t-72 241q0 152 69 331t204 294q68 57 147.5 87t124.5 34t123 6h103q119 0 180 2zM586 248 l149 663q-37 1 -66 2q-15 0 -27 -1q-38 -1 -68.5 -7t-61.5 -20q-96 -45 -163.5 -163t-90 -220.5t-22.5 -175.5q0 -84 30 -131q49 -61 119 -62q49 0 106.5 30t94.5 85z" />
<glyph unicode="r" horiz-adv-x="641" d="M266 416l-45 -211l-37 -193l-14 -12q-109 0 -190 -4l-9 10l39 158l18 72q11 47 17 69l45 197q86 401 103 530l12 12q82 10 196 33l11 -10l-29 -117l-25 -100q25 47 43.5 75.5t51 67.5t72.5 58.5t87 19.5t82 -24l2 -17l-32 -94q-12 -33 -33 -98l-13 -4q-33 23 -79 22 q-68 0 -119 -47q-53 -47 -81 -127t-73 -266z" />
<glyph unicode="s" horiz-adv-x="724" d="M-47 55l-8 15q25 59 47 137l18 4q82 -86 201 -86q88 0 140 51t52 121q0 39 -20.5 74t-37.5 51t-56 45q-70 53 -107 86t-66.5 88t-29.5 119q0 129 93 227t280 98q143 0 246 -61l8 -20q-25 -59 -47 -127l-17 -5q-70 68 -174 68q-84 0 -133 -49t-49 -111q0 -37 20.5 -70.5 t39 -51t57.5 -46.5q55 -41 81.5 -64.5t61.5 -61t48 -78.5t13 -93q0 -129 -98 -232t-283 -103q-63 0 -139 16q-82 18 -141 59z" />
<glyph unicode="t" horiz-adv-x="512" d="M414 166l6 -6q-8 -27 -37 -140l-12 -14q-72 -20 -121 -20q-115 0 -172 65q-45 49 -45 127q0 35 6 70q16 98 78 344l76 323q-21 1 -42 1q-41 0 -77 -3l-6 13q18 63 34 129l11 12q82 -4 110 -4q35 147 53 254l15 10l201 51l10 -10l-41 -149l-37 -156q53 0 164 4l6 -12 q-20 -61 -37 -129l-12 -13q-68 2 -154 2l-108 -462q-41 -172 -41 -224q0 -86 84 -86q35 0 88 23z" />
<glyph unicode="u" d="M848 551l-49 -221q-45 -213 -60 -316l-14 -10q-123 -4 -188 -8l-9 12l27 109q-121 -135 -276 -135q-119 0 -184.5 59t-65.5 168q0 39 6 76q12 82 59 282l45 201q33 139 58 276l14 13q76 0 199 8l6 -10q-170 -680 -170 -787q0 -43 15 -71.5t41 -39t40 -12.5t29 -2 q129 0 211 121l77 350l43 211l43 217l15 13q115 2 198 10l9 -12q-37 -147 -43 -176q-14 -55 -39 -170z" />
<glyph unicode="v" horiz-adv-x="811" d="M727 700l-152 -305l-83 -165l-109 -218l-14 -10q-121 -2 -203 -6l-14 10q0 16 -2.5 48t-4.5 82t-4 81q-8 127 -10 191l-12 243l-13 199q-8 150 -12 197l10 12q72 0 191 10l8 -12q0 -84 4 -314l12 -557l244 529l86 184q51 111 70 156l12 8q92 0 170 2l8 -12l-94 -181z" />
<glyph unicode="w" horiz-adv-x="1280" d="M1178 610l-129 -305l-129 -289l-17 -14q-150 -4 -207 -6l-10 14q0 143 2 215l10 662l-231 -570q-96 -219 -129 -303l-12 -12q-119 0 -222 -4l-10 12q0 25 -2 178.5t-2 182.5l4 340v176q-2 53 -2 160l10 12q104 2 183 8l10 -10q-2 -59 -7 -181t-9 -184l-13 -524l248 604 q37 94 57 139l54 140l14 10q131 0 225 4l8 -10q-2 -35 -5 -119t-3 -113l-16 -655l203 522q27 63 75 191q41 96 70 172l12 10q90 0 162 2l6 -12z" />
<glyph unicode="x" horiz-adv-x="811" d="M692 825l-207 -270q18 -59 91 -274t96 -267l-8 -14q-111 0 -205 -6l-13 12l-45 172l-59 215l-139 -196q-31 -41 -66 -95q-33 -53 -63 -96l-13 -6q-106 0 -188 -2l-6 12l10 13q14 16 84 106t80 102l244 314l-92 274q-49 139 -76 230l8 12q115 2 203 8l10 -10q2 -2 4 -10.5 t2 -10.5q8 -43 55 -221l33 -110l92 133l142 215l14 8q94 0 184 2l4 -12l-30 -41l-35 -46q-14 -19 -23 -30z" />
<glyph unicode="y" horiz-adv-x="854" d="M948 1065l6 -12l-120 -215l-207 -383l-156 -291l-205 -400l-86 -176l-14 -12q-98 0 -193 -2l-4 12l131 228q106 180 107 188q0 53 -17 174q-2 29 -8 84t-8 82l-35 354q-6 66 -39 353l11 12q123 2 196 10l10 -10q8 -182 19 -316l35 -483l178 361q125 242 211 430l12 12 q46 -1 90 -1t86 1z" />
<glyph unicode="z" horiz-adv-x="768" d="M623 158l6 -13q-4 -18 -17.5 -60t-21.5 -73l-15 -12q-71 1 -167 1q-194 0 -492 -3h-6l-4 16q31 41 211 314l164 243l108 158l123 184h-240l-157 -4l-6 15q27 80 38 127l15 14q60 -3 181 -3q61 0 136 1h103q147 0 219 4l6 -18l-12 -19l-295 -430q-170 -248 -295 -450 q201 0 418 8z" />
<glyph unicode="{" horiz-adv-x="724" d="M682 1507v-116q-115 -8 -156 -54q-33 -35 -40 -86t-7 -151v-105q0 -184 -10 -252q-14 -88 -54 -125.5t-104 -52.5v-8q100 -25 138 -102q20 -45 24 -102.5t6 -225.5v-104q0 -129 15 -177q10 -37 29.5 -60.5t49 -33.5t50 -13t59.5 -7v-117q-76 2 -117 5t-99 23.5t-95 59.5 q-47 51 -59.5 115.5t-12.5 189.5v193q0 160 -29.5 226.5t-136.5 74.5v119q106 8 136 74.5t30 224.5v194q0 84 3 127t19.5 92t49.5 86q37 39 95 59.5t99 23.5t117 5z" />
<glyph unicode="|" horiz-adv-x="468" d="M168 1536h164v-2048h-164v2048z" />
<glyph unicode="}" horiz-adv-x="724" d="M328 995v105q0 129 -15 176q-10 37 -29.5 60.5t-49 33.5t-50 13t-59.5 8v116q76 -2 117 -5t99 -23.5t95 -59.5q47 -51 59.5 -115.5t12.5 -189.5v-194q0 -158 29.5 -224.5t136.5 -74.5v-119q-106 -8 -136 -75t-30 -226v-193q0 -84 -3 -127t-19.5 -92t-49.5 -86 q-37 -39 -95 -59.5t-99 -23.5t-117 -5v117q115 8 156 53q33 35 40 86t7 152v104q0 188 10 252q14 90 55 127t103 51v8q-98 20 -136 103q-20 43 -25 103t-7 224z" />
<glyph unicode="~" horiz-adv-x="1492" d="M1169 750l78 -148q-129 -162 -280 -162q-72 0 -207 66l-58 29q-102 49 -163 49q-74 0 -133 -64l-62 -74l-82 146q31 45 57.5 74.5t87 63.5t128.5 34q80 0 227 -68l67 -30q92 -43 144 -43q90 0 196 127z" />
<glyph unicode="&#xa1;" horiz-adv-x="468" d="M61 365l76 290q72 285 92 383l15 15q33 0 139 4l8 -13l-47 -229l-41 -219q-82 -432 -104 -578l-15 -14q-80 0 -211 -8l-10 14q20 64 98 355zM250 1223l-8 12q6 23 43 199l12 12q98 0 199 4l8 -12q-27 -113 -45 -199l-15 -12q-110 0 -194 -4z" />
<glyph unicode="&#xa2;" horiz-adv-x="768" d="M610 37l-12 -14q-72 -41 -176 -46q-27 -96 -43 -174l-12 -10q-57 2 -119 0l-10 12q29 88 51 187q-61 16 -101 43q-150 96 -149 338q0 158 51 309.5t161.5 267t258.5 131.5l17 82l18 86l16 11h29q53 0 88 2l10 -13q-20 -70 -45 -170q76 -14 152 -51l4 -14 q-37 -94 -51 -142l-19 -4q-66 59 -151 60q-84 0 -152 -56.5t-106.5 -141.5t-58 -172t-19.5 -163q0 -262 215 -262q119 0 184 60l14 -5q-27 -85 -45 -151z" />
<glyph unicode="&#xa3;" horiz-adv-x="894" d="M723 154l4 -13l-35 -133l-12 -10q-29 2 -74 2h-336q-104 0 -288 -4l-9 14q94 125 157 288t83 312q-27 0 -71 -1t-83 -3l-8 10q16 47 35 113l12 10q59 -2 133 -2q2 8 7.5 50t11.5 79l8 49q14 100 47 177q55 131 158.5 195.5t232.5 64.5q162 0 248 -72q16 -16 17 -29 q-10 -25 -21 -63q-14 -45 -22 -78l-13 -2q-74 90 -188 90q-211 0 -268 -315l-13 -73q-10 -60 -12 -69q225 0 346 7l6 -11q-4 -12 -37 -123l-16 -10q-53 4 -322 4q-27 -160 -56.5 -253t-100.5 -210q205 0 243 2q127 1 236 7z" />
<glyph unicode="&#xa4;" horiz-adv-x="1366" d="M1292 1167l-153 -153q37 -57 53 -89t32.5 -92.5t16.5 -132.5q0 -78 -16.5 -141t-33.5 -95t-54 -89l155 -158l-125 -121l-153 156q-59 -37 -91 -53.5t-92.5 -32.5t-132.5 -16q-76 0 -138 16t-94 33.5t-87 54.5l-156 -156l-123 123l156 154q-37 57 -54.5 89t-33.5 95.5 t-16 138.5q0 170 104 316l-154 153l123 123l154 -153q152 104 321 104q72 0 132.5 -16.5t93 -33.5t88.5 -54l155 153zM696 309q158 0 269.5 108.5t111.5 280.5q0 170 -113.5 276.5t-263.5 106.5q-162 0 -273.5 -109.5t-111.5 -273.5q0 -172 113.5 -280.5t267.5 -108.5z" />
<glyph unicode="&#xa5;" d="M227 0l-10 10l92 344q-176 0 -256 -2l-8 17l37 114l16 15q55 -2 150 -2h96q10 31 10 41l-30 118q-133 0 -205 -2l-8 17q27 76 36 116l17 15q27 -2 125 -2l-41 168q-37 141 -47 188q-41 147 -43 156l6 10q129 2 219 8l10 -10q25 -158 121 -627l225 332l189 291l12 8h45 q57 0 82 2h72l6 -10l-193 -260l-186 -258q59 0 129 4l10 -13q-20 -55 -39 -122l-14 -13q-57 2 -188 2l-93 -127l-8 -32h156q78 0 108 2l11 -13q-25 -74 -37 -120l-17 -13q-61 2 -260 2l-18 -65l-62 -275l-12 -10q-96 0 -205 -4z" />
<glyph unicode="&#xa6;" horiz-adv-x="468" d="M168 1382h164v-716h-164v716zM168 358h164v-716h-164v716z" />
<glyph unicode="&#xa7;" horiz-adv-x="894" d="M858 1241l-14 -4q-68 94 -185 94q-78 0 -124 -52t-46 -112q0 -43 29 -95t54 -80l79 -83q59 -57 88 -91t55.5 -90t26.5 -120q0 -145 -129 -243q-41 -33 -172 -97q100 -125 101 -235q0 -133 -104.5 -235.5t-283.5 -102.5q-170 0 -270 86q-16 14 -22 29q23 68 47 153l20 2 q76 -123 223 -123q100 0 150.5 58.5t50.5 126.5q0 63 -36 114.5t-115 126.5q-66 61 -103 101.5t-70.5 108t-33.5 136.5q0 150 141 252q57 41 168 78q-82 109 -82 211q0 121 92 219.5t254 98.5q145 0 254 -82l6 -17q-35 -88 -49 -133zM356 446l88 -84q35 14 58.5 27.5 t60.5 39.5t56.5 64.5t19.5 86.5q0 78 -100 186l-84 84q-66 -16 -101 -43q-102 -66 -102 -174q0 -51 25.5 -91.5t78.5 -95.5z" />
<glyph unicode="&#xa8;" horiz-adv-x="468" d="M512 1415l10 -12q-33 -129 -43 -180l-14 -13q-78 0 -162 -4l-8 13q10 43 39 180l14 12q98 0 164 4zM166 1415l10 -12l-41 -180l-14 -13q-78 0 -162 -4l-10 13l41 180l12 12q98 0 164 4z" />
<glyph unicode="&#xa9;" horiz-adv-x="1705" d="M1239 528l115 -100q-70 -82 -148 -125q-113 -61 -239 -61q-217 0 -352.5 138t-135.5 345t137.5 347t346.5 140q229 0 389 -184l-113 -108q-45 45 -71.5 67.5t-82 47t-118.5 24.5q-133 0 -230.5 -91t-97.5 -245q0 -145 95 -236.5t235 -91.5q149 0 270 133zM1679 723 q0 -305 -211 -517t-520 -212q-297 0 -512 207t-215 524q0 305 213 516t518 211q309 0 518 -213t209 -516zM1614 721q0 279 -189.5 472t-472.5 193q-281 0 -473 -193.5t-192 -467.5q0 -283 194.5 -474.5t468.5 -191.5q233 0 418 146q129 100 187.5 243.5t58.5 272.5z" />
<glyph unicode="&#xaa;" horiz-adv-x="681" d="M778 1434l-61 -271q-8 -45 -29 -135q-41 -186 -53 -276q0 -2 -1 -10.5t-1 -10.5l-12 -10h-54q-37 0 -78 -4l-10 14l15 49q-76 -72 -170 -71q-78 0 -131.5 53t-53.5 168q0 176 94 323q123 195 347 195l190 -2zM387 823q80 0 127 82q12 61 47 211q6 31 23.5 110t23.5 109 q-82 4 -133 -20q-86 -45 -133 -165t-47 -206q0 -49 18 -82q23 -39 74 -39z" />
<glyph unicode="&#xab;" horiz-adv-x="811" d="M475 973l4 -15l-276 -393q59 -213 119 -393l-13 -16q-82 2 -153 0l-15 12l-49 180l-63 213l2 19l254 383l20 10q88 -2 170 0zM815 973l4 -15l-276 -393l119 -393l-11 -16q-82 2 -155 0l-13 12l-49 180l-63 213l2 19l254 383l20 10q86 -2 168 0z" />
<glyph unicode="&#xac;" horiz-adv-x="1366" d="M1190 2v516h-1202v162h1366v-678h-164z" />
<glyph unicode="&#xad;" horiz-adv-x="555" d="M508 657l8 -12l-45 -153l-16 -11q-8 0 -65.5 1t-67.5 1h-70q-174 0 -227 -2l-9 13q31 92 45 149l15 14q74 -4 262 -4q84 0 170 4z" />
<glyph unicode="&#xae;" horiz-adv-x="1705" d="M559 1188h299q152 0 215 -23q72 -25 110 -84t38 -129q0 -168 -189 -217q59 -27 88 -65.5t43 -126.5q16 -115 28.5 -165t41.5 -110h-186q-23 43 -37 129q-2 10 -11.5 71.5t-11.5 70.5q-18 100 -69.5 121.5t-194.5 21.5v-414h-164v920zM725 1061v-248h135q113 0 154 33 q43 31 43 94q0 80 -66 109q-33 12 -162 12h-104zM1597 725q0 -305 -210.5 -518t-520.5 -213q-293 0 -510 207t-217 522q0 311 214 520t513 209q311 0 521 -213t210 -514zM868 59q281 0 472.5 193.5t191.5 472.5q0 274 -190.5 467.5t-471.5 193.5q-279 0 -472 -194.5 t-193 -468.5q0 -279 194.5 -471.5t468.5 -192.5z" />
<glyph unicode="&#xaf;" horiz-adv-x="468" d="M522 1386l8 -12q-14 -51 -26 -129l-17 -10q-23 0 -167 1t-170 1q-135 0 -201 -2l-8 12q10 37 26 125l15 14q74 -4 368 -4q90 0 172 4z" />
<glyph unicode="&#x2c9;" horiz-adv-x="468" d="M522 1386l8 -12q-14 -51 -26 -129l-17 -10q-23 0 -167 1t-170 1q-135 0 -201 -2l-8 12q10 37 26 125l15 14q74 -4 368 -4q90 0 172 4z" />
<glyph unicode="&#xb0;" horiz-adv-x="724" d="M461 1546q137 0 233.5 -96t96.5 -233.5t-96.5 -233.5t-233.5 -96t-234.5 96t-97.5 233.5t97.5 233.5t234.5 96zM460.5 1382q-67.5 0 -114.5 -47t-47 -114.5t47 -114.5t114.5 -47t115 47t47.5 114.5t-47.5 114.5t-115 47z" />
<glyph unicode="&#xb1;" horiz-adv-x="1024" d="M608 700v-370h-162v370h-370v162h370v367h162v-367h365v-162h-365zM973 162v-162h-897v162h897z" />
<glyph unicode="&#xb2;" horiz-adv-x="641" d="M588 559l12 -16q-16 -47 -33 -111l-16 -12q-33 2 -88 2q-385 0 -432 -2l-11 29q78 92 164 178l142 159l90 104q31 36 60.5 91t29.5 98q0 49 -33 92t-102 43q-98 0 -197 -88l-22 7q12 41 32 131l13 16q88 61 206 61q125 0 192 -69.5t67 -169.5q0 -96 -55.5 -177 t-215.5 -253l-115 -121q107 0 312 8z" />
<glyph unicode="&#xb3;" horiz-adv-x="641" d="M696 1329l9 -24l-153 -184q-114 -138 -124 -152q170 -41 170 -219q0 -72 -31.5 -147t-118 -136t-211 -61t-206.5 51l-6 16l14 53q2 14 16 60l21 4q51 -59 155.5 -59.5t156.5 70.5t52 147q0 68 -41 98.5t-102 30.5q-27 0 -66 -15l-24 31q49 53 133 164l117 145 q-248 -4 -277 -6l-12 14q14 39 33 103l14 14q106 -2 320 -2q75 0 161 4z" />
<glyph unicode="&#xb4;" horiz-adv-x="468" d="M424 1489l4 -12q-125 -141 -252 -303l-18 -9q-49 4 -115 2l-4 13q96 154 170 295l16 12q27 -2 78 -2q19 0 121 4z" />
<glyph unicode="&#xb5;" d="M528 8l27 109q-47 -53 -88 -82q-88 -55 -162 -55q-70 0 -135 75q-59 -295 -88 -471l-14 -10q-98 2 -187 -2l-8 10q10 51 51 215l70 297l137 623q39 180 66 327l14 13q78 0 199 8l8 -10q-45 -168 -108.5 -446.5t-63.5 -340.5q0 -125 127 -125q129 0 211 121l75 350l46 211 q29 135 40 217l15 13q113 2 198 10l9 -12q-37 -147 -43 -176q-8 -29 -21 -86l-18 -84l-37 -156l-47 -221q-51 -246 -62 -316l-14 -10q-123 -4 -188 -8z" />
<glyph unicode="&#x3bc;" d="M528 8l27 109q-47 -53 -88 -82q-88 -55 -162 -55q-70 0 -135 75q-59 -295 -88 -471l-14 -10q-98 2 -187 -2l-8 10q10 51 51 215l70 297l137 623q39 180 66 327l14 13q78 0 199 8l8 -10q-45 -168 -108.5 -446.5t-63.5 -340.5q0 -125 127 -125q129 0 211 121l75 350l46 211 q29 135 40 217l15 13q113 2 198 10l9 -12q-37 -147 -43 -176q-8 -29 -21 -86l-18 -84l-37 -156l-47 -221q-51 -246 -62 -316l-14 -10q-123 -4 -188 -8z" />
<glyph unicode="&#xb6;" horiz-adv-x="1366" d="M729 1446h471v-111h-70v-1675h-118v1675h-297v-1675h-117v993q-53 12 -79.5 20.5t-66.5 30t-73 56.5q-104 106 -105 276q0 127 62 226q39 61 90 101t112.5 56.5t98.5 20.5t92 6z" />
<glyph unicode="&#xb7;" horiz-adv-x="425" d="M324 680l10 -12l-45 -199l-10 -12q-98 0 -201 -4l-6 12q27 111 43 199l14 12q111 0 195 4z" />
<glyph unicode="&#x2219;" horiz-adv-x="425" d="M324 680l10 -12l-45 -199l-10 -12q-98 0 -201 -4l-6 12q27 111 43 199l14 12q111 0 195 4z" />
<glyph unicode="&#xb8;" horiz-adv-x="468" d="M387 -88l6 -12l-131 -258l-16 -15q-61 2 -164 0l-6 17q86 119 174 258l18 12q16 0 59.5 -1t59.5 -1z" />
<glyph unicode="&#xb9;" horiz-adv-x="641" d="M508 997l-43 -186l-24 -114l-37 -175q-17 -82 -17 -88l-14 -12q-74 0 -142 -2l-12 12q12 41 76 318l31 135l71 313q-74 -14 -110 -22l-11 14l23 94l12 14q184 25 262 45l15 -14z" />
<glyph unicode="&#xba;" horiz-adv-x="681" d="M745 1196q0 -35 -5 -83t-27.5 -124t-59.5 -136t-106.5 -104t-161.5 -44q-106 0 -173 64.5t-67 199.5q0 47 8.5 102t33 127t61.5 129t104.5 96t151.5 39q109 0 180 -71q61 -68 61 -195zM295 946q0 -135 102 -135q72 0 117 80q35 59 58.5 159.5t23.5 172.5q0 131 -98 131 q-84 0 -133 -101q-25 -53 -47.5 -143t-22.5 -164z" />
<glyph unicode="&#xbb;" horiz-adv-x="811" d="M-33 156l-4 14l277 393l-119 393l10 17h156l12 -12l49 -179l64 -215l-2 -18l-254 -383l-21 -10q-86 2 -168 0zM307 156l-4 14l277 393q-59 213 -119 393l12 17h154l14 -12l49 -179q41 -143 64 -215l-2 -18l-254 -383l-21 -10q-88 2 -170 0z" />
<glyph unicode="&#xbc;" horiz-adv-x="1536" d="M1360 246l-14 -15q-51 2 -89 0q-23 -94 -47 -217l-12 -14q-29 0 -63.5 -2t-63.5 -2l-12 14q23 84 55 221h-168h-174l-8 17l20 82q8 14 21 30l193 253q175 228 202 266q8 14 29 28q20 -2 61 -2q6 0 109 4l10 -16q-63 -254 -125 -541q47 0 92 2l10 -16q-22 -76 -26 -92z M934 352h209l65 277l37 137q-31 -37 -76 -100zM426 997l-43 -186l-24 -114l-36 -175q-17 -82 -18 -88l-14 -10q-6 0 -141 -4l-13 12q12 41 76 318l31 135l71 313q-74 -14 -110 -22l-10 14l22 94l12 14q184 25 263 45l14 -16q-68 -275 -80 -330zM905 887l-160 -256l-253 -406 l-125 -213l-21 -10h-100l-8 -2h-19l-6 14q78 111 141 215l125 199l115 180l111 174l122 201l199 330l21 12q53 -2 120 0l4 -14z" />
<glyph unicode="&#xbd;" horiz-adv-x="1536" d="M442 997l-41 -186l-23 -114l-37 -175q-17 -82 -17 -88l-15 -12q-74 0 -141 -2l-12 12q14 47 75 318l31 133l72 315q-66 -12 -111 -22l-10 14l23 94l12 14q188 27 262 45l14 -16l-48 -193zM862 887l-160 -256l-251 -408l-127 -211l-19 -10h-41q-18 0 -47 -1t-41 -1l-4 14 q49 70 141 213l125 201l115 180l109 174l124 201l197 330l23 12q51 -2 118 0l6 -14zM1321 137l12 -16q-16 -47 -33 -111l-16 -10h-88q-387 0 -432 -2l-10 29q78 92 164 178l141 160l90 102q33 39 61.5 93t28.5 97q0 49 -32.5 92.5t-102.5 43.5q-98 0 -197 -88l-22 6 q12 41 33 131l12 16q88 61 207 62q125 0 191.5 -70t66.5 -170q0 -96 -55.5 -177t-215.5 -253l-114 -121q106 0 311 8z" />
<glyph unicode="&#xbe;" horiz-adv-x="1536" d="M696 1329l9 -24l-153 -184q-114 -138 -124 -152q170 -41 170 -219q0 -72 -31.5 -147t-118 -136t-211 -61t-206.5 51l-6 16l14 53q2 14 16 60l21 4q51 -59 155.5 -59.5t156.5 70.5t52 147q0 68 -41 98.5t-102 30.5q-27 0 -66 -15l-24 31q49 53 133 164l117 145 q-248 -4 -277 -6l-12 14q14 39 33 103l14 14q106 -2 320 -2q75 0 161 4zM999 887l-159 -256l-254 -406l-125 -213l-21 -10h-100l-8 -2h-19l-6 14q78 111 142 215l124 199l115 180l111 174l123 201l198 330l21 12q53 -2 121 0l4 -14zM1442 246l-15 -15q-51 2 -90 0 q-31 -139 -45 -217l-14 -14q-31 -2 -64.5 -3t-62.5 -1l-12 14q35 129 55 221h-168h-172l-10 17l22 82q10 20 21 30q2 4 91 121l187 245l117 153q8 14 29 28q20 -2 61 -2q4 0 107 4l10 -16l-65 -282q-56 -245 -58 -259q47 0 92 2l8 -16q-12 -43 -24 -92zM1014 352h209l67 277 l18 68l17 69q-29 -37 -74 -100z" />
<glyph unicode="&#xbf;" horiz-adv-x="768" d="M193 682l57 63q80 90 111.5 145.5t58.5 149.5l14 15q70 0 144 4l6 -12q0 -25 -25 -115q-23 -70 -54.5 -117t-94.5 -115q-90 -100 -128 -147t-71 -112.5t-33 -129.5q0 -74 46 -126t145 -52q127 0 237 92l17 -8q-27 -88 -43 -151l-17 -21q-115 -70 -252 -70q-86 0 -145 23 q-86 33 -135 106.5t-49 174.5q0 84 36.5 164.5t71.5 123.5t103 115zM430 1223l-10 12l45 199l10 12q113 0 201 4l6 -12q-33 -145 -43 -199l-14 -12q-111 0 -195 -4z" />
<glyph unicode="&#xc0;" horiz-adv-x="1067" d="M850 1456l8 -10q6 -229 31.5 -744.5t40.5 -689.5l-10 -10q-102 0 -203 -6l-10 12l-5 225l-6 213q-70 2 -209 3q-141 0 -208 -3l-74 -157l-62 -133q-20 -43 -63 -144l-12 -10q-12 0 -201 -4l-6 12l245 486l226 450l246 496l12 8q237 6 260 6zM670 1290l-320 -684 q27 0 83 -1t85 -1t87.5 1t86.5 1l-12 387q-4 98 -4 152q-2 100 -6 145zM778 1827l13 -10q16 -125 43 -267l-9 -12h-112l-15 10l-116 264l8 15q98 -2 188 0z" />
<glyph unicode="&#xc1;" horiz-adv-x="1067" d="M850 1456l8 -10q6 -229 31.5 -744.5t40.5 -689.5l-10 -10q-102 0 -203 -6l-10 12l-5 225l-6 213q-70 2 -209 3q-141 0 -208 -3l-74 -157l-62 -133q-20 -43 -63 -144l-12 -10q-12 0 -201 -4l-6 12l245 486l226 450l246 496l12 8q237 6 260 6zM670 1290l-320 -684 q27 0 83 -1t85 -1t87.5 1t86.5 1l-12 387q-4 98 -4 152q-2 100 -6 145zM1042 1825l5 -10q-117 -111 -269 -271l-18 -6q-59 2 -125 0l-6 10q104 139 186 267l16 8h84q72 0 127 2z" />
<glyph unicode="&#xc2;" horiz-adv-x="1067" d="M850 1456l8 -10q6 -229 31.5 -744.5t40.5 -689.5l-10 -10q-102 0 -203 -6l-10 12l-5 225l-6 213q-70 2 -209 3q-141 0 -208 -3l-74 -157l-62 -133q-20 -43 -63 -144l-12 -10q-12 0 -201 -4l-6 12l245 486l226 450l246 496l12 8q237 6 260 6zM670 1290l-320 -684 q27 0 83 -1t85 -1t87.5 1t86.5 1l-12 387q-4 98 -4 152q-2 100 -6 145zM928 1827l14 -10q25 -119 66 -267l-13 -10q-33 0 -143 -4l-16 12l-39 199l-179 -205l-18 -6h-129l-6 12q131 135 242 267l18 10q113 0 203 2z" />
<glyph unicode="&#xc3;" horiz-adv-x="1067" d="M850 1456l8 -10q6 -229 31.5 -744.5t40.5 -689.5l-10 -10q-102 0 -203 -6l-10 12l-5 225l-6 213q-70 2 -209 3q-141 0 -208 -3l-74 -157l-62 -133q-20 -43 -63 -144l-12 -10q-12 0 -201 -4l-6 12l245 486l226 450l246 496l12 8q237 6 260 6zM670 1290l-320 -684 q27 0 83 -1t85 -1t87.5 1t86.5 1l-12 387q-4 98 -4 152q-2 100 -6 145zM1024 1767l14 -6q-18 -72 -30 -127l-13 -18q-68 -51 -145 -51q-43 0 -109 26q-80 35 -120 35q-68 0 -132 -57l-14 6q25 92 33 127l10 16q70 51 137 51q41 0 111 -28q76 -35 115 -35q82 0 143 61z" />
<glyph unicode="&#xc4;" horiz-adv-x="1067" d="M850 1456l8 -10q6 -229 31.5 -744.5t40.5 -689.5l-10 -10q-102 0 -203 -6l-10 12l-5 225l-6 213q-70 2 -209 3q-141 0 -208 -3l-74 -157l-62 -133q-20 -43 -63 -144l-12 -10q-12 0 -201 -4l-6 12l245 486l226 450l246 496l12 8q237 6 260 6zM670 1290l-320 -684 q27 0 83 -1t85 -1t87.5 1t86.5 1l-12 387q-4 98 -4 152q-2 100 -6 145zM1044 1763l11 -12l-43 -180l-15 -12q-78 0 -161 -5l-9 13q10 43 39 180l15 12q87 0 163 4zM649 1763l8 -12q-25 -102 -41 -180l-14 -12q-78 0 -162 -5l-10 13l41 180l12 12q88 0 166 4z" />
<glyph unicode="&#xc5;" horiz-adv-x="1067" d="M850 1456l8 -10q6 -229 31.5 -744.5t40.5 -689.5l-10 -10q-102 0 -203 -6l-10 12l-5 225l-6 213q-70 2 -209 3q-141 0 -208 -3l-74 -157l-62 -133q-20 -43 -63 -144l-12 -10q-12 0 -201 -4l-6 12l245 486l226 450l246 496l12 8q237 6 260 6zM670 1290l-320 -684 q27 0 83 -1t85 -1t87.5 1t86.5 1l-12 387q-4 98 -4 152q-2 100 -6 145zM956 1759q0 -86 -56 -160.5t-173 -74.5q-80 0 -130 42t-50 124q0 96 63.5 166.5t169.5 70.5q78 0 127 -43t49 -125zM731 1604q31 0 54.5 21.5t33.5 52t14.5 54t4.5 35.5q0 76 -62 76q-33 0 -55.5 -19.5 t-33.5 -49t-15 -52t-4 -36.5q0 -82 63 -82z" />
<glyph unicode="&#xc6;" horiz-adv-x="1492" d="M1350 178l10 -10l-45 -158l-12 -10q-45 -2 -150.5 0t-126.5 2l-137 -2q-137 0 -281 -4l-8 8q2 10 25 109q4 23 14 62.5t12 51.5l49 209q-41 2 -184 0t-190 -4l-101 -168l-139 -254l-16 -10q-125 0 -203 -4l-8 12l139 221l154 252l370 600l113 189q8 12 37.5 66.5 t48.5 82.5q6 14 24 27q266 0 400 2h86q303 0 368 2l9 -10l-41 -146l-13 -10q-223 4 -319 4h-137l-105 -461h133q186 4 316 9l8 -13l-45 -143l-16 -12q-47 2 -428 2l-52 -228q-2 -6 -28.5 -127.5t-30.5 -146.5h129q275 6 371 10zM829 1290l-411 -694q29 -2 225 -2q59 0 94 2 l158 694h-66z" />
<glyph unicode="&#xc7;" horiz-adv-x="1067" d="M633 -88l6 -12l-131 -258l-14 -15q-61 2 -166 0l-6 17q109 154 174 258l18 12q16 0 59.5 -1t59.5 -1zM950 236l13 -7l-52 -182l-14 -16q-113 -57 -274 -58q-252 0 -391.5 154t-139.5 420q0 215 87 430t233 340q184 156 411 156q190 0 330 -99l6 -14q-41 -119 -53 -160 l-19 -4q-102 102 -249 102q-145 0 -267 -110.5t-188 -279.5t-66 -349q0 -190 89 -297q92 -111 260 -110q157 0 284 84z" />
<glyph unicode="&#xc8;" horiz-adv-x="894" d="M754 178l6 -12l-45 -154l-10 -10h-357q-31 0 -92 -1t-92 -1q-113 0 -168 -4l-8 12l98 414l74 321l49 238l49 225l41 209q0 4 1 10.5t3 10.5l14 12h455q78 0 229 4l7 -10q-25 -90 -39 -148l-15 -12q-172 6 -462 6l-103 -459l252 5q176 2 205 4l6 -11q-14 -47 -39 -141 l-14 -10q-127 2 -267 2h-176l-43 -193l-67 -315h239q177 4 269 8zM694 1827l13 -10q16 -125 43 -267l-9 -12h-112l-15 10l-116 264l8 15q98 -2 188 0z" />
<glyph unicode="&#xc9;" horiz-adv-x="894" d="M754 178l6 -12l-45 -154l-10 -10h-357q-31 0 -92 -1t-92 -1q-113 0 -168 -4l-8 12l98 414l74 321l49 238l49 225l41 209q0 4 1 10.5t3 10.5l14 12h455q78 0 229 4l7 -10q-25 -90 -39 -148l-15 -12q-172 6 -462 6l-103 -459l252 5q176 2 205 4l6 -11q-14 -47 -39 -141 l-14 -10q-127 2 -267 2h-176l-43 -193l-67 -315h239q177 4 269 8zM958 1825l5 -10q-117 -111 -269 -271l-18 -6q-59 2 -125 0l-6 10q104 139 186 267l17 8h83q72 0 127 2z" />
<glyph unicode="&#xca;" horiz-adv-x="894" d="M754 178l6 -12l-45 -154l-10 -10h-357q-31 0 -92 -1t-92 -1q-113 0 -168 -4l-8 12l98 414l74 321l49 238l49 225l41 209q0 4 1 10.5t3 10.5l14 12h455q78 0 229 4l7 -10q-25 -90 -39 -148l-15 -12q-172 6 -462 6l-103 -459l252 5q176 2 205 4l6 -11q-14 -47 -39 -141 l-14 -10q-127 2 -267 2h-176l-43 -193l-67 -315h239q177 4 269 8zM844 1827l14 -10q25 -119 66 -267l-13 -10q-33 0 -143 -4l-16 12l-39 199l-178 -205l-19 -6h-129l-6 12q131 135 242 267l18 10q113 0 203 2z" />
<glyph unicode="&#xcb;" horiz-adv-x="894" d="M754 178l6 -12l-45 -154l-10 -10h-357q-31 0 -92 -1t-92 -1q-113 0 -168 -4l-8 12l98 414l74 321l49 238l49 225l41 209q0 4 1 10.5t3 10.5l14 12h455q78 0 229 4l7 -10q-25 -90 -39 -148l-15 -12q-172 6 -462 6l-103 -459l252 5q176 2 205 4l6 -11q-14 -47 -39 -141 l-14 -10q-127 2 -267 2h-176l-43 -193l-67 -315h239q177 4 269 8zM987 1763l10 -12l-43 -180l-14 -12q-78 0 -162 -5l-8 13q10 43 39 180l14 12q88 0 164 4zM592 1763l8 -12q-25 -102 -41 -180l-14 -12q-78 0 -162 -5l-10 13l41 180l12 12q88 0 166 4z" />
<glyph unicode="&#xcc;" horiz-adv-x="468" d="M350 649l-49 -225l-82 -412l-14 -12q-98 2 -213 -2l-8 10q14 57 63 271l100 436l105 475q18 82 47 244l14 12q115 0 213 4l9 -10q-2 -2 -2.5 -10.5t-2.5 -10.5zM481 1827l13 -10q16 -125 43 -267l-9 -12h-112l-15 10l-116 264l8 15q98 -2 188 0z" />
<glyph unicode="&#xcd;" horiz-adv-x="468" d="M350 649l-49 -225l-82 -412l-14 -12q-98 2 -213 -2l-8 10q14 57 63 271l100 436l105 475q18 82 47 244l14 12q115 0 213 4l9 -10q-2 -2 -2.5 -10.5t-2.5 -10.5zM745 1825l5 -10q-117 -111 -269 -271l-18 -6q-59 2 -125 0l-6 10q104 139 186 267l17 8h83q72 0 127 2z" />
<glyph unicode="&#xce;" horiz-adv-x="468" d="M350 649l-49 -225l-82 -412l-14 -12q-98 2 -213 -2l-8 10q14 57 63 271l100 436l105 475q18 82 47 244l14 12q115 0 213 4l9 -10q-2 -2 -2.5 -10.5t-2.5 -10.5zM631 1827l14 -10q25 -119 66 -267l-13 -10q-33 0 -143 -4l-16 12l-39 199l-178 -205l-19 -6h-129l-6 12 q131 135 242 267l18 10q113 0 203 2z" />
<glyph unicode="&#xcf;" horiz-adv-x="468" d="M350 649l-49 -225l-82 -412l-14 -12q-98 2 -213 -2l-8 10q14 57 63 271l100 436l105 475q18 82 47 244l14 12q115 0 213 4l9 -10q-2 -2 -2.5 -10.5t-2.5 -10.5zM774 1763l10 -12l-43 -180l-14 -12q-78 0 -162 -5l-8 13q10 43 39 180l14 12q88 0 164 4zM379 1763l8 -12 q-25 -102 -41 -180l-14 -12q-78 0 -162 -5l-10 13l41 180l12 12q88 0 166 4z" />
<glyph unicode="&#xd0;" horiz-adv-x="1236" d="M-4 -2l-8 10q33 139 45 185q8 29 20.5 90t20.5 90l73 329q-82 -2 -133 -2l-10 11q12 43 29 118l16 13q6 0 63.5 -1t65.5 -1q82 377 121 594l16 12l273 2q96 0 148 -3t133 -18.5t140.5 -53.5t104.5 -99q90 -123 90 -320q0 -164 -58.5 -365.5t-176.5 -346.5 q-55 -70 -120 -116t-123 -71.5t-143 -38t-148.5 -15.5t-170.5 -3h-268zM657 702l-295 5q-63 -281 -116 -541h88q96 0 149.5 5t128 36t136.5 92q104 104 169.5 293.5t65.5 355.5q0 244 -172 314q-72 29 -223 24l-94 -2l-101 -442l299 4l10 -12q-8 -31 -28 -117z" />
<glyph unicode="&#xd1;" horiz-adv-x="1236" d="M1180 934l-84 -385q-23 -96 -64 -289q-37 -166 -51 -246l-14 -12q-113 0 -215 -4l-15 12q-23 80 -67 256l-234 942l-172 -809l-78 -387l-14 -10q-29 0 -176 -4l-6 10l125 539l67 301q104 498 121 586l14 10q18 0 56.5 1t56.5 1q43 0 121 4l18 -10q35 -154 72 -291 l121 -485l100 -381l158 733l84 420l14 10h29q14 0 141 4l8 -10q0 -10 -4 -23zM1110 1767l14 -6q-18 -72 -30 -127l-13 -18q-68 -51 -145 -51q-43 0 -109 26q-80 35 -120 35q-68 0 -132 -57l-14 6q25 92 33 127l10 16q70 51 137 51q41 0 111 -28q76 -35 115 -35q82 0 143 61z " />
<glyph unicode="&#xd2;" horiz-adv-x="1280" d="M1241 944q0 -82 -14.5 -176t-44 -206.5t-84 -214t-126 -186.5t-180 -135.5t-237.5 -50.5q-111 0 -197 37q-270 117 -270 498q0 82 14.5 176t43 206t84 213t128 184t181 133.5t239.5 50.5q207 0 335 -136.5t128 -392.5zM561 139q115 0 209 92.5t145.5 228.5t79 267 t27.5 231q0 111 -27.5 187t-71.5 109.5t-80 46t-73 12.5q-113 0 -206 -89t-146 -222.5t-81 -268.5t-28 -246q0 -190 76 -269t176 -79zM885 1827l12 -10q16 -125 43 -267l-8 -12h-113l-14 10q-68 160 -117 264l8 15q99 -2 189 0z" />
<glyph unicode="&#xd3;" horiz-adv-x="1280" d="M1241 944q0 -82 -14.5 -176t-44 -206.5t-84 -214t-126 -186.5t-180 -135.5t-237.5 -50.5q-111 0 -197 37q-270 117 -270 498q0 82 14.5 176t43 206t84 213t128 184t181 133.5t239.5 50.5q207 0 335 -136.5t128 -392.5zM561 139q115 0 209 92.5t145.5 228.5t79 267 t27.5 231q0 111 -27.5 187t-71.5 109.5t-80 46t-73 12.5q-113 0 -206 -89t-146 -222.5t-81 -268.5t-28 -246q0 -190 76 -269t176 -79zM1149 1825l4 -10q-117 -111 -268 -271l-19 -6q-59 2 -125 0l-6 10q104 139 187 267l16 8h84q72 0 127 2z" />
<glyph unicode="&#xd4;" horiz-adv-x="1280" d="M1241 944q0 -82 -14.5 -176t-44 -206.5t-84 -214t-126 -186.5t-180 -135.5t-237.5 -50.5q-111 0 -197 37q-270 117 -270 498q0 82 14.5 176t43 206t84 213t128 184t181 133.5t239.5 50.5q207 0 335 -136.5t128 -392.5zM561 139q115 0 209 92.5t145.5 228.5t79 267 t27.5 231q0 111 -27.5 187t-71.5 109.5t-80 46t-73 12.5q-113 0 -206 -89t-146 -222.5t-81 -268.5t-28 -246q0 -190 76 -269t176 -79zM1014 1827l14 -10q25 -119 66 -267l-13 -10q-33 0 -143 -4l-16 12l-39 199l-178 -205l-19 -6h-129l-6 12q131 135 242 267l18 10 q113 0 203 2z" />
<glyph unicode="&#xd5;" horiz-adv-x="1280" d="M1241 944q0 -82 -14.5 -176t-44 -206.5t-84 -214t-126 -186.5t-180 -135.5t-237.5 -50.5q-111 0 -197 37q-270 117 -270 498q0 82 14.5 176t43 206t84 213t128 184t181 133.5t239.5 50.5q207 0 335 -136.5t128 -392.5zM561 139q115 0 209 92.5t145.5 228.5t79 267 t27.5 231q0 111 -27.5 187t-71.5 109.5t-80 46t-73 12.5q-113 0 -206 -89t-146 -222.5t-81 -268.5t-28 -246q0 -190 76 -269t176 -79zM1130 1767l15 -6l-31 -127l-12 -18q-68 -51 -146 -51q-43 0 -108 26q-80 35 -121 35q-68 0 -131 -57l-14 6q25 92 32 127l11 16 q70 51 137 51q41 0 110 -28q76 -35 115 -35q82 0 143 61z" />
<glyph unicode="&#xd6;" horiz-adv-x="1280" d="M1241 944q0 -82 -14.5 -176t-44 -206.5t-84 -214t-126 -186.5t-180 -135.5t-237.5 -50.5q-111 0 -197 37q-270 117 -270 498q0 82 14.5 176t43 206t84 213t128 184t181 133.5t239.5 50.5q207 0 335 -136.5t128 -392.5zM561 139q115 0 209 92.5t145.5 228.5t79 267 t27.5 231q0 111 -27.5 187t-71.5 109.5t-80 46t-73 12.5q-113 0 -206 -89t-146 -222.5t-81 -268.5t-28 -246q0 -190 76 -269t176 -79zM1153 1763l10 -12l-43 -180l-14 -12q-78 0 -162 -5l-8 13q10 43 39 180l14 12q88 0 164 4zM758 1763l8 -12q-25 -102 -41 -180l-14 -12 q-78 0 -162 -5l-10 13l41 180l12 12q88 0 166 4z" />
<glyph unicode="&#xd7;" horiz-adv-x="1024" d="M641 600l307 -311l-114 -115l-308 307l-311 -307l-115 115l312 311l-312 307l115 113l311 -307l308 307l114 -113z" />
<glyph unicode="&#xd8;" horiz-adv-x="1280" d="M1290 1300l-94 -96q45 -123 45 -270q0 -219 -79 -444.5t-218 -360.5q-162 -154 -383 -154q-125 0 -215 45q-90 41 -160 136l-61 -64l-102 -110h-19l-63 61v20q16 14 106 105l86 86q-43 125 -43 274q0 63 12.5 148.5t40 196t80.5 213t125 191.5t184.5 142.5t247.5 53.5 q113 0 203 -41q88 -39 156 -129l67 67l46 48q42 44 51 55l18 2q31 -35 65 -66l-2 -18zM1016 1020l-684 -715q76 -172 235 -172q129 0 234.5 120t161 302t55.5 381q0 45 -2 84zM315 442l684 713q-84 168 -231 168q-129 0 -235.5 -120t-163 -300t-56.5 -373q0 -45 2 -88z" />
<glyph unicode="&#xd9;" horiz-adv-x="1193" d="M1245 1450l10 -10q-33 -135 -43 -183q-8 -39 -34 -151l-76 -332l-22 -89l-23 -97l-45 -182q-16 -57 -30.5 -96.5t-55.5 -109t-91.5 -112.5t-140.5 -78t-202 -35q-180 0 -295 90.5t-115 270.5q0 102 74 418l90 399q33 133 61 281l12 12q35 0 216 4l8 -10l-168 -686 q-76 -330 -76 -406q0 -115 65.5 -162t147.5 -47q121 0 199 74q66 61 102.5 174t108.5 422l67 303q53 252 66 322l14 12q94 0 176 4zM844 1827l12 -10q16 -125 43 -267l-8 -12h-113l-14 10q-68 160 -117 264l8 15q99 -2 189 0z" />
<glyph unicode="&#xda;" horiz-adv-x="1193" d="M1245 1450l10 -10q-33 -135 -43 -183q-8 -39 -34 -151l-76 -332l-22 -89l-23 -97l-45 -182q-16 -57 -30.5 -96.5t-55.5 -109t-91.5 -112.5t-140.5 -78t-202 -35q-180 0 -295 90.5t-115 270.5q0 102 74 418l90 399q33 133 61 281l12 12q35 0 216 4l8 -10l-168 -686 q-76 -330 -76 -406q0 -115 65.5 -162t147.5 -47q121 0 199 74q66 61 102.5 174t108.5 422l67 303q53 252 66 322l14 12q94 0 176 4zM1108 1825l4 -10q-117 -111 -268 -271l-19 -6q-59 2 -125 0l-6 10q104 139 187 267l16 8h84q72 0 127 2z" />
<glyph unicode="&#xdb;" horiz-adv-x="1193" d="M1245 1450l10 -10q-33 -135 -43 -183q-8 -39 -34 -151l-76 -332l-22 -89l-23 -97l-45 -182q-16 -57 -30.5 -96.5t-55.5 -109t-91.5 -112.5t-140.5 -78t-202 -35q-180 0 -295 90.5t-115 270.5q0 102 74 418l90 399q33 133 61 281l12 12q35 0 216 4l8 -10l-168 -686 q-76 -330 -76 -406q0 -115 65.5 -162t147.5 -47q121 0 199 74q66 61 102.5 174t108.5 422l67 303q53 252 66 322l14 12q94 0 176 4zM993 1827l15 -10q25 -119 65 -267l-12 -10q-33 0 -143 -4l-17 12l-39 199l-178 -205l-18 -6h-129l-7 12q131 135 242 267l19 10q112 0 202 2 z" />
<glyph unicode="&#xdc;" horiz-adv-x="1193" d="M1245 1450l10 -10q-33 -135 -43 -183q-8 -39 -34 -151l-76 -332l-22 -89l-23 -97l-45 -182q-16 -57 -30.5 -96.5t-55.5 -109t-91.5 -112.5t-140.5 -78t-202 -35q-180 0 -295 90.5t-115 270.5q0 102 74 418l90 399q33 133 61 281l12 12q35 0 216 4l8 -10l-168 -686 q-76 -330 -76 -406q0 -115 65.5 -162t147.5 -47q121 0 199 74q66 61 102.5 174t108.5 422l67 303q53 252 66 322l14 12q94 0 176 4zM1126 1763l11 -12l-43 -180l-15 -12q-78 0 -161 -5l-9 13q10 43 39 180l15 12q87 0 163 4zM731 1763l8 -12q-25 -102 -41 -180l-14 -12 q-78 0 -162 -5l-10 13l41 180l12 12q88 0 166 4z" />
<glyph unicode="&#xdd;" d="M600 578l-65 -265l-62 -299l-12 -12q-111 0 -205 -4l-10 10l6 21l61 250q55 227 64 278q4 20 6 29l-107 471q-8 33 -23 102.5t-24 102.5l-43 170l9 10q74 2 217 10l10 -10q47 -336 123 -682l223 358l188 320l13 8h47q72 0 153 2l7 -10l-193 -285zM999 1825l5 -10 q-117 -111 -269 -271l-18 -6q-59 2 -125 0l-6 10q104 139 186 267l16 8h84q72 0 127 2z" />
<glyph unicode="&#xde;" horiz-adv-x="937" d="M526 1448l9 -10q-16 -74 -58 -232q23 0 56.5 1t48.5 1q96 0 157 -18q100 -31 153.5 -114t53.5 -204q0 -104 -37 -216.5t-100 -186.5q-80 -96 -186.5 -127t-255.5 -31h-88q-2 -8 -10.5 -45t-10.5 -45q-2 -12 -10 -56l-18 -94q-9 -50 -11 -59l-16 -12q-111 0 -211 -4 l-10 10l65 273l100 436l103 475q27 117 49 244l14 12q107 -2 213 2zM350 649l-39 -176q150 -2 207 19q68 23 115 77t65.5 116.5t25.5 104t7 74.5q0 154 -135 183q-57 12 -154 6l-42 -182l-28 -125z" />
<glyph unicode="&#xdf;" horiz-adv-x="937" d="M352 791l-92 -439q-4 -16 -30.5 -150t-36.5 -190l-17 -12q-104 0 -192 -6l-11 10q16 66 51 221.5t48 202.5l92 428q63 274 82 338q12 43 22.5 71.5t41 85t68.5 91.5t103.5 62.5t147.5 27.5q139 0 220 -83t81 -200q0 -61 -29 -122.5t-56.5 -94.5t-84.5 -94l-43 -49 q-70 -74 -70 -109q0 -33 45 -118l31 -56l55 -106q18 -37 32.5 -87.5t14.5 -97.5q0 -49 -16 -100t-53 -106.5t-110 -90t-171 -34.5q-111 0 -176 34l-4 17l18 63q2 12 8.5 36t8.5 36l16 2q47 -47 111 -47q70 0 114.5 51t44.5 129q0 68 -73 230l-51 100q-41 96 -41 121 q0 27 12 46t51 66l43 45q106 113 146 185.5t40 142.5q0 63 -32.5 104t-89.5 41q-104 0 -160 -147q-33 -94 -109 -448z" />
<glyph unicode="&#xe0;" d="M952 1051l-90 -398q-94 -420 -127 -641l-12 -10q-102 0 -186 -4l-11 10l27 103q-121 -127 -266 -127q-123 0 -195 84q-72 82 -72 237q0 145 60.5 320.5t195.5 300.5q68 61 145 93t122 38t123 8h278zM379 137q127 0 196 129q12 45 70 314l74 335q-18 2 -55 3 q-145 0 -244 -101q-92 -94 -139.5 -243.5t-47.5 -247.5q1 -189 146 -189zM651 1489l11 -10q20 -174 40 -299l-8 -13q-61 0 -108 -2l-13 13l-110 295l10 16q80 -2 178 0z" />
<glyph unicode="&#xe1;" d="M952 1051l-90 -398q-94 -420 -127 -641l-12 -10q-102 0 -186 -4l-11 10l27 103q-121 -127 -266 -127q-123 0 -195 84q-72 82 -72 237q0 145 60.5 320.5t195.5 300.5q68 61 145 93t122 38t123 8h278zM379 137q127 0 196 129q12 45 70 314l74 335q-18 2 -55 3 q-145 0 -244 -101q-92 -94 -139.5 -243.5t-47.5 -247.5q1 -189 146 -189zM905 1489l4 -12q-125 -141 -252 -303l-18 -9q-49 4 -115 2l-4 13q96 154 170 295l17 12q27 -2 77 -2q19 0 121 4z" />
<glyph unicode="&#xe2;" d="M952 1051l-90 -398q-94 -420 -127 -641l-12 -10q-102 0 -186 -4l-11 10l27 103q-121 -127 -266 -127q-123 0 -195 84q-72 82 -72 237q0 145 60.5 320.5t195.5 300.5q68 61 145 93t122 38t123 8h278zM379 137q127 0 196 129q12 45 70 314l74 335q-18 2 -55 3 q-145 0 -244 -101q-92 -94 -139.5 -243.5t-47.5 -247.5q1 -189 146 -189zM786 1491l15 -12q20 -139 51 -299l-10 -11q-18 0 -133 -4l-15 15q-10 92 -26 219l-156 -228l-16 -6h-121l-6 15q113 147 215 299l16 10h76q71 0 110 2z" />
<glyph unicode="&#xe3;" d="M952 1051l-90 -398q-94 -420 -127 -641l-12 -10q-102 0 -186 -4l-11 10l27 103q-121 -127 -266 -127q-123 0 -195 84q-72 82 -72 237q0 145 60.5 320.5t195.5 300.5q68 61 145 93t122 38t123 8h278zM379 137q127 0 196 129q12 45 70 314l74 335q-18 2 -55 3 q-145 0 -244 -101q-92 -94 -139.5 -243.5t-47.5 -247.5q1 -189 146 -189zM899 1411l14 -6q-20 -76 -30 -133l-13 -19q-68 -55 -145 -55q-41 0 -107 29q-80 37 -116 37q-70 0 -133 -60l-15 4q18 68 33 133l10 19q66 53 135 53q49 0 111 -31q80 -37 113 -36q82 -1 143 65z" />
<glyph unicode="&#xe4;" d="M952 1051l-90 -398q-94 -420 -127 -641l-12 -10q-102 0 -186 -4l-11 10l27 103q-121 -127 -266 -127q-123 0 -195 84q-72 82 -72 237q0 145 60.5 320.5t195.5 300.5q68 61 145 93t122 38t123 8h278zM379 137q127 0 196 129q12 45 70 314l74 335q-18 2 -55 3 q-145 0 -244 -101q-92 -94 -139.5 -243.5t-47.5 -247.5q1 -189 146 -189zM987 1415l10 -12q-33 -129 -43 -180l-14 -13q-78 0 -162 -4l-8 13q10 43 39 180l14 12q98 0 164 4zM641 1415l10 -12l-41 -180l-14 -13q-78 0 -162 -4l-10 13l41 180l12 12q98 0 164 4z" />
<glyph unicode="&#xe5;" d="M952 1051l-90 -398q-94 -420 -127 -641l-12 -10q-102 0 -186 -4l-11 10l27 103q-121 -127 -266 -127q-123 0 -195 84q-72 82 -72 237q0 145 60.5 320.5t195.5 300.5q68 61 145 93t122 38t123 8h278zM379 137q127 0 196 129q12 45 70 314l74 335q-18 2 -55 3 q-145 0 -244 -101q-92 -94 -139.5 -243.5t-47.5 -247.5q1 -189 146 -189zM930 1389q0 -88 -56.5 -162t-173.5 -74q-82 0 -131 43t-49 121q0 96 62.5 166.5t171.5 70.5q78 0 127 -41.5t49 -123.5zM705 1233q57 0 81.5 59.5t24.5 104.5q0 74 -61 73q-41 0 -68 -34.5t-34 -66.5 t-7 -56q1 -80 64 -80z" />
<glyph unicode="&#xe6;" horiz-adv-x="1366" d="M1192 205l18 -8q-10 -39 -36 -156l-15 -21q-86 -41 -227 -40q-258 0 -344 167q-33 -49 -68 -79q-102 -88 -246 -88q-133 0 -200.5 78.5t-67.5 205.5q0 154 94 262q76 88 184.5 114t290.5 28q20 82 21 139q0 55 -23 84q-41 47 -122 47q-139 0 -269 -113l-14 9 q16 59 39 161l12 15q121 74 279 73q215 0 243 -149q115 152 293 151q123 0 208 -77.5t85 -247.5q0 -119 -29 -219l-20 -17q-205 4 -434 4q-72 0 -111 -2q-16 -66 -16 -131q0 -119 61.5 -191.5t190.5 -72.5q143 0 223 74zM760 662q35 -2 133 -3q37 0 137 1.5t107 1.5 q10 72 10 106q0 182 -137 182q-70 0 -139.5 -65t-110.5 -223zM551 535q-70 -2 -106.5 -5.5t-88 -19.5t-84.5 -47q-70 -66 -69 -170q0 -66 34.5 -112t104.5 -46q66 0 118 42t81 93q-8 41 -9 90q1 69 19 175z" />
<glyph unicode="&#xe7;" horiz-adv-x="768" d="M457 -88l6 -12l-131 -258l-15 -15q-61 2 -165 0l-5 17q117 168 172 258l19 12q16 0 59.5 -1t59.5 -1zM651 195l15 -7q-25 -78 -45 -159l-13 -15q-80 -33 -188 -32q-184 0 -284.5 103t-100.5 298q0 104 29.5 219t90 226.5t170 184t250.5 72.5q133 0 234 -57l4 -14 q-4 -12 -13 -37t-14 -37q-14 -35 -22 -63l-21 -7q-72 57 -159 58q-90 0 -161 -57.5t-109 -144.5t-57 -171t-19 -156q0 -119 56 -191.5t171 -72.5q102 1 186 60z" />
<glyph unicode="&#xe8;" horiz-adv-x="894" d="M721 201l18 -6q-18 -63 -41 -160l-14 -19q-100 -39 -233 -39q-197 0 -305.5 102.5t-108.5 301.5q0 113 30.5 231.5t90 227t162 177t231.5 68.5q158 0 237 -100q70 -84 70 -229q0 -104 -33 -230l-14 -10q-27 0 -192.5 1t-196.5 1q-53 0 -107.5 -1t-66.5 -1 q-14 -57 -15 -123q0 -98 31 -149q63 -113 232 -113q139 0 225 70zM274 651l381 4q16 74 17 125q0 20 -3 39t-13.5 53.5t-40 56t-76.5 21.5q-23 0 -46.5 -6t-65.5 -30.5t-83 -92.5t-70 -170zM610 1489l11 -10q20 -174 41 -299l-9 -13q-61 0 -108 -2l-13 13l-110 295l10 16 q80 -2 178 0z" />
<glyph unicode="&#xe9;" horiz-adv-x="894" d="M721 201l18 -6q-18 -63 -41 -160l-14 -19q-100 -39 -233 -39q-197 0 -305.5 102.5t-108.5 301.5q0 113 30.5 231.5t90 227t162 177t231.5 68.5q158 0 237 -100q70 -84 70 -229q0 -104 -33 -230l-14 -10q-27 0 -192.5 1t-196.5 1q-53 0 -107.5 -1t-66.5 -1 q-14 -57 -15 -123q0 -98 31 -149q63 -113 232 -113q139 0 225 70zM274 651l381 4q16 74 17 125q0 20 -3 39t-13.5 53.5t-40 56t-76.5 21.5q-23 0 -46.5 -6t-65.5 -30.5t-83 -92.5t-70 -170zM864 1489l4 -12q-125 -141 -252 -303l-18 -9q-49 4 -115 2l-4 13q96 154 170 295 l17 12q27 -2 77 -2q19 0 121 4z" />
<glyph unicode="&#xea;" horiz-adv-x="894" d="M721 201l18 -6q-18 -63 -41 -160l-14 -19q-100 -39 -233 -39q-197 0 -305.5 102.5t-108.5 301.5q0 113 30.5 231.5t90 227t162 177t231.5 68.5q158 0 237 -100q70 -84 70 -229q0 -104 -33 -230l-14 -10q-27 0 -192.5 1t-196.5 1q-53 0 -107.5 -1t-66.5 -1 q-14 -57 -15 -123q0 -98 31 -149q63 -113 232 -113q139 0 225 70zM274 651l381 4q16 74 17 125q0 20 -3 39t-13.5 53.5t-40 56t-76.5 21.5q-23 0 -46.5 -6t-65.5 -30.5t-83 -92.5t-70 -170zM745 1491l15 -12q20 -139 51 -299l-10 -11q-18 0 -133 -4l-15 15q-10 92 -26 219 l-156 -228l-16 -6h-121l-6 15q113 147 215 299l16 10h76q71 0 110 2z" />
<glyph unicode="&#xeb;" horiz-adv-x="894" d="M721 201l18 -6q-18 -63 -41 -160l-14 -19q-100 -39 -233 -39q-197 0 -305.5 102.5t-108.5 301.5q0 113 30.5 231.5t90 227t162 177t231.5 68.5q158 0 237 -100q70 -84 70 -229q0 -104 -33 -230l-14 -10q-27 0 -192.5 1t-196.5 1q-53 0 -107.5 -1t-66.5 -1 q-14 -57 -15 -123q0 -98 31 -149q63 -113 232 -113q139 0 225 70zM274 651l381 4q16 74 17 125q0 20 -3 39t-13.5 53.5t-40 56t-76.5 21.5q-23 0 -46.5 -6t-65.5 -30.5t-83 -92.5t-70 -170zM883 1415l10 -12q-33 -129 -43 -180l-14 -13q-78 0 -162 -4l-8 13q10 43 39 180 l14 12q98 0 164 4zM537 1415l10 -12l-41 -180l-14 -13q-78 0 -162 -4l-11 13l41 180l13 12q98 0 164 4z" />
<glyph unicode="&#xec;" horiz-adv-x="425" d="M297 532l-43 -213q-47 -236 -57 -307l-15 -10q-106 0 -207 -4l-10 10q14 61 49 193q0 2 80 352l27 127q45 203 65 354l15 13q113 14 211 32l10 -12q-37 -142 -125 -535zM375 1489l10 -10q20 -174 41 -299l-8 -13q-61 0 -109 -2l-12 13l-111 295l11 16q80 -2 178 0z" />
<glyph unicode="&#xed;" horiz-adv-x="425" d="M297 532l-43 -213q-47 -236 -57 -307l-15 -10q-106 0 -207 -4l-10 10q14 61 49 193q0 2 80 352l27 127q45 203 65 354l15 13q113 14 211 32l10 -12q-37 -142 -125 -535zM629 1489l4 -12q-125 -141 -252 -303l-19 -9q-49 4 -114 2l-4 13q96 154 170 295l16 12q27 -2 78 -2 q19 0 121 4z" />
<glyph unicode="&#xee;" horiz-adv-x="425" d="M297 532l-43 -213q-47 -236 -57 -307l-15 -10q-106 0 -207 -4l-10 10q14 61 49 193q0 2 80 352l27 127q45 203 65 354l15 13q113 14 211 32l10 -12q-37 -142 -125 -535zM510 1491l14 -12q20 -139 51 -299l-10 -11q-18 0 -133 -4l-14 15q-10 92 -27 219l-155 -228l-17 -6 h-121l-6 15q113 147 215 299l17 10h75q72 0 111 2z" />
<glyph unicode="&#xef;" horiz-adv-x="425" d="M297 532l-43 -213q-47 -236 -57 -307l-15 -10q-106 0 -207 -4l-10 10q14 61 49 193q0 2 80 352l27 127q45 203 65 354l15 13q113 14 211 32l10 -12q-37 -142 -125 -535zM647 1415l10 -12q-33 -129 -43 -180l-14 -13q-78 0 -162 -4l-8 13q10 43 39 180l14 12q98 0 164 4z M301 1415l10 -12l-41 -180l-14 -13q-78 0 -162 -4l-10 13l41 180l12 12q98 0 164 4z" />
<glyph unicode="&#xf0;" d="M971 1350l-8 -15l-125 -30q88 -213 88 -471q0 -164 -38 -327t-95 -269q-137 -260 -408 -261q-166 0 -256 97q-94 100 -94 286q0 160 58.5 340.5t174.5 280.5q125 104 275 104q98 0 166 -57q-25 139 -64 223q-139 -33 -244 -61l-16 6q-20 61 -45 111l6 14q6 2 14.5 4 t14.5 2l209 49q-37 78 -119 148l10 18q63 10 98 21l80 18l23 -8q59 -68 106 -148q35 8 101 29l24 6l19 -2q20 -53 45 -108zM399 119q113 0 183 123q51 92 87 240.5t36 256.5q0 205 -156 205q-125 0 -207 -156q-37 -76 -69.5 -211t-32.5 -247q-1 -211 159 -211z" />
<glyph unicode="&#xf1;" d="M827 426l-30 -141l-52 -271l-14 -12q-104 0 -199 -4l-8 10q49 199 84 365l51 233q18 84 23 115q10 45 10 84q0 113 -123 113t-211 -113q-49 -213 -86 -391l-79 -400l-15 -12q-100 0 -194 -4l-11 10q2 8 7 21l77 331l31 146q70 322 100 522l15 12q88 12 205 35l8 -12 l-31 -113q141 131 297 131q90 0 157.5 -52t67.5 -163q0 -57 -55 -321zM899 1411l14 -6q-20 -76 -30 -133l-13 -19q-68 -55 -145 -55q-41 0 -107 29q-80 37 -116 37q-70 0 -133 -60l-15 4q18 68 33 133l10 19q66 53 135 53q49 0 111 -31q80 -37 113 -36q82 -1 143 65z" />
<glyph unicode="&#xf2;" d="M907 700q0 -47 -7 -115.5t-40 -181t-84 -202.5t-154.5 -157t-238.5 -67q-164 0 -254 97q-94 100 -94 288q0 68 11 149t47 186.5t90.5 188.5t152.5 141t225 58q164 0 258 -102q88 -99 88 -283zM399 119q113 0 183 123q51 92 87 240.5t36 256.5q0 205 -156 205 q-133 0 -207 -156q-37 -76 -69.5 -211t-32.5 -247q-1 -211 159 -211zM651 1489l11 -10q20 -174 40 -299l-8 -13q-61 0 -108 -2l-13 13l-110 295l10 16q80 -2 178 0z" />
<glyph unicode="&#xf3;" d="M907 700q0 -47 -7 -115.5t-40 -181t-84 -202.5t-154.5 -157t-238.5 -67q-164 0 -254 97q-94 100 -94 288q0 68 11 149t47 186.5t90.5 188.5t152.5 141t225 58q164 0 258 -102q88 -99 88 -283zM399 119q113 0 183 123q51 92 87 240.5t36 256.5q0 205 -156 205 q-133 0 -207 -156q-37 -76 -69.5 -211t-32.5 -247q-1 -211 159 -211zM905 1489l4 -12q-125 -141 -252 -303l-18 -9q-49 4 -115 2l-4 13q96 154 170 295l17 12q27 -2 77 -2q19 0 121 4z" />
<glyph unicode="&#xf4;" d="M907 700q0 -47 -7 -115.5t-40 -181t-84 -202.5t-154.5 -157t-238.5 -67q-164 0 -254 97q-94 100 -94 288q0 68 11 149t47 186.5t90.5 188.5t152.5 141t225 58q164 0 258 -102q88 -99 88 -283zM399 119q113 0 183 123q51 92 87 240.5t36 256.5q0 205 -156 205 q-133 0 -207 -156q-37 -76 -69.5 -211t-32.5 -247q-1 -211 159 -211zM786 1491l15 -12q20 -139 51 -299l-10 -11q-18 0 -133 -4l-15 15q-10 92 -26 219l-156 -228l-16 -6h-121l-6 15q113 147 215 299l16 10h76q71 0 110 2z" />
<glyph unicode="&#xf5;" d="M907 700q0 -47 -7 -115.5t-40 -181t-84 -202.5t-154.5 -157t-238.5 -67q-164 0 -254 97q-94 100 -94 288q0 68 11 149t47 186.5t90.5 188.5t152.5 141t225 58q164 0 258 -102q88 -99 88 -283zM399 119q113 0 183 123q51 92 87 240.5t36 256.5q0 205 -156 205 q-133 0 -207 -156q-37 -76 -69.5 -211t-32.5 -247q-1 -211 159 -211zM899 1411l14 -6q-20 -76 -30 -133l-13 -19q-68 -55 -145 -55q-41 0 -107 29q-80 37 -116 37q-70 0 -133 -60l-15 4q18 68 33 133l10 19q66 53 135 53q49 0 111 -31q80 -37 113 -36q82 -1 143 65z" />
<glyph unicode="&#xf6;" d="M907 700q0 -47 -7 -115.5t-40 -181t-84 -202.5t-154.5 -157t-238.5 -67q-164 0 -254 97q-94 100 -94 288q0 68 11 149t47 186.5t90.5 188.5t152.5 141t225 58q164 0 258 -102q88 -99 88 -283zM399 119q113 0 183 123q51 92 87 240.5t36 256.5q0 205 -156 205 q-133 0 -207 -156q-37 -76 -69.5 -211t-32.5 -247q-1 -211 159 -211zM915 1415l11 -12q-33 -129 -43 -180l-15 -13q-78 0 -161 -4l-9 13q10 43 39 180l15 12q97 0 163 4zM569 1415l11 -12l-41 -180l-15 -13q-78 0 -162 -4l-10 13l41 180l13 12q97 0 163 4z" />
<glyph unicode="&#xf7;" horiz-adv-x="1024" d="M629 299q0 -51 -34 -83t-85 -32q-43 0 -78 32t-35 81q0 51 34 84t81 33q49 0 83 -33t34 -82zM629 889q0 -41 -30 -77t-85 -36q-49 0 -83 32t-34 79q0 51 34 85t83 34q51 0 83 -35t32 -82zM1022 676v-162h-1024v162h1024z" />
<glyph unicode="&#xf8;" d="M936 938l-57 -59q27 -92 26 -177q0 -233 -98 -436q-139 -287 -428 -286q-86 0 -156 28q-74 31 -117 92q-72 -72 -108 -114h-21l-53 47v20l80 74l55 57q-29 80 -28 187q0 68 12 150.5t48 185t91.5 184.5t152.5 138t220 56q182 0 276 -120l109 116h18q10 -8 29 -25l27 -26 l-2 -20q-17 -13 -76 -72zM700 698l-456 -458q29 -121 157 -121q90 0 156 80q57 70 97 211t46 288zM238 367l458 458q-12 53 -49 84t-60.5 35t-45.5 4q-84 0 -147.5 -65.5t-94.5 -167t-45 -187t-16 -161.5z" />
<glyph unicode="&#xf9;" d="M848 551l-49 -221q-45 -213 -60 -316l-14 -10q-123 -4 -188 -8l-9 12l27 109q-121 -135 -276 -135q-119 0 -184.5 59t-65.5 168q0 39 6 76q12 82 59 282l45 201q33 139 58 276l14 13q76 0 199 8l6 -10q-170 -680 -170 -787q0 -43 15 -71.5t41 -39t40 -12.5t29 -2 q129 0 211 121l77 350l43 211l43 217l15 13q115 2 198 10l9 -12q-37 -147 -43 -176q-14 -55 -39 -170zM651 1489l11 -10q20 -174 40 -299l-8 -13q-61 0 -108 -2l-13 13l-110 295l10 16q80 -2 178 0z" />
<glyph unicode="&#xfa;" d="M848 551l-49 -221q-45 -213 -60 -316l-14 -10q-123 -4 -188 -8l-9 12l27 109q-121 -135 -276 -135q-119 0 -184.5 59t-65.5 168q0 39 6 76q12 82 59 282l45 201q33 139 58 276l14 13q76 0 199 8l6 -10q-170 -680 -170 -787q0 -43 15 -71.5t41 -39t40 -12.5t29 -2 q129 0 211 121l77 350l43 211l43 217l15 13q115 2 198 10l9 -12q-37 -147 -43 -176q-14 -55 -39 -170zM905 1489l4 -12q-125 -141 -252 -303l-18 -9q-49 4 -115 2l-4 13q96 154 170 295l17 12q27 -2 77 -2q19 0 121 4z" />
<glyph unicode="&#xfb;" d="M848 551l-49 -221q-45 -213 -60 -316l-14 -10q-123 -4 -188 -8l-9 12l27 109q-121 -135 -276 -135q-119 0 -184.5 59t-65.5 168q0 39 6 76q12 82 59 282l45 201q33 139 58 276l14 13q76 0 199 8l6 -10q-170 -680 -170 -787q0 -43 15 -71.5t41 -39t40 -12.5t29 -2 q129 0 211 121l77 350l43 211l43 217l15 13q115 2 198 10l9 -12q-37 -147 -43 -176q-14 -55 -39 -170zM786 1491l15 -12q20 -139 51 -299l-10 -11q-18 0 -133 -4l-15 15q-10 92 -26 219l-156 -228l-16 -6h-121l-6 15q113 147 215 299l16 10h76q71 0 110 2z" />
<glyph unicode="&#xfc;" d="M848 551l-49 -221q-45 -213 -60 -316l-14 -10q-123 -4 -188 -8l-9 12l27 109q-121 -135 -276 -135q-119 0 -184.5 59t-65.5 168q0 39 6 76q12 82 59 282l45 201q33 139 58 276l14 13q76 0 199 8l6 -10q-170 -680 -170 -787q0 -43 15 -71.5t41 -39t40 -12.5t29 -2 q129 0 211 121l77 350l43 211l43 217l15 13q115 2 198 10l9 -12q-37 -147 -43 -176q-14 -55 -39 -170zM926 1415l10 -12q-33 -129 -43 -180l-14 -13q-78 0 -162 -4l-8 13q10 43 39 180l14 12q98 0 164 4zM580 1415l10 -12l-41 -180l-14 -13q-78 0 -162 -4l-11 13l41 180 l13 12q98 0 164 4z" />
<glyph unicode="&#xfd;" horiz-adv-x="854" d="M948 1065l6 -12l-120 -215l-207 -383l-156 -291l-205 -400l-86 -176l-14 -12q-98 0 -193 -2l-4 12l131 228q106 180 107 188q0 53 -17 174q-2 29 -8 84t-8 82l-35 354q-6 66 -39 353l11 12q123 2 196 10l10 -10q8 -182 19 -316l35 -483l178 361q125 242 211 430l12 12 q92 -2 176 0zM842 1489l4 -12q-125 -141 -252 -303l-19 -9q-49 4 -114 2l-4 13q96 154 170 295l16 12q27 -2 78 -2q19 0 121 4z" />
<glyph unicode="&#xfe;" d="M477 1315l-82 -336q6 4 15 12q104 88 229 88q123 0 202 -88t79 -250q0 -109 -33 -237.5t-94 -229.5q-170 -279 -525 -278q-35 0 -88 4q-31 -131 -82 -414l-12 -10q-119 0 -203 -2l-10 10q180 737 320 1379q92 438 108 555l14 12q113 16 215 37l9 -11zM365 819l-150 -669 q37 -6 61 -7q109 0 196 58.5t137 148.5t76 185.5t26 183.5q0 205 -154 205q-116 -1 -192 -105z" />
<glyph unicode="&#xff;" horiz-adv-x="854" d="M948 1065l6 -12l-120 -215l-207 -383l-156 -291l-205 -400l-86 -176l-14 -12q-98 0 -193 -2l-4 12l131 228q106 180 107 188q0 53 -17 174q-2 29 -8 84t-8 82l-35 354q-6 66 -39 353l11 12q123 2 196 10l10 -10q8 -182 19 -316l35 -483l178 361q125 242 211 430l12 12 q92 -2 176 0zM860 1415l10 -12q-33 -129 -43 -180l-14 -13q-78 0 -162 -4l-8 13q10 43 39 180l14 12q98 0 164 4zM514 1415l10 -12l-41 -180l-14 -13q-78 0 -162 -4l-10 13l41 180l12 12q98 0 164 4z" />
<glyph unicode="&#x152;" horiz-adv-x="1579" d="M1430 178l10 -10q-27 -86 -43 -158l-15 -12q-182 4 -362 2h-113q-279 0 -319 2q-55 2 -98.5 7t-125 34t-136 79t-97.5 151.5t-43 240.5q0 305 154 576q66 115 144.5 188.5t173.5 109t184.5 48t209.5 12.5q20 0 108.5 -1t147.5 -1h111q276 0 365 4l6 -10l-41 -148l-17 -10 h-18q-109 6 -432 6l-103 -461l215 4q207 2 230 5l8 -11l-41 -139l-16 -12q-80 4 -238 4l-192 -2l-58 -260l-53 -248q16 0 119.5 1t124.5 1q35 0 72.5 1t84.5 3t74 2q2 0 8.5 1t10.5 1zM809 526l90 406q12 47 39 180l13 57l17.5 78t8.5 43q-152 6 -251 -16.5t-183 -106.5 q-104 -104 -169 -300.5t-65 -356.5q0 -158 68 -242q41 -51 106.5 -75.5t112.5 -27.5t133 -1z" />
<glyph unicode="&#x153;" horiz-adv-x="1492" d="M1290 35l-12 -19q-98 -39 -219 -39q-94 0 -168 27q-66 25 -118 80t-62 127q-29 -68 -86 -125q-111 -109 -270.5 -109t-245.5 105q-78 96 -78 268q0 55 9 122t28.5 154t58.5 164.5t92 146.5t137 108.5t185 39.5q137 0 223 -88q55 -57 65 -127q45 92 134.5 153.5 t197.5 61.5q51 0 98.5 -15t93.5 -51t72.5 -104.5t26.5 -164.5q0 -106 -31 -224l-12 -12h-373q-106 0 -180 -4q-10 -80 -10 -123q0 -100 43 -164q68 -94 211 -94q113 0 213 72l18 -6q-18 -64 -41 -160zM883 647l372 4q14 76 15 115q0 59 -16.5 100t-43 56.5t-44 19.5t-31.5 4 q-12 0 -27.5 -3t-48.5 -19.5t-61.5 -45t-60 -89t-54.5 -142.5zM379 121q127 0 207 168q43 94 74.5 226t31.5 220q0 25 -3 47.5t-15 65.5t-46 68.5t-87 25.5q-84 0 -148.5 -78t-97.5 -187.5t-49.5 -201.5t-16.5 -147q0 -102 41 -154.5t109 -52.5z" />
<glyph unicode="&#x178;" d="M600 578l-65 -265l-62 -299l-12 -12q-111 0 -205 -4l-10 10l6 21l61 250q55 227 64 278q4 20 6 29l-107 471q-8 33 -23 102.5t-24 102.5l-43 170l9 10q74 2 217 10l10 -10q47 -336 123 -682l223 358l188 320l13 8h47q72 0 153 2l7 -10l-193 -285zM1028 1763l10 -12 l-43 -180l-14 -12q-78 0 -162 -5l-8 13q10 43 39 180l14 12q88 0 164 4zM633 1763l8 -12q-25 -102 -41 -180l-14 -12q-78 0 -162 -5l-10 13l41 180l12 12q88 0 166 4z" />
<glyph unicode="&#x2c6;" horiz-adv-x="468" d="M412 1491l14 -12q20 -139 51 -299l-10 -11q-18 0 -133 -4l-15 15q-10 92 -26 219l-156 -228l-16 -6h-121l-6 15q113 147 215 299l16 10h76q72 0 111 2z" />
<glyph unicode="&#x2dc;" horiz-adv-x="468" d="M500 1411l14 -6q-20 -76 -31 -133l-12 -19q-68 -55 -145 -55q-41 0 -107 29q-80 37 -117 37q-70 0 -133 -60l-14 4q18 68 33 133l10 19q66 53 135 53q49 0 111 -31q80 -37 112 -36q83 -1 144 65z" />
<glyph unicode="&#x2000;" horiz-adv-x="962" />
<glyph unicode="&#x2001;" horiz-adv-x="1927" />
<glyph unicode="&#x2002;" horiz-adv-x="962" />
<glyph unicode="&#x2003;" horiz-adv-x="1927" />
<glyph unicode="&#x2004;" horiz-adv-x="641" />
<glyph unicode="&#x2005;" horiz-adv-x="481" />
<glyph unicode="&#x2006;" horiz-adv-x="319" />
<glyph unicode="&#x2007;" horiz-adv-x="319" />
<glyph unicode="&#x2008;" horiz-adv-x="239" />
<glyph unicode="&#x2009;" horiz-adv-x="385" />
<glyph unicode="&#x200a;" horiz-adv-x="106" />
<glyph unicode="&#x2010;" horiz-adv-x="555" d="M508 657l8 -12l-45 -153l-16 -11q-8 0 -65.5 1t-67.5 1h-70q-174 0 -227 -2l-9 13q31 92 45 149l15 14q74 -4 262 -4q84 0 170 4z" />
<glyph unicode="&#x2011;" horiz-adv-x="555" d="M508 657l8 -12l-45 -153l-16 -11q-8 0 -65.5 1t-67.5 1h-70q-174 0 -227 -2l-9 13q31 92 45 149l15 14q74 -4 262 -4q84 0 170 4z" />
<glyph unicode="&#x2012;" horiz-adv-x="555" d="M508 657l8 -12l-45 -153l-16 -11q-8 0 -65.5 1t-67.5 1h-70q-174 0 -227 -2l-9 13q31 92 45 149l15 14q74 -4 262 -4q84 0 170 4z" />
<glyph unicode="&#x2013;" horiz-adv-x="937" d="M893 657l6 -10q-6 -25 -22.5 -78t-22.5 -77l-14 -11q-16 0 -25 2q-76 2 -225 2q-57 0 -169 -1t-167 -1q-176 0 -229 -2l-9 15q23 61 45 147l17 14q61 -4 213 -4h424q88 0 178 4z" />
<glyph unicode="&#x2014;" horiz-adv-x="1193" d="M1149 657l6 -12l-45 -153l-14 -11q-10 0 -66.5 1t-66.5 1h-101q-84 0 -247.5 1t-247.5 1q-231 0 -342 -6l-9 15q33 100 45 149l15 12q35 -2 137 -2q31 0 218 2t224 2q27 0 189 -2t192 -2q39 0 113 4z" />
<glyph unicode="&#x2018;" horiz-adv-x="425" d="M147 1012l-6 14q35 49 111 172l174 293l20 12q25 0 60 1t61 3l8 -12q-96 -199 -202 -463l-17 -12q-88 0 -209 -8z" />
<glyph unicode="&#x2019;" horiz-adv-x="425" d="M567 1507l6 -14q-39 -55 -108 -172l-85 -142q-75 -126 -91 -151l-21 -12q-25 0 -59.5 -1t-61.5 -3l-8 12q98 199 203 463l18 12q90 0 207 8z" />
<glyph unicode="&#x201a;" horiz-adv-x="425" d="M270 225l4 -14q-39 -55 -108 -172l-176 -293l-19 -12q-27 0 -121 -4l-10 12q121 242 203 465l18 10q131 2 209 8z" />
<glyph unicode="&#x201c;" horiz-adv-x="768" d="M492 1010l-7 14q45 63 111 172l174 293l21 12q25 0 59.5 1t60.5 3l9 -12q-98 -199 -203 -463l-17 -12q-87 0 -208 -8zM145 1012l-4 14l109 172l176 293l18 12q23 0 59 1t62 3l10 -12q-109 -217 -202 -463l-19 -12q-88 0 -209 -8z" />
<glyph unicode="&#x201d;" horiz-adv-x="768" d="M565 1507l6 -14q-27 -37 -110 -172l-174 -293l-21 -12q-25 0 -59.5 -1t-61.5 -3l-8 12q98 199 203 463l16 12q92 0 209 8zM911 1505l7 -14q-45 -63 -111 -172l-174 -293l-21 -12q-25 0 -59.5 -1t-60.5 -3l-9 12q102 211 203 463l16 12q88 0 209 8z" />
<glyph unicode="&#x201e;" horiz-adv-x="768" d="M268 225l4 -14q-49 -74 -108 -172q-16 -25 -94 -156t-82 -137l-19 -12q-25 0 -123 -4l-8 12q113 229 203 463l18 12q88 0 209 8zM612 223l6 -14q-27 -37 -110 -172l-174 -293l-21 -12q-27 0 -120 -4l-9 12q96 199 203 463l16 12q92 0 209 8z" />
<glyph unicode="&#x2022;" horiz-adv-x="681" d="M367 989q111 0 187.5 -74.5t76.5 -193.5q0 -115 -75 -189.5t-189 -74.5q-113 0 -191 76.5t-78 189.5q0 109 78 187.5t191 78.5z" />
<glyph unicode="&#x2026;" horiz-adv-x="2048" d="M346 225l10 -12q-27 -119 -43 -201l-12 -10q-111 0 -201 -4l-6 12q27 111 43 199l15 12q110 0 194 4zM1030 225l8 -12q-10 -41 -43 -201l-12 -10q-111 0 -199 -4l-8 12q27 113 45 199l15 12q110 0 194 4zM1712 225l8 -12l-43 -201l-12 -10q-109 0 -199 -4l-6 12 q14 59 43 199l15 12q110 0 194 4z" />
<glyph unicode="&#x202f;" horiz-adv-x="385" />
<glyph unicode="&#x2039;" horiz-adv-x="468" d="M475 973l4 -15l-276 -393q59 -213 119 -393l-13 -16q-82 2 -155 0l-13 12l-49 180l-63 213l2 19l254 383l20 10q88 -2 170 0z" />
<glyph unicode="&#x203a;" horiz-adv-x="468" d="M-33 156l-4 14l277 393l-119 393l10 17h156l12 -12l49 -179l64 -215l-2 -18l-254 -383l-21 -10q-86 2 -168 0z" />
<glyph unicode="&#x205f;" horiz-adv-x="481" />
<glyph unicode="&#x20ac;" horiz-adv-x="937" d="M1016 1288l-41 -174q-59 74 -213 74q-240 0 -344 -316h436l-76 -139h-407q-2 -8 -8.5 -30.5t-8.5 -32.5q-4 -14 -9 -39t-5 -29h365l-76 -139h-305q-45 -324 196 -324q145 0 248 74l-41 -176q-88 -59 -272 -60q-375 0 -316 486h-137l78 139h76q2 8 6 32.5t6 35.5l18 63 h-120l75 139h88q170 479 543 480q176 -1 244 -64z" />
<glyph unicode="&#x2122;" horiz-adv-x="1406" d="M1317 1446v-680h-117l4 420l6 139l-32 -115l-140 -444h-106l-172 557l8 -137l4 -420h-115v680h162l170 -537l166 537h162zM387 1346v-580h-119v580h-219v100h551v-100h-213z" />
<glyph unicode="&#xe000;" horiz-adv-x="1070" d="M0 1070h1070v-1070h-1070v1070z" />
<glyph unicode="&#xfb01;" horiz-adv-x="937" d="M573 928l-12 -15q-78 2 -162 0q-100 -422 -188 -899l-14 -12q-96 0 -189 -4l-10 10q25 115 47 205l41 184l117 516q-76 0 -129 -2l-6 11q20 68 34 131l13 12q45 -2 121 -2l16 90q12 63 19.5 92t22.5 81t29.5 76.5t40 59.5t56.5 51.5t75 28.5t99 12q49 0 125 -16l6 -14 q-23 -84 -35 -135l-12 -11q-37 12 -64 13q-76 0 -106.5 -55.5t-63.5 -207.5l-14 -65q41 0 172 4l6 -14q-17 -53 -35 -125zM1020 1552l12 -12l-43 -174l-14 -14q-160 -18 -199 -25l-10 14q14 57 39 170l18 17zM809 535l-43 -216q-47 -236 -57 -307l-15 -10q-109 0 -207 -4 l-10 10q14 61 49 193l43 184l37 168l27 129q47 209 65 352l15 13q113 14 211 32l10 -12q-41 -151 -125 -532z" />
<glyph unicode="&#xfb02;" horiz-adv-x="937" d="M573 928l-12 -15q-78 2 -162 0q-100 -422 -188 -899l-14 -12q-96 0 -189 -4l-10 10q25 115 47 205l41 184l117 516q-76 0 -129 -2l-6 11q20 68 34 131l13 12q45 -2 121 -2l16 90q12 63 19.5 92t22.5 81t29.5 76.5t40 59.5t56.5 51.5t75 28.5t99 12q49 0 125 -16l6 -14 q-23 -84 -35 -135l-12 -11q-37 12 -64 13q-76 0 -106.5 -55.5t-63.5 -207.5l-14 -65q41 0 172 4l6 -14q-17 -53 -35 -125zM909 987l-92 -412q-70 -315 -112 -561l-15 -12q-109 0 -198 -4l-9 10l66 287q4 14 55 244l62 266q63 285 112 545q23 121 27 170l14 12q78 10 213 35 l10 -13q-24 -90 -133 -567z" />
<glyph unicode="&#xfb03;" horiz-adv-x="1449" d="M1321 535l-43 -213q-49 -242 -57 -308l-15 -12q-106 0 -207 -4l-10 10q18 82 49 193q0 2 80 352l27 129q45 203 65 354l15 11q113 14 211 32l10 -10q-41 -153 -125 -534zM1532 1552l12 -12l-43 -174l-14 -14q-160 -18 -199 -25l-10 14q12 49 39 172l18 15q45 6 100.5 12 t96.5 12zM1085 928l-12 -15q-39 1 -79.5 1t-82.5 -1q-100 -422 -188 -899l-14 -12q-96 0 -189 -4l-10 10q25 115 47 205l41 184l117 516q-76 0 -129 -2l-6 11q23 74 34 131l13 12q45 -2 121 -2l16 90q12 63 19.5 92t22.5 81t29.5 76.5t40 59.5t56.5 51.5t75 28.5t99 12 q49 0 125 -16l6 -14l-35 -135l-12 -11q-37 12 -64 13q-76 0 -106.5 -55.5t-63.5 -207.5l-14 -65q41 0 172 4l6 -14zM573 928l-12 -15q-39 1 -79.5 1t-82.5 -1q-100 -422 -188 -899l-14 -12q-96 0 -189 -4l-10 10q25 115 47 205l41 184l117 516q-76 0 -129 -2l-6 11 q23 74 34 131l13 12q45 -2 121 -2l16 90q12 63 19.5 92t22.5 81t29.5 76.5t40 59.5t56.5 51.5t75 28.5t99 12q49 0 125 -16l6 -14l-35 -135l-12 -11q-37 12 -64 13q-76 0 -106.5 -55.5t-63.5 -207.5l-14 -65q41 0 172 4l6 -14z" />
<glyph unicode="&#xfb04;" horiz-adv-x="1449" d="M1421 987l-92 -412q-68 -305 -112 -561l-15 -12q-109 0 -198 -4l-9 10l66 287q31 117 55 244l62 266q74 344 112 545q23 119 27 170l14 12q115 16 213 35l10 -11q-33 -120 -133 -569zM1085 928l-12 -15q-39 1 -79.5 1t-82.5 -1q-100 -422 -188 -899l-14 -12 q-96 0 -189 -4l-10 10q25 115 47 205l41 184l117 516q-76 0 -129 -2l-6 11q23 74 34 131l13 12q45 -2 121 -2l16 90q12 63 19.5 92t22.5 81t29.5 76.5t40 59.5t56.5 51.5t75 28.5t99 12q49 0 125 -16l6 -14l-35 -135l-12 -11q-37 12 -64 13q-76 0 -106.5 -55.5t-63.5 -207.5 l-14 -65q41 0 172 4l6 -14zM573 928l-12 -15q-39 1 -79.5 1t-82.5 -1q-100 -422 -188 -899l-14 -12q-96 0 -189 -4l-10 10q25 115 47 205l41 184l117 516q-76 0 -129 -2l-6 11q23 74 34 131l13 12q45 -2 121 -2l16 90q12 63 19.5 92t22.5 81t29.5 76.5t40 59.5t56.5 51.5 t75 28.5t99 12q49 0 125 -16l6 -14l-35 -135l-12 -11q-37 12 -64 13q-76 0 -106.5 -55.5t-63.5 -207.5l-14 -65q41 0 172 4l6 -14z" />
</font>
</defs>
</svg>
