<?xml version="1.0" standalone="no"?>
<!DOCTYPE svg PUBLIC "-//W3C//DTD SVG 1.1//EN" "http://www.w3.org/Graphics/SVG/1.1/DTD/svg11.dtd" >
<svg xmlns="http://www.w3.org/2000/svg">
<metadata>
This is a custom SVG webfont generated by Font Squirrel.
Copyright   : 1993 Erik Spiekermann
</metadata>
<defs>
<font id="webfontA2Th408u" horiz-adv-x="1095" >
<font-face units-per-em="2048" ascent="1638" descent="-410" />
<missing-glyph horiz-adv-x="460" />
<glyph unicode=" "  horiz-adv-x="460" />
<glyph unicode="&#x09;" horiz-adv-x="460" />
<glyph unicode="&#xa0;" horiz-adv-x="460" />
<glyph unicode="!" horiz-adv-x="606" d="M127 143q0 72 49 121t121 49q70 0 119 -49t49 -121t-49 -121t-123 -49q-70 0 -118 50t-48 120zM129 1407l328 47l-58 -1001h-209z" />
<glyph unicode="&#x22;" horiz-adv-x="1064" d="M168 872v578h258v-578h-258zM643 872v578h258v-578h-258z" />
<glyph unicode="#" horiz-adv-x="1155" d="M61 412v184h197l35 258h-172v184h196l58 412h198l-57 -412h203l57 412h199l-57 -412h172v-184h-197l-35 -258h172v-184h-196l-58 -412h-198l57 412h-203l-57 -412h-199l57 412h-172zM457 596h202l35 258h-202z" />
<glyph unicode="$" horiz-adv-x="1097" d="M23 98l106 224q115 -59 201 -87t190 -28q250 0 250 194q0 137 -186 185l-158 43q-109 31 -175.5 72.5t-115.5 122.5t-49 202q0 176 116.5 295t311.5 141v148h176v-150q221 -23 381 -137l-135 -205q-98 59 -174 84t-158 25q-88 0 -143 -45t-55 -119q0 -55 33.5 -87 t123.5 -56l172 -48q360 -98 361 -423q0 -195 -135.5 -324t-362.5 -152v-166h-176v166q-213 19 -399 125z" />
<glyph unicode="%" horiz-adv-x="1716" d="M55 1087q0 160 94.5 258.5t251.5 98.5q166 0 263 -103q90 -90 90 -249q0 -168 -72 -239t-132.5 -94.5t-148.5 -23.5q-160 0 -253 95t-93 257zM279 1094q0 -115 27.5 -160t96.5 -45q66 0 94.5 47t28.5 160q0 125 -36.5 160.5t-90.5 35.5q-76 0 -102 -61q-18 -45 -18 -137z M385 0l745 1423h195l-745 -1423h-195zM954 332q0 160 94.5 258t251.5 98q166 0 263 -102q90 -90 90 -250q0 -168 -72 -238.5t-132 -94t-149 -23.5q-160 0 -253 95t-93 257zM1178 338q0 -115 27.5 -160t97.5 -45q66 0 94 47t28 160q0 125 -36.5 161t-90.5 36q-76 0 -102 -62 q-18 -45 -18 -137z" />
<glyph unicode="&#x26;" horiz-adv-x="1464" d="M100 358q0 236 256 355q-102 80 -134 147.5t-32 159.5q0 154 114 249t296 95t299 -90t117 -234q0 -57 -18.5 -107t-50.5 -86t-70.5 -64.5t-110.5 -65.5l-18 -10l237 -226q10 41 14.5 81t4.5 120v14h229v-12q0 -231 -66 -381l306 -303h-381l-86 86q-53 -45 -140.5 -80 t-251.5 -35q-246 0 -380 101.5t-134 285.5zM393 375q0 -203 230 -203q147 0 215 70l-334 321q-111 -67 -111 -188zM471 1040q0 -45 19.5 -77.5t87.5 -102.5l16 -16q135 70 135 192q0 59 -35 98.5t-92 39.5t-94 -37.5t-37 -96.5z" />
<glyph unicode="'" horiz-adv-x="606" d="M174 872v578h258v-578h-258z" />
<glyph unicode="(" horiz-adv-x="716" d="M123 659q0 219 43 399.5t176 324t303 216.5l72 -161q-45 -33 -64.5 -48.5t-87 -83t-101.5 -168t-46 -164t-12 -143.5l-5 -167q0 -145 19.5 -334t77 -289t98.5 -141t125 -86l-72 -160q-150 51 -262.5 159.5t-162.5 232.5t-72.5 225.5t-22.5 228.5z" />
<glyph unicode=")" horiz-adv-x="704" d="M-12 -182q45 33 59 44t87 82.5t106.5 171t46 166t12.5 142.5l6 172q0 119 -3 171t-15.5 157.5t-30.5 174t-60 141.5t-85 116t-123 86l71 160q152 -53 264.5 -162t162 -233t71 -226t21.5 -227q0 -31 2 -82t2 -72q0 -121 -8.5 -215t-43 -231.5t-167 -281.5t-306.5 -216z " />
<glyph unicode="*" horiz-adv-x="987" d="M53 1069l66 195l268 -97v283h209v-283l268 88l62 -194l-269 -86l170 -234l-170 -125l-172 236l-166 -225l-165 125l172 223z" />
<glyph unicode="+" horiz-adv-x="1294" d="M74 492v258h432v432h258v-432h432v-258h-432v-433h-258v433h-432z" />
<glyph unicode="," horiz-adv-x="546" d="M68 -182q66 14 106.5 47t40.5 69q0 33 -66.5 73t-66.5 136q0 74 51 125t127 51q90 0 147.5 -67.5t57.5 -177.5q0 -133 -80 -235.5t-209 -135.5z" />
<glyph unicode="-" horiz-adv-x="692" d="M102 442v238h492v-238h-492z" />
<glyph unicode="." horiz-adv-x="546" d="M94 150q0 74 52.5 126t125.5 52q76 0 129.5 -51.5t53.5 -126.5q0 -76 -53.5 -129.5t-127.5 -53.5t-127 53.5t-53 129.5z" />
<glyph unicode="/" horiz-adv-x="983" d="M131 -315l549 1880h180l-549 -1880h-180z" />
<glyph unicode="0" d="M63 676q0 324 134.5 517t353.5 193q223 0 354 -190t131 -514q0 -322 -135 -516.5t-352 -194.5q-223 0 -354.5 190.5t-131.5 514.5zM369 686q0 -289 47 -401.5t133 -112.5q98 0 140 130t42 372q0 291 -47 401.5t-133 110.5q-98 0 -140 -129t-42 -371z" />
<glyph unicode="1" d="M133 1069l424 297h186v-1143h179v-223h-666v223h219v828q-129 -80 -272 -129z" />
<glyph unicode="2" d="M57 1184q113 100 238 151t278 51q180 0 290 -107.5t110 -283.5q0 -104 -62.5 -222t-169 -234.5t-181.5 -186.5l-107 -98q-33 -29 -41 -35q51 6 120.5 8t94.5 2h409l-59 -229h-879v193l183 180q78 78 182 192.5t152.5 214t48.5 181.5q0 100 -46.5 142t-123.5 42 q-125 0 -289 -135z" />
<glyph unicode="3" d="M47 1214q47 37 88 60.5t146.5 67.5t248.5 44q193 0 318 -100t125 -256q0 -174 -135 -264l-33 -18q-14 -8 -43 -19q117 -39 180.5 -121t63.5 -190q0 -213 -201 -346t-520 -133h-43q-27 0 -55.5 2t-71.5 8l-66 190q74 -14 156 -14q213 0 346 88t133 227q0 113 -90 156 q-59 25 -191 25l-84 -3h-20v230l16 -2l125 -6q227 0 228 161q0 72 -43 113t-131 41q-94 0 -168 -31.5t-136 -83.5z" />
<glyph unicode="4" d="M45 256v186l395 928h283l-291 -692q-51 -121 -96 -191l43 5h231l49 -3l-2 37q0 70 2.5 123t12.5 150l22 239l215 49v-362l-2 -174l-4 -62l66 3h86v-236h-92l-64 4q4 -10 7 -30.5t3 -43.5v-235l-260 -33v293l4 51q-10 -2 -30.5 -4t-34.5 -2h-543z" />
<glyph unicode="5" d="M111 156q109 -29 192 -29q164 0 267.5 83t103.5 216q0 98 -61.5 157.5t-161.5 59.5q-115 0 -299 -57l65 776h698l-41 -234h-401l-29 -282q53 10 97 10q190 0 310 -110.5t120 -286.5q0 -227 -181.5 -373.5t-463.5 -146.5h-25q-51 0 -131 14z" />
<glyph unicode="6" d="M59 549q0 160 61.5 318.5t175.5 265t200 163t159.5 91t117.5 52t95 34.5l60 -197l-10 -4q-115 -39 -180.5 -74t-128 -84t-103.5 -106q-76 -94 -111 -205q84 68 219 67q184 0 311.5 -124.5t127.5 -307.5q0 -199 -138.5 -333t-341.5 -134q-223 0 -368.5 163t-145.5 415z M358 459q0 -131 53.5 -204t149.5 -73q92 0 147.5 67.5t55.5 184.5q0 98 -50 156.5t-136 58.5q-96 0 -213 -67l-3 -17z" />
<glyph unicode="7" d="M96 1114l62 248h880l-45 -240q-53 -76 -105 -160.5t-123 -221t-139.5 -305.5t-86.5 -269l-35 -184l-301 -76q43 174 71.5 269t89 261t141.5 322.5t122 224.5t94 139q-14 -4 -36.5 -6t-45.5 -2h-543z" />
<glyph unicode="8" d="M20 352q0 117 66 212t176 134q-37 10 -73.5 40t-83 95.5t-46.5 174.5q0 170 135.5 274t356.5 104q209 0 340 -98t131 -258q0 -106 -71.5 -188t-192.5 -115q131 -37 227 -131q90 -84 90 -221q0 -139 -91 -247t-216 -138.5t-242 -30.5q-195 0 -350.5 93t-155.5 300z M326 373q0 -98 62.5 -154.5t168.5 -56.5q92 0 150.5 49t58.5 127q0 96 -80 148.5t-229 103.5q-131 -76 -131 -217zM342 1032q0 -47 28.5 -84t96.5 -71l84 -39q37 18 56.5 31.5t45.5 35.5q63 61 64 133q0 147 -187 148q-86 0 -137 -41t-51 -113z" />
<glyph unicode="9" d="M55 907q0 209 139.5 344t356.5 135q229 0 359 -148t130 -411q0 -408 -214 -589t-330.5 -248.5t-225.5 -106.5l-149 168q164 43 329.5 176t211.5 262q-84 -39 -166 -38q-186 0 -313.5 130.5t-127.5 325.5zM352 915q0 -111 56.5 -177t150.5 -66q90 0 164 76q20 70 20 153 q0 127 -53 201t-145 74q-88 0 -140.5 -71t-52.5 -190z" />
<glyph unicode=":" horiz-adv-x="622" d="M133 139q0 76 51.5 129.5t126.5 53.5q74 0 125 -53.5t51 -129.5q0 -74 -51 -123t-127 -49q-74 0 -125 49t-51 123zM137 752q0 74 51.5 127t122.5 53q74 0 126 -52.5t52 -125.5q0 -74 -51 -125t-127 -51q-72 0 -123 51t-51 123z" />
<glyph unicode=";" horiz-adv-x="638" d="M115 -182q66 16 105.5 48t39.5 68q0 20 -9 31.5t-66.5 46.5t-57.5 127q0 78 51 129t129 51q90 0 147.5 -69.5t57.5 -177.5q0 -129 -82 -233.5t-209 -135.5zM133 754q0 76 50 128t122 52q74 0 127 -51.5t53 -126.5q0 -72 -50 -124t-124 -52q-72 0 -125 51t-53 123z" />
<glyph unicode="&#x3c;" horiz-adv-x="890" d="M115 612l493 637l215 -188l-344 -449l344 -452l-215 -185z" />
<glyph unicode="=" horiz-adv-x="1363" d="M121 295v258h1122v-258h-1122zM121 688v258h1122v-258h-1122z" />
<glyph unicode="&#x3e;" horiz-adv-x="890" d="M98 160l344 452l-344 449l215 188l494 -637l-494 -637z" />
<glyph unicode="?" horiz-adv-x="995" d="M80 1288q74 76 183.5 116t213.5 40q164 0 276.5 -93.5t112.5 -248.5q0 -125 -51 -190.5t-136 -120t-122 -125t-37 -142.5l4 -71h-235l-10 53q-8 39 -9 82q0 176 133.5 271t162 123t28.5 83q0 72 -46 106.5t-122 34.5t-117 -22.5t-104 -71.5zM266 143q0 72 49.5 121 t120.5 49q70 0 119 -49t49 -121t-49 -121t-123 -49q-70 0 -118 50t-48 120z" />
<glyph unicode="@" horiz-adv-x="1638" d="M66 723q0 324 228 544t554 220q289 0 507 -182.5t218 -491.5q0 -285 -150.5 -392.5t-304.5 -107.5q-80 0 -121 33t-41 78q-53 -51 -114.5 -81t-151.5 -30q-131 0 -213 96.5t-82 247.5q0 188 113 324.5t297 136.5q82 0 136 -27.5t85 -89.5l21 93h192l-76 -404 q-6 -31 -12 -68.5t-6 -66.5t11 -43t44 -14q72 0 124 76.5t52 228.5q0 240 -146.5 370t-387.5 130q-254 0 -411 -163t-157 -417q0 -264 168 -420t435 -156q113 0 212 33t175 92h225q-109 -150 -274.5 -229.5t-354.5 -79.5q-332 0 -563 215t-231 545zM616 680q0 -78 31 -130 t111 -52q117 0 166 72.5t49 174.5q0 86 -38 137.5t-114 51.5q-92 0 -148.5 -71.5t-56.5 -182.5z" />
<glyph unicode="A" horiz-adv-x="1187" d="M-20 0l466 1427h310l448 -1427h-307l-100 338h-418l-100 -338h-299zM449 575h278q-8 33 -33.5 119t-44.5 168l-57 252l-68 -274q-18 -72 -38.5 -144t-36.5 -121z" />
<glyph unicode="B" horiz-adv-x="1253" d="M172 0v1423h481q129 0 207 -22.5t169 -102t91 -231.5q0 -147 -63.5 -206.5t-90 -75t-73.5 -29.5q135 -39 209 -129t74 -230q0 -160 -97.5 -276.5t-275.5 -116.5l-182 -4h-449zM455 854h170q86 0 119.5 17.5t55 59.5t21.5 87q0 47 -21.5 87t-55 54.5t-55 17.5t-68.5 3 h-166v-326zM459 233h186q51 0 80 6.5t57.5 29t49 67.5t20.5 96q0 61 -28.5 110.5t-66.5 60.5t-57.5 13t-62.5 2h-178v-385z" />
<glyph unicode="C" horiz-adv-x="1122" d="M76 682q0 262 89 429t234.5 255t317.5 88q106 0 203.5 -30.5t156.5 -82.5l-129 -194q-109 80 -227 80q-72 0 -137.5 -33t-125 -121t-59.5 -336q0 -274 74 -407t260 -133q63 0 122.5 21.5t121.5 70.5l131 -180q-162 -133 -395 -134q-293 0 -465 196t-172 511z" />
<glyph unicode="D" horiz-adv-x="1302" d="M172 0v1423h287q43 0 107.5 -3t140.5 -5q186 -16 345.5 -175t159.5 -533q0 -301 -104 -442.5t-196.5 -199t-188.5 -57.5q-25 0 -102.5 -4t-102.5 -4h-346zM463 233h153q274 0 275 447q0 135 -15.5 233.5t-53.5 162t-92 93t-136 29.5h-131v-965z" />
<glyph unicode="E" horiz-adv-x="1097" d="M172 0v1423h811l-37 -233h-487v-330h407v-233h-403v-381h538v-246h-829z" />
<glyph unicode="F" horiz-adv-x="978" d="M172 0v1423h772l-33 -231h-452v-326h362v-233h-362v-633h-287z" />
<glyph unicode="G" horiz-adv-x="1318" d="M78 698q0 449 224 598.5t419 149.5q264 0 453 -164l-152 -178q-135 111 -297 110q-129 0 -200.5 -68.5t-98.5 -180t-27 -281.5q0 -299 95.5 -392t234.5 -93q94 0 162 34v324h-217l-37 234h551v-680q-215 -127 -473 -127q-317 0 -440 158.5t-160 276t-37 279.5z" />
<glyph unicode="H" horiz-adv-x="1329" d="M172 0v1423h285v-553h409v553h291v-1423h-291v635h-409v-635h-285z" />
<glyph unicode="I" horiz-adv-x="643" d="M172 0v1423h299v-1423h-299z" />
<glyph unicode="J" horiz-adv-x="626" d="M-29 -188q55 35 101.5 81t64 86.5t23.5 96t6 170.5v1177h291v-1147q0 -133 -3 -179t-24.5 -132t-117 -172t-208.5 -129z" />
<glyph unicode="K" horiz-adv-x="1259" d="M172 0v1423h293v-649l405 649h353l-455 -659l506 -764h-377l-432 743v-743h-293z" />
<glyph unicode="L" horiz-adv-x="989" d="M172 0v1423h293v-1185h510l-51 -238h-752z" />
<glyph unicode="M" horiz-adv-x="1730" d="M129 0l133 1423h367l186 -712l27.5 -112t21.5 -114q18 106 51 232l193 706h365l126 -1423h-280l-53 760q0 59 -5.5 145t-5.5 92q-23 -109 -53 -219l-225 -778h-244l-203 748q-20 76 -37.5 155.5t-19.5 95.5q0 -57 -5 -147t-5 -109l-49 -743h-285z" />
<glyph unicode="N" horiz-adv-x="1333" d="M172 0v1423h317l273 -569q53 -113 92 -213t64 -190q-6 66 -14.5 198.5t-8.5 192.5l-6 581h272v-1423h-299l-244 545q-92 205 -135 311.5t-57 155.5q6 -66 10 -195t4 -209l9 -608h-277z" />
<glyph unicode="O" horiz-adv-x="1368" d="M78 707q0 229 84 405t225 253t307 77q285 0 449 -192.5t164 -530.5q0 -246 -81 -419t-218.5 -248t-302.5 -75q-160 0 -270.5 47.5t-233.5 206.5t-123 476zM397 707q0 -371 97.5 -440.5t199.5 -69.5q147 0 215 121.5t68 392.5q0 209 -28.5 303t-92 150.5t-166.5 56.5 q-74 0 -131 -33t-90 -92q-72 -135 -72 -389z" />
<glyph unicode="P" horiz-adv-x="1181" d="M172 0v1423h375q176 0 249.5 -14t158.5 -62.5t138.5 -143.5t53.5 -218q0 -143 -63.5 -250.5t-148.5 -147.5t-145.5 -51.5t-173.5 -11.5h-157v-524h-287zM459 758h149q88 0 124 14t69 64.5t33 142.5q0 98 -51.5 155.5t-141.5 57.5h-182v-434z" />
<glyph unicode="Q" horiz-adv-x="1363" d="M76 707q0 229 84 406t225 253t307 76q285 0 449 -192.5t164 -530.5q0 -227 -75 -397t-206 -256q31 -10 73 -38t54 -34q45 -27 88 -43.5t88 -16.5q51 0 81 3.5t46 7.5l-76 -187q-18 -8 -44.5 -16t-82.5 -8q-72 0 -134 28.5t-127.5 72.5t-137.5 81t-152 61 q-307 0 -465.5 206.5t-158.5 523.5zM395 707q0 -371 97.5 -440.5t199.5 -69.5q147 0 215 121.5t68 392.5q0 209 -28.5 303t-92 150.5t-166.5 56.5q-74 0 -131 -33t-90 -92q-72 -135 -72 -389z" />
<glyph unicode="R" horiz-adv-x="1243" d="M172 0v1423h530q188 0 303 -114.5t115 -302.5q0 -162 -93 -278t-224 -116q37 -29 67.5 -67.5t110.5 -168.5l133 -222l90 -154h-338l-133 233q-113 203 -155.5 267.5t-72.5 78t-52 15.5v-594h-281zM453 809h96q92 0 138 10t89 49t43 131q0 137 -78.5 166t-185.5 29h-102 v-385z" />
<glyph unicode="S" horiz-adv-x="1196" d="M37 98l106 224q115 -59 201 -87t191 -28q250 0 249 194q0 133 -186 185l-158 43q-109 31 -175 72.5t-115.5 122.5t-49.5 202q0 195 141.5 317.5t368.5 122.5q133 0 256 -36.5t219 -106.5l-135 -205q-98 59 -174 84t-158 25q-88 0 -143 -45t-55 -119q0 -55 33.5 -87 t124.5 -56l172 -48q360 -98 360 -423q0 -217 -159.5 -348.5t-428.5 -131.5q-125 0 -249.5 33t-235.5 96z" />
<glyph unicode="T" horiz-adv-x="1060" d="M33 1186v237h1026l-47 -237h-340v-1186h-291v1186h-348z" />
<glyph unicode="U" horiz-adv-x="1351" d="M164 432v991h293v-936q0 -123 37.5 -195.5t181.5 -72.5q94 0 150.5 43t63.5 98.5t7 151.5v911h291v-958q0 -57 -1 -109.5t-29 -135.5t-147.5 -165t-328.5 -82q-336 0 -412.5 122t-91 181.5t-14.5 155.5z" />
<glyph unicode="V" horiz-adv-x="1208" d="M-18 1423h313l235 -741l35 -123q18 -66 31 -125q14 66 32.5 130.5t49.5 154.5l242 704h301l-496 -1433h-260z" />
<glyph unicode="W" horiz-adv-x="1753" d="M23 1423h303l123 -561q35 -162 50 -275l25 -194q10 90 27.5 206t46.5 249l127 575h313l131 -637q16 -80 33 -184t29 -192q4 53 28.5 204.5t49.5 268.5l116 540h301l-344 -1435h-313l-127 579q-20 86 -38.5 203t-29.5 211l-23 -170q-13 -94 -44 -240l-119 -583h-326z" />
<glyph unicode="X" horiz-adv-x="1185" d="M-10 0l446 762l-385 661h350l193 -383l194 383h342l-370 -643l442 -780h-346l-256 502l-254 -502h-356z" />
<glyph unicode="Y" horiz-adv-x="1130" d="M-33 1423h344l183 -389q25 -49 43 -97t28 -85l76 178l184 393h338l-454 -837v-586h-299v586z" />
<glyph unicode="Z" horiz-adv-x="1075" d="M70 0v201l524 866q18 31 48 72t40 57q-37 -6 -76 -8t-69 -2h-439l64 237h852v-206l-529 -891q-25 -41 -40 -61.5t-33 -39.5q31 4 67.5 6t73.5 2h479l-74 -233h-888z" />
<glyph unicode="[" horiz-adv-x="581" d="M35 -319v1818h430v-184h-184v-1450h184v-184h-430z" />
<glyph unicode="\" horiz-adv-x="833" d="M-18 1487l233 72l612 -1596l-231 -72z" />
<glyph unicode="]" horiz-adv-x="606" d="M115 -135h184v1450h-184v184h430v-1818h-430v184z" />
<glyph unicode="^" horiz-adv-x="1363" d="M166 702l369 748h299l368 -748h-291l-227 488l-229 -488h-289z" />
<glyph unicode="_" horiz-adv-x="1024" d="M0 -154h1024v-102h-1024v102z" />
<glyph unicode="`" horiz-adv-x="692" d="M61 1346l119 213l424 -267l-84 -151z" />
<glyph unicode="a" horiz-adv-x="1073" d="M4 0l406 1104h278l381 -1104h-289l-84 233h-325l-78 -233h-289zM436 436h199l-51 205t-45 203q-16 -82 -46 -197z" />
<glyph unicode="b" horiz-adv-x="1132" d="M172 0v1100h483q160 0 251 -74t91 -203q0 -86 -39.5 -146.5t-117.5 -92.5q203 -82 202 -273q0 -143 -101 -227t-320 -84h-449zM442 676h121q86 0 120 24.5t34 77.5q0 47 -30 77t-112 30h-133v-209zM449 211h129q156 0 155 131q0 119 -155 119h-129v-250z" />
<glyph unicode="c" horiz-adv-x="970" d="M68 520q0 217 79.5 347t201.5 193.5t274 63.5q90 0 175 -24.5t134 -61.5l-123 -176q-90 55 -180 56q-49 0 -98.5 -18.5t-84 -53.5t-53 -102.5t-18.5 -161.5q0 -229 45 -290t94 -85.5t123 -24.5q53 0 100 15.5t99 50.5l122 -158q-139 -109 -337 -108q-129 0 -220.5 26.5 t-212 138t-120.5 373.5z" />
<glyph unicode="d" horiz-adv-x="1171" d="M172 0v1100h242q59 0 122.5 -1t186.5 -15.5t235.5 -153.5t112.5 -387q0 -231 -117.5 -370.5t-310.5 -166.5q-25 -4 -85 -5t-101 -1h-285zM451 213h131q82 0 133 69.5t51 235.5q0 193 -47 286t-168 93h-100v-684z" />
<glyph unicode="e" horiz-adv-x="1005" d="M172 0v1100h698l-39 -213h-385v-205h322v-215h-319v-244h434v-223h-711z" />
<glyph unicode="f" horiz-adv-x="878" d="M172 0v1100h659l-32 -209h-355v-215h281v-215h-281v-461h-272z" />
<glyph unicode="g" horiz-adv-x="1177" d="M78 539q0 264 151.5 421.5t409.5 157.5q231 0 401 -129l-147 -162q-119 86 -252 86q-143 0 -199.5 -88t-56.5 -301q0 -193 61.5 -269.5t190.5 -76.5q35 0 58.5 5t60.5 20v213h-160l-39 209h490v-533q-205 -102 -422 -102q-279 0 -382.5 125t-134 216t-30.5 208z" />
<glyph unicode="h" horiz-adv-x="1193" d="M172 0v1100h277v-412h294v412h279v-1100h-279v469h-294v-469h-277z" />
<glyph unicode="i" horiz-adv-x="628" d="M172 0v1100h285v-1100h-285z" />
<glyph unicode="j" horiz-adv-x="626" d="M10 -143q47 31 88 71.5t56.5 72.5t19.5 67.5t4 128.5v903h277v-875q0 -53 -1 -105t-12 -102q-23 -104 -110.5 -180t-192.5 -112z" />
<glyph unicode="k" horiz-adv-x="1136" d="M172 0v1100h281v-494l307 494h338l-353 -508l412 -592h-364l-340 569v-569h-281z" />
<glyph unicode="l" horiz-adv-x="876" d="M172 0v1100h279v-879h421l-57 -221h-643z" />
<glyph unicode="m" horiz-adv-x="1523" d="M117 0l119 1100h346l139 -512q29 -102 45 -197q8 47 20.5 102.5t26.5 104.5l145 502h340l113 -1100h-268l-37 549l-12 199q-8 -37 -25 -92l-31 -101l-164 -555h-233l-149 537q-27 92 -54 233l-12 -233l-33 -537h-276z" />
<glyph unicode="n" horiz-adv-x="1193" d="M172 0v1100h299l213 -424q27 -53 52.5 -118.5t49.5 -135.5q0 45 -7 139t-7 135l-4 404h254v-1100h-281l-204 451q-78 172 -121 280l8 -311l6 -420h-258z" />
<glyph unicode="o" horiz-adv-x="1239" d="M86 543q0 268 142.5 418.5t394.5 150.5q242 0 386 -141.5t144 -409.5q0 -266 -133 -421.5t-387 -155.5q-258 0 -402.5 152.5t-144.5 406.5zM391 535q0 -201 53.5 -280t173.5 -79q113 0 167.5 87t54.5 298q0 180 -48.5 268.5t-173.5 88.5q-119 0 -173 -95t-54 -288z" />
<glyph unicode="p" horiz-adv-x="1089" d="M172 0v1100h311q160 0 227.5 -12.5t141.5 -46t122 -112.5t48 -177q0 -121 -64.5 -217.5t-175.5 -124.5q-55 -14 -101 -18.5t-124 -4.5h-111v-387h-274zM446 598h123q88 0 123 33t35 121q0 66 -37 104.5t-119 38.5h-125v-297z" />
<glyph unicode="q" horiz-adv-x="1257" d="M76 543q0 260 148.5 414.5t387.5 154.5q233 0 382 -144.5t149 -406.5q0 -162 -59.5 -293t-161.5 -202q20 -10 40.5 -23.5t66.5 -40.5t120 -27h47h43q18 4 25 5l-62 -160q-25 -14 -48.5 -19.5t-66.5 -5.5q-68 0 -115.5 20.5t-90.5 48t-124 65.5t-132 55 q-250 0 -399.5 147.5t-149.5 411.5zM381 535q0 -203 50 -281t175 -78q119 0 170 95.5t51 289.5q0 182 -48 269.5t-171 87.5t-175 -100.5t-52 -282.5z" />
<glyph unicode="r" horiz-adv-x="1132" d="M172 0v1100h426q102 0 182 -20.5t131.5 -72t75 -110.5t23.5 -131q0 -113 -66.5 -199t-157.5 -106q47 -53 159 -228.5t145 -232.5h-326l-68 102q-23 35 -89 149t-95 152.5t-53 38.5h-19v-442h-268zM438 639h90q111 0 154 28.5t43 98.5t-42 100.5t-151 30.5h-94v-258z" />
<glyph unicode="s" horiz-adv-x="1097" d="M66 68l90 208q98 -41 170.5 -61t156.5 -20q195 0 195 108q0 90 -143 123l-140 33q-174 41 -229 137t-55 188q0 154 122.5 252.5t323.5 98.5q113 0 229.5 -31t192.5 -82l-129 -191q-156 82 -287 82q-66 0 -106.5 -26.5t-40.5 -73.5q0 -39 24.5 -60.5t89.5 -37.5l148 -35 q147 -35 229 -115t82 -205q0 -176 -141 -280.5t-379 -104.5q-109 0 -204 22t-199 71z" />
<glyph unicode="t" horiz-adv-x="952" d="M70 883v217h893l-54 -217h-274v-883h-281v883h-284z" />
<glyph unicode="u" horiz-adv-x="1218" d="M164 352v748h278v-717q0 -63 3.5 -85t33 -61.5t129.5 -39.5q41 0 73 12t54.5 31.5t31.5 50.5t9 115v694h279v-731q0 -115 -20.5 -171.5t-71.5 -105.5t-137.5 -80.5t-207.5 -31.5q-287 0 -358.5 92t-83.5 146t-12 134z" />
<glyph unicode="v" horiz-adv-x="1120" d="M14 1100h299l172 -482l38 -113t32 -114q14 55 30.5 112.5t41.5 119.5l190 477h287l-432 -1106h-236z" />
<glyph unicode="w" horiz-adv-x="1595" d="M53 1100h289l88 -359q68 -270 68 -397q6 80 21.5 178.5t43.5 210.5l92 367h293l96 -436q12 -57 25 -144l23 -158q0 31 24.5 169.5t46.5 228.5l84 340h289l-303 -1108h-285l-96 387q-59 233 -59 348q-20 -129 -34 -206t-28 -142l-84 -387h-297z" />
<glyph unicode="x" horiz-adv-x="1118" d="M27 0l389 588l-330 512h338l141 -260l148 260h331l-319 -496l377 -604h-336l-193 350l-198 -350h-348z" />
<glyph unicode="y" horiz-adv-x="1056" d="M6 1100h328l135 -271l68 -135q12 35 24 63.5t37 80.5l131 262h326l-389 -643v-457h-285v455z" />
<glyph unicode="z" horiz-adv-x="1001" d="M90 0v184l426 629l59 78l-114 -2h-348l65 213h731v-182l-424 -635l-27 -42q-13 -19 -28 -34l113 2h387l-80 -211h-760z" />
<glyph unicode="{" horiz-adv-x="798" d="M53 473v234q104 0 162.5 37.5t58.5 103.5v354q0 152 72 224.5t193 72.5h215v-233h-101q-82 0 -107.5 -38t-25.5 -93v-330q0 -125 -56 -165t-149 -48q88 -4 146.5 -46t58.5 -169v-332q0 -59 24.5 -95t108.5 -36h101v-233h-215q-117 0 -191 73.5t-74 225.5v352 q0 63 -59.5 102t-161.5 39z" />
<glyph unicode="|" horiz-adv-x="454" d="M98 -37v1585h258v-1585h-258z" />
<glyph unicode="}" horiz-adv-x="802" d="M59 -86h101q82 0 107.5 38t25.5 93v330q0 125 56.5 165t148.5 48q-88 4 -146.5 46t-58.5 169v332q0 59 -24.5 95t-108.5 36h-101v233h222q113 0 185.5 -74.5t72.5 -224.5v-352q0 -84 71.5 -112.5t149.5 -28.5v-234q-106 0 -163.5 -38t-57.5 -103v-355q0 -152 -72 -224 t-193 -72h-215v233z" />
<glyph unicode="~" horiz-adv-x="1363" d="M209 643q41 80 100.5 128t155.5 48q51 0 100 -15.5t116 -44.5l126 -54q59 -25 94 -25q53 0 90 35t90 104l74 -221q-41 -80 -100.5 -128t-155.5 -48q-51 0 -100 15.5t-117 44.5l-126 55q-58 25 -93 24q-53 0 -90 -34.5t-90 -104.5z" />
<glyph unicode="&#xa1;" horiz-adv-x="561" d="M106 1276q0 72 49.5 121t123.5 49q70 0 117.5 -50t47.5 -120q0 -72 -49 -121t-121 -49q-70 0 -119 49t-49 121zM115 -35l57 1002h209l61 -955z" />
<glyph unicode="&#xa2;" horiz-adv-x="925" d="M88 516q0 172 58.5 295t139.5 178t165 76v199h192v-197q31 0 60.5 -9t62.5 -26q43 -23 102 -74l-133 -180q-88 82 -166 82q-92 0 -135 -84t-43 -268q0 -195 50.5 -259.5t125.5 -64.5q90 0 189 86l16 15l125 -166q-27 -27 -48.5 -44.5t-70.5 -47t-135 -43.5v-211h-192v211 q-170 29 -266.5 168t-96.5 364z" />
<glyph unicode="&#xa3;" horiz-adv-x="1245" d="M117 0v233h196v406h-196v209h196v145q0 195 135.5 338.5t372.5 143.5q125 0 235.5 -33t192.5 -107l-205 -219q-43 43 -91 65.5t-95 22.5q-125 0 -181 -73.5t-56 -182.5v-100h319v-209h-319v-406h518v-233h-1022z" />
<glyph unicode="&#xa4;" horiz-adv-x="915" d="M63 905l242 142l54 -92q13 -22 28 -52l62 4q49 0 77 -6l27 55l49 91l234 -142l-91 -139q55 -78 56 -211q0 -61 -14.5 -109.5t-45.5 -95.5l97 -145l-242 -142l-54 92q-13 22 -28 52q-14 -4 -33 -4h-28l-78 6l-27 -55l-49 -91l-233 142l90 139q-27 39 -40.5 92t-13.5 115 q0 123 58 209zM326 557q0 -51 6 -94t27.5 -77t91.5 -34q66 0 94 47t28 160q0 123 -36.5 160t-90.5 37q-76 0 -102 -62q-18 -45 -18 -137z" />
<glyph unicode="&#xa5;" horiz-adv-x="1159" d="M-27 1423h344l183 -389q25 -49 43 -97t28 -85l76 178l184 393h338l-313 -573h211v-211h-324l-28 -53v-103h352v-211h-352v-272h-299v272h-346v211h346v103l-29 53h-317v211h206z" />
<glyph unicode="&#xa7;" horiz-adv-x="1257" d="M82 -51l262 129q16 -68 82 -104.5t141 -36.5q66 0 115 24.5t49 81.5q0 74 -202.5 160t-308 156.5t-105.5 240.5q0 98 46 174t132 129q-129 86 -129 236q0 168 134 258t306 90q147 0 274.5 -52.5t184.5 -170.5l-258 -148q-20 57 -72.5 91t-116.5 34q-51 0 -92 -28.5 t-41 -79.5q0 -78 217.5 -172.5t319.5 -160t102 -225.5q0 -84 -48 -155.5t-124 -110.5q55 -43 84 -105.5t29 -137.5q0 -184 -155.5 -279.5t-348.5 -95.5q-166 0 -288.5 59.5t-188.5 198.5zM397 657q0 -63 42 -97t122 -71l209 -96q70 41 70 125q0 53 -36 86t-97 62l-238 112 q-72 -41 -72 -121z" />
<glyph unicode="&#xa8;" horiz-adv-x="1021" d="M143 1300q0 63 47.5 110.5t112.5 47.5q66 0 110 -46t44 -112t-46 -111.5t-112 -45.5q-63 0 -109.5 45.5t-46.5 111.5zM575 1300q0 63 47.5 110.5t112.5 47.5q66 0 110 -46t44 -112t-46 -111.5t-112 -45.5t-111 44.5t-45 112.5z" />
<glyph unicode="&#xa9;" horiz-adv-x="1638" d="M57 725q0 315 223.5 538.5t538.5 223.5t538.5 -223.5t223.5 -538.5t-223 -538.5t-539 -223.5q-315 0 -538.5 223.5t-223.5 538.5zM266 725q0 -238 162 -408t391 -170t391 169t162 409q0 238 -161.5 408t-391.5 170q-229 0 -391 -169t-162 -409zM459 709q0 186 102.5 305 t272.5 119q135 0 229 -78l-94 -135q-78 51 -133 51q-154 0 -154 -234q0 -141 37 -201.5t125 -60.5q76 0 137 57l100 -126q-117 -88 -250 -89q-168 0 -270 107t-102 285z" />
<glyph unicode="&#xaa;" horiz-adv-x="827" d="M45 473v160h748v-160h-748zM70 993q0 270 379 271h45v30q0 68 -18.5 92.5t-74.5 24.5q-98 0 -227 -88l-88 147q25 16 52.5 29.5t76.5 34.5q109 47 215 47q205 0 233.5 -82t30.5 -104.5t2 -91.5l-4 -265v-14q0 -61 14.5 -94t59.5 -66l-98 -127q-45 18 -76 42t-45 55 l-49 -43q-59 -43 -158 -43q-131 0 -200.5 63t-69.5 182zM289 1001q0 -47 25.5 -74.5t66.5 -27.5q57 0 106 53l5 170h-11q-109 0 -150.5 -25.5t-41.5 -95.5z" />
<glyph unicode="&#xab;" horiz-adv-x="1101" d="M92 510l326 479l186 -125l-237 -354l237 -354l-186 -125zM588 510l325 479l187 -125l-238 -354l238 -354l-187 -125z" />
<glyph unicode="&#xac;" horiz-adv-x="1196" d="M115 406v223h903v-510h-252v287h-651z" />
<glyph unicode="&#xad;" horiz-adv-x="692" d="M102 442v238h492v-238h-492z" />
<glyph unicode="&#xae;" horiz-adv-x="1638" d="M57 725q0 315 223.5 538.5t538.5 223.5t538.5 -223.5t223.5 -538.5t-223 -538.5t-539 -223.5q-315 0 -538.5 223.5t-223.5 538.5zM266 725q0 -238 162 -408t391 -170t391 169t162 409q0 238 -161.5 408t-391.5 170q-229 0 -391 -169t-162 -409zM537 350v783h313 q115 0 183.5 -64.5t68.5 -175.5q0 -86 -51.5 -145.5t-128.5 -67.5q31 -12 50 -34.5t54 -72.5l137 -223h-235l-82 133q-49 88 -75 127t-36 49v-309h-198zM735 813h53q57 0 80 18.5t23 59.5q0 80 -100 80h-56v-158z" />
<glyph unicode="&#xaf;" horiz-adv-x="460" d="M-321 123v160h643v-160h-643z" />
<glyph unicode="&#xb0;" horiz-adv-x="808" d="M49 1087q0 160 94.5 258.5t251.5 98.5q160 0 262 -103q90 -90 91 -249q0 -168 -72 -239t-132.5 -94.5t-148.5 -23.5q-160 0 -253 95t-93 257zM272 1094q0 -57 4.5 -95t28 -74t92.5 -36q66 0 94.5 47t28.5 160q0 125 -37 160.5t-90 35.5q-76 0 -102 -61q-19 -45 -19 -137z " />
<glyph unicode="&#xb1;" horiz-adv-x="972" d="M49 580v231h307v281h252v-281h307v-231h-307v-293h-252v293h-307zM53 0v231h858v-231h-858z" />
<glyph unicode="&#xb2;" d="M57 1184q113 100 238 151t278 51q180 0 290 -107.5t110 -283.5q0 -104 -62.5 -222t-169 -234.5t-181.5 -186.5l-107 -98q-33 -29 -41 -35q51 6 120.5 8t94.5 2h409l-59 -229h-879v193l183 180q78 78 182 192.5t152.5 214t48.5 181.5q0 100 -46.5 142t-123.5 42 q-125 0 -289 -135z" />
<glyph unicode="&#xb3;" d="M47 1214q47 37 88 60.5t146.5 67.5t248.5 44q193 0 318 -100t125 -256q0 -174 -135 -264l-33 -18q-14 -8 -43 -19q117 -39 180.5 -121t63.5 -190q0 -213 -201 -346t-520 -133h-43q-27 0 -55.5 2t-71.5 8l-66 190q74 -14 156 -14q213 0 346 88t133 227q0 113 -90 156 q-59 25 -191 25l-84 -3h-20v230l16 -2l125 -6q227 0 228 161q0 72 -43 113t-131 41q-94 0 -168 -31.5t-136 -83.5z" />
<glyph unicode="&#xb4;" horiz-adv-x="692" d="M80 1292l424 267l119 -213l-459 -205z" />
<glyph unicode="&#xb5;" horiz-adv-x="1099" d="M137 -451v1475l271 51v-674q0 -66 6 -107.5t23.5 -77.5t88.5 -36q51 0 102.5 31t67.5 70v737l262 55v-801q0 -51 16.5 -102t47.5 -88l-195 -111q-55 39 -82 103q-104 -100 -276 -101q-39 0 -72 29l4 -63v-320z" />
<glyph unicode="&#xb6;" horiz-adv-x="1261" d="M129 1065q0 197 126 291t351 94h551v-1708h-184v1561h-219v-1561h-185v950q-199 0 -319.5 104.5t-120.5 268.5z" />
<glyph unicode="&#xb8;" horiz-adv-x="878" d="M279 -358l61 129q45 -20 63.5 -25.5t42.5 -5.5q20 0 36 11t16 26q0 41 -52 41q-12 0 -28.5 -5.5t-26.5 -7.5l-26 41l49 179l147 -13l-29 -78q76 -8 112 -52t36 -109q0 -78 -59.5 -129.5t-163.5 -51.5q-41 0 -93 16t-85 34z" />
<glyph unicode="&#xb9;" d="M133 1069l424 297h186v-1143h179v-223h-666v223h219v828q-129 -80 -272 -129z" />
<glyph unicode="&#xba;" horiz-adv-x="851" d="M53 473v160h748v-160h-748zM68 1153q0 186 96 299t256 113q170 0 268 -117q45 -55 67.5 -124t22.5 -165q0 -98 -24.5 -171t-71.5 -127t-111.5 -83.5t-150.5 -29.5q-160 0 -256 110.5t-96 294.5zM301 1159q0 -59 7 -108.5t19.5 -78t41 -47t57.5 -18.5q63 0 92 60.5 t29 193.5q0 158 -36 199t-87 41q-70 0 -100 -76q-23 -57 -23 -166z" />
<glyph unicode="&#xbb;" horiz-adv-x="1101" d="M88 156l238 354l-238 354l186 125l326 -479l-326 -479zM584 156l237 354l-237 354l186 125l326 -479l-326 -479z" />
<glyph unicode="&#xbf;" horiz-adv-x="917" d="M66 317q0 125 51 190.5t136 120t122 125t37 142.5l-4 72h235l10 -54q8 -39 9 -82q0 -176 -133.5 -271t-162 -122.5t-28.5 -83.5q0 -72 46 -106.5t122 -34.5t117 22.5t104 71.5l125 -176q-74 -76 -183.5 -116t-213.5 -40q-164 0 -276.5 93t-112.5 249zM328 1276 q0 72 49 121t123 49q70 0 118 -50t48 -120q0 -72 -49.5 -121t-120.5 -49q-70 0 -119 49t-49 121z" />
<glyph unicode="&#xc0;" horiz-adv-x="1187" d="M-20 0l466 1427h310l448 -1427h-307l-100 338h-418l-100 -338h-299zM449 575h278q-8 33 -33.5 119t-44.5 168l-57 252l-68 -274q-18 -72 -38.5 -144t-36.5 -121zM235 1674l119 213l424 -267l-84 -151z" />
<glyph unicode="&#xc1;" horiz-adv-x="1187" d="M-10 0l467 1427h309l448 -1427h-307l-100 338h-418l-100 -338h-299zM393 1620l424 266l119 -213l-459 -205zM459 575h278q-8 33 -33.5 119t-44.5 168l-57 252l-67 -274q-18 -72 -39 -144t-37 -121z" />
<glyph unicode="&#xc2;" horiz-adv-x="1187" d="M-20 0l466 1427h310l448 -1427h-307l-100 338h-418l-100 -338h-299zM449 575h278q-8 33 -33.5 119t-44.5 168l-57 252l-68 -274q-18 -72 -38.5 -144t-36.5 -121zM213 1608l369 276l376 -276l-92 -150l-284 156l-277 -156z" />
<glyph unicode="&#xc3;" horiz-adv-x="1187" d="M-20 0l466 1427h310l448 -1427h-307l-100 338h-418l-100 -338h-299zM449 575h278q-8 33 -33.5 119t-44.5 168l-57 252l-68 -274q-18 -72 -38.5 -144t-36.5 -121zM236 1671q55 68 112.5 102t141.5 34q61 0 135 -41t133 -41q47 0 69.5 14t65.5 59l88 -151 q-55 -68 -112.5 -101.5t-141.5 -33.5q-61 0 -135 41t-133 41q-47 0 -69.5 -14.5t-65.5 -59.5z" />
<glyph unicode="&#xc4;" horiz-adv-x="1187" d="M-20 0l466 1427h310l448 -1427h-307l-100 338h-418l-100 -338h-299zM449 575h278q-8 33 -33.5 119t-44.5 168l-57 252l-68 -274q-18 -72 -38.5 -144t-36.5 -121zM229 1628q0 63 47.5 110.5t112.5 47.5q66 0 110 -46t44 -112t-46 -111.5t-112 -45.5q-63 0 -109.5 45.5 t-46.5 111.5zM661 1628q0 63 47.5 110.5t112.5 47.5q66 0 110 -46t44 -112t-46 -111.5t-112 -45.5t-111 44.5t-45 112.5z" />
<glyph unicode="&#xc5;" horiz-adv-x="1187" d="M-20 0l466 1427h310l448 -1427h-307l-100 338h-418l-100 -338h-299zM449 575h278q-8 33 -33.5 119t-44.5 168l-57 252l-68 -274q-18 -72 -38.5 -144t-36.5 -121zM385 1678q0 90 63.5 153.5t154.5 63.5q86 0 149.5 -63.5t63.5 -153.5t-63.5 -153.5t-154.5 -63.5 q-86 0 -149.5 63.5t-63.5 153.5zM496 1678q0 -43 30.5 -74t71.5 -31q43 0 74 31t31 74t-28.5 73.5t-71.5 30.5t-75 -29.5t-32 -74.5z" />
<glyph unicode="&#xc6;" horiz-adv-x="1765" d="M-61 0l847 1423h865l-37 -233h-488v-330h408v-233h-404v-381h547v-246h-837v338h-391l-191 -338h-319zM582 575h258v330q0 63 2 100t8 68l-151 -282z" />
<glyph unicode="&#xc7;" horiz-adv-x="1122" d="M76 682q0 262 89 429t234.5 255t317.5 88q106 0 203.5 -30.5t156.5 -82.5l-129 -194q-109 80 -227 80q-72 0 -137.5 -33t-125 -121t-59.5 -336q0 -274 74 -407t260 -133q57 0 119.5 20.5t124.5 71.5l131 -180q-162 -133 -395 -134h-35l-14 -41q76 -8 111.5 -52t35.5 -109 q0 -78 -59.5 -129.5t-163.5 -51.5q-41 0 -93.5 15.5t-84.5 34.5l61 129q45 -20 63.5 -25.5t43.5 -5.5q20 0 35.5 11t15.5 26q0 41 -51 41q-10 0 -29 -6.5t-27 -6.5l-26 41l41 150q-88 23 -156 62.5t-133 113.5q-172 195 -172 510z" />
<glyph unicode="&#xc8;" horiz-adv-x="1097" d="M172 0v1423h811l-37 -233h-487v-330h407v-233h-403v-381h538v-246h-829zM256 1674l119 213l424 -267l-84 -151z" />
<glyph unicode="&#xc9;" horiz-adv-x="1097" d="M172 0v1423h811l-37 -233h-487v-330h407v-233h-403v-381h538v-246h-829zM285 1620l424 267l119 -213l-459 -205z" />
<glyph unicode="&#xca;" horiz-adv-x="1097" d="M172 0v1423h811l-37 -233h-487v-330h407v-233h-403v-381h538v-246h-829zM195 1608l369 276l376 -276l-92 -150l-284 156l-277 -156z" />
<glyph unicode="&#xcb;" horiz-adv-x="1097" d="M172 0v1423h811l-37 -233h-487v-330h407v-233h-403v-381h538v-246h-829zM204 1628q0 63 47.5 110.5t112.5 47.5q66 0 110 -46t44 -112t-46 -111.5t-112 -45.5q-63 0 -109.5 45.5t-46.5 111.5zM636 1628q0 63 47.5 110.5t112.5 47.5q66 0 110 -46t44 -112t-46 -111.5 t-112 -45.5t-111 44.5t-45 112.5z" />
<glyph unicode="&#xcc;" horiz-adv-x="643" d="M172 0v1423h299v-1423h-299zM38 1674l119 213l424 -267l-84 -151z" />
<glyph unicode="&#xcd;" horiz-adv-x="643" d="M172 0v1423h299v-1423h-299zM88 1620l424 267l119 -213l-459 -205z" />
<glyph unicode="&#xce;" horiz-adv-x="643" d="M172 0v1423h299v-1423h-299zM-51 1608l369 276l376 -276l-92 -150l-284 156l-277 -156z" />
<glyph unicode="&#xcf;" horiz-adv-x="643" d="M172 0v1423h299v-1423h-299zM-41 1628q0 63 47.5 110.5t112.5 47.5q66 0 110 -46t44 -112t-46 -111.5t-112 -45.5q-63 0 -109.5 45.5t-46.5 111.5zM391 1628q0 63 47.5 110.5t112.5 47.5q66 0 110 -46t44 -112t-46 -111.5t-112 -45.5t-111 44.5t-45 112.5z" />
<glyph unicode="&#xd1;" horiz-adv-x="1333" d="M172 0v1423h317l273 -569q53 -113 92 -213t64 -190q-6 66 -14.5 198.5t-8.5 192.5l-6 581h272v-1423h-299l-244 545q-92 205 -135 311.5t-57 155.5q6 -66 10 -195t4 -209l9 -608h-277zM301 1671q55 68 112.5 102t141.5 34q61 0 135 -41t133 -41q47 0 69.5 14t65.5 59 l88 -151q-55 -68 -112.5 -101.5t-141.5 -33.5q-61 0 -135 41t-133 41q-47 0 -69.5 -14.5t-65.5 -59.5z" />
<glyph unicode="&#xd2;" horiz-adv-x="1368" d="M78 707q0 229 84 405t225 253t307 77q285 0 449 -192.5t164 -530.5q0 -246 -81 -419t-218.5 -248t-302.5 -75q-160 0 -270.5 47.5t-233.5 206.5t-123 476zM397 707q0 -371 97.5 -440.5t199.5 -69.5q147 0 215 121.5t68 392.5q0 209 -28.5 303t-92 150.5t-166.5 56.5 q-74 0 -131 -33t-90 -92q-72 -135 -72 -389zM368 1674l119 213l424 -267l-84 -151z" />
<glyph unicode="&#xd3;" horiz-adv-x="1368" d="M78 707q0 229 84 405t225 253t307 77q285 0 449 -192.5t164 -530.5q0 -246 -81 -419t-218.5 -248t-302.5 -75q-160 0 -270.5 47.5t-233.5 206.5t-123 476zM397 707q0 -371 97.5 -440.5t199.5 -69.5q147 0 215 121.5t68 392.5q0 209 -28.5 303t-92 150.5t-166.5 56.5 q-74 0 -131 -33t-90 -92q-72 -135 -72 -389zM479 1620l424 267l119 -213l-459 -205z" />
<glyph unicode="&#xd4;" horiz-adv-x="1368" d="M78 707q0 229 84 405t225 253t307 77q285 0 449 -192.5t164 -530.5q0 -246 -81 -419t-218.5 -248t-302.5 -75q-160 0 -270.5 47.5t-233.5 206.5t-123 476zM397 707q0 -371 97.5 -440.5t199.5 -69.5q147 0 215 121.5t68 392.5q0 209 -28.5 303t-92 150.5t-166.5 56.5 q-74 0 -131 -33t-90 -92q-72 -135 -72 -389zM295 1608l369 276l376 -276l-92 -150l-284 156l-277 -156z" />
<glyph unicode="&#xd5;" horiz-adv-x="1368" d="M78 707q0 229 84 405t225 253t307 77q285 0 449 -192.5t164 -530.5q0 -246 -81 -419t-218.5 -248t-302.5 -75q-160 0 -270.5 47.5t-233.5 206.5t-123 476zM397 707q0 -371 97.5 -440.5t199.5 -69.5q147 0 215 121.5t68 392.5q0 209 -28.5 303t-92 150.5t-166.5 56.5 q-74 0 -131 -33t-90 -92q-72 -135 -72 -389zM299 1671q55 68 112.5 102t141.5 34q61 0 135 -41t133 -41q47 0 69.5 14t65.5 59l88 -151q-55 -68 -112.5 -101.5t-141.5 -33.5q-61 0 -135 41t-133 41q-47 0 -69.5 -14.5t-65.5 -59.5z" />
<glyph unicode="&#xd6;" horiz-adv-x="1368" d="M78 707q0 229 84 405t225 253t307 77q285 0 449 -192.5t164 -530.5q0 -246 -81 -419t-218.5 -248t-302.5 -75q-160 0 -270.5 47.5t-233.5 206.5t-123 476zM397 707q0 -371 97.5 -440.5t199.5 -69.5q147 0 215 121.5t68 392.5q0 209 -28.5 303t-92 150.5t-166.5 56.5 q-74 0 -131 -33t-90 -92q-72 -135 -72 -389zM327 1628q0 63 47.5 110.5t112.5 47.5q66 0 110 -46t44 -112t-46 -111.5t-112 -45.5q-63 0 -109.5 45.5t-46.5 111.5zM759 1628q0 63 47.5 110.5t112.5 47.5q66 0 110 -46t44 -112t-46 -111.5t-112 -45.5t-111 44.5t-45 112.5z " />
<glyph unicode="&#xd8;" horiz-adv-x="1404" d="M84 707q0 229 84 406t225.5 253t306.5 76q170 0 297 -72l125 203l150 -84l-139 -225q180 -193 180 -545q0 -246 -81 -419t-218 -248t-303 -75q-190 0 -318 70l-137 -227l-150 84l156 256q-90 111 -134 248t-44 299zM403 707q0 -164 25 -275l440 725q-33 29 -75.5 46.5 t-96.5 17.5q-74 0 -132 -34t-109.5 -130t-51.5 -350zM518 252q80 -55 182 -55q147 0 215 121.5t68 392.5q0 160 -22 268z" />
<glyph unicode="&#xd9;" horiz-adv-x="1351" d="M164 432v991h293v-936q0 -123 37.5 -195.5t181.5 -72.5q94 0 150.5 43t63.5 98.5t7 151.5v911h291v-958q0 -57 -1 -109.5t-29 -135.5t-147.5 -165t-328.5 -82q-336 0 -412.5 122t-91 181.5t-14.5 155.5zM307 1674l119 213l424 -267l-84 -151z" />
<glyph unicode="&#xda;" horiz-adv-x="1351" d="M164 432v991h293v-936q0 -123 37.5 -195.5t181.5 -72.5q94 0 150.5 43t63.5 98.5t7 151.5v911h291v-958q0 -57 -1 -109.5t-29 -135.5t-147.5 -165t-328.5 -82q-336 0 -412.5 122t-91 181.5t-14.5 155.5zM367 1620l424 267l119 -213l-459 -205z" />
<glyph unicode="&#xdb;" horiz-adv-x="1351" d="M164 432v991h293v-936q0 -123 37.5 -195.5t181.5 -72.5q94 0 150.5 43t63.5 98.5t7 151.5v911h291v-958q0 -57 -1 -109.5t-29 -135.5t-147.5 -165t-328.5 -82q-336 0 -412.5 122t-91 181.5t-14.5 155.5zM254 1608l369 276l376 -276l-92 -150l-284 156l-277 -156z" />
<glyph unicode="&#xdc;" horiz-adv-x="1351" d="M164 432v991h293v-936q0 -123 37.5 -195.5t181.5 -72.5q94 0 150.5 43t63.5 98.5t7 151.5v911h291v-958q0 -57 -1 -109.5t-29 -135.5t-147.5 -165t-328.5 -82q-336 0 -412.5 122t-91 181.5t-14.5 155.5zM284 1628q0 63 47.5 110.5t112.5 47.5q66 0 110 -46t44 -112 t-46 -111.5t-112 -45.5q-63 0 -109.5 45.5t-46.5 111.5zM716 1628q0 63 47.5 110.5t112.5 47.5q66 0 110 -46t44 -112t-46 -111.5t-112 -45.5t-111 44.5t-45 112.5z" />
<glyph unicode="&#xdd;" horiz-adv-x="1130" d="M481 1716l424 267l119 -213l-459 -205zM-33 1423h344l183 -389q25 -49 43 -97t28 -85l76 178l184 393h338l-454 -837v-586h-299v586z" />
<glyph unicode="&#xdf;" horiz-adv-x="2195" d="M66 68l90 208q98 -41 170.5 -61t156.5 -20q195 0 195 108q0 90 -143 123l-140 33q-174 41 -229 137t-55 188q0 154 122.5 252.5t323.5 98.5q113 0 229.5 -31t192.5 -82l-129 -191q-156 82 -287 82q-66 0 -106.5 -26.5t-40.5 -73.5q0 -39 24.5 -60.5t89.5 -37.5l148 -35 q147 -35 229 -115t82 -205q0 -176 -141 -280.5t-379 -104.5q-109 0 -204 22t-199 71zM1164 68l90 208q98 -41 170.5 -61t156.5 -20q195 0 195 108q0 90 -143 123l-140 33q-174 41 -229 137t-55 188q0 154 122.5 252.5t323.5 98.5q113 0 229.5 -31t192.5 -82l-129 -191 q-156 82 -287 82q-66 0 -106.5 -26.5t-40.5 -73.5q0 -39 24.5 -60.5t89.5 -37.5l148 -35q147 -35 229 -115t82 -205q0 -176 -141 -280.5t-379 -104.5q-109 0 -204 22t-199 71z" />
<glyph unicode="&#xe0;" horiz-adv-x="1073" d="M4 0l406 1104h278l381 -1104h-289l-84 233h-325l-78 -233h-289zM221 1346l119 213l424 -267l-84 -151zM436 436h199l-51 205t-45 203q-16 -82 -46 -197z" />
<glyph unicode="&#xe1;" horiz-adv-x="1073" d="M4 0l406 1104h278l381 -1104h-289l-84 233h-325l-78 -233h-289zM436 436h199l-51 205t-45 203q-16 -82 -46 -197zM301 1292l424 267l119 -213l-459 -205z" />
<glyph unicode="&#xe2;" horiz-adv-x="1073" d="M4 0l406 1104h278l381 -1104h-289l-84 233h-325l-78 -233h-289zM436 436h199l-51 205t-45 203q-16 -82 -46 -197zM180 1280l369 276l376 -276l-92 -150l-284 156l-277 -156z" />
<glyph unicode="&#xe3;" horiz-adv-x="1073" d="M4 0l406 1104h278l381 -1104h-289l-84 233h-325l-78 -233h-289zM436 436h199l-51 205t-45 203q-16 -82 -46 -197zM170 1343q55 68 112.5 102t141.5 34q61 0 135 -41t133 -41q47 0 69.5 14t65.5 59l88 -151q-55 -68 -112.5 -101.5t-141.5 -33.5q-61 0 -135 41t-133 41 q-47 0 -69.5 -14.5t-65.5 -59.5z" />
<glyph unicode="&#xe4;" horiz-adv-x="1073" d="M4 0l406 1104h278l381 -1104h-289l-84 233h-325l-78 -233h-289zM168 1321q0 66 49 115t117 49t114 -48t46 -116t-48.5 -116t-115.5 -48q-68 0 -115 47t-47 117zM436 436h199l-51 205t-45 203q-16 -82 -46 -197zM600 1321q0 68 48 116t118 48q68 0 114 -48t46 -116 t-48.5 -116t-115.5 -48q-68 0 -115 47t-47 117z" />
<glyph unicode="&#xe5;" horiz-adv-x="1073" d="M4 0l406 1104h278l381 -1104h-289l-84 233h-325l-78 -233h-289zM436 436h199l-51 205t-45 203q-16 -82 -46 -197zM331 1350q0 90 63.5 153.5t154.5 63.5q86 0 149.5 -63.5t63.5 -153.5t-63.5 -153.5t-154.5 -63.5q-86 0 -149.5 63.5t-63.5 153.5zM442 1350 q0 -43 30.5 -74t71.5 -31q43 0 74 31t31 74t-28.5 73.5t-71.5 30.5t-75 -29.5t-32 -74.5z" />
<glyph unicode="&#xe6;" horiz-adv-x="1527" d="M-33 0l721 1100h744l-39 -211h-385v-209h323v-211h-319v-248h434v-221h-713v233h-311l-143 -233h-312zM549 434h184q0 276 8 363q-25 -59 -86 -174t-106 -189z" />
<glyph unicode="&#xe7;" horiz-adv-x="1013" d="M88 520q0 217 80 347t202 193.5t273 63.5q90 0 175 -24.5t134 -61.5l-123 -176q-90 55 -180 56q-49 0 -100 -18.5t-84 -53.5t-51.5 -102.5t-18.5 -161.5q0 -223 45 -287t94.5 -88.5t122.5 -24.5q53 0 100.5 15.5t98.5 50.5l123 -158q-70 -53 -147.5 -80.5t-172.5 -27.5 l-12 -35q76 -8 112 -52.5t36 -109.5q0 -78 -59.5 -129t-164.5 -51q-41 0 -93 15t-85 34l62 129q45 -20 63.5 -25.5t42.5 -5.5q20 0 35.5 11.5t15.5 25.5q0 41 -51 41q-10 0 -28.5 -6t-26.5 -6l-27 41l37 131q-152 25 -258 110q-170 158 -170 420z" />
<glyph unicode="&#xe8;" horiz-adv-x="1005" d="M172 0v1100h698l-39 -213h-385v-205h322v-215h-319v-244h434v-223h-711zM184 1346l119 213l424 -267l-84 -151z" />
<glyph unicode="&#xe9;" horiz-adv-x="1005" d="M172 0v1100h698l-39 -213h-385v-205h322v-215h-319v-244h434v-223h-711zM289 1292l424 267l119 -213l-459 -205z" />
<glyph unicode="&#xea;" horiz-adv-x="1005" d="M172 0v1100h698l-39 -213h-385v-205h322v-215h-319v-244h434v-223h-711zM172 1280l369 276l376 -276l-92 -150l-284 156l-277 -156z" />
<glyph unicode="&#xeb;" horiz-adv-x="1005" d="M172 0v1100h698l-39 -213h-385v-205h322v-215h-319v-244h434v-223h-711zM172 1341q0 63 47.5 110.5t112.5 47.5q66 0 110 -46t44 -112t-46 -111.5t-112 -45.5q-63 0 -109.5 45.5t-46.5 111.5zM604 1341q0 63 47.5 110.5t112.5 47.5q66 0 110 -46t44 -112t-46 -111.5 t-112 -45.5t-111 44.5t-45 112.5z" />
<glyph unicode="&#xec;" horiz-adv-x="628" d="M172 0v1100h285v-1100h-285zM12 1346l119 213l424 -267l-84 -151z" />
<glyph unicode="&#xed;" horiz-adv-x="628" d="M172 0v1100h285v-1100h-285zM86 1292l424 267l119 -213l-459 -205z" />
<glyph unicode="&#xee;" horiz-adv-x="628" d="M172 0v1100h285v-1100h-285zM-49 1280l369 276l376 -276l-92 -150l-284 156l-277 -156z" />
<glyph unicode="&#xef;" horiz-adv-x="628" d="M172 0v1100h285v-1100h-285zM-52 1300q0 63 47.5 110.5t112.5 47.5q66 0 110 -46t44 -112t-46 -111.5t-112 -45.5q-63 0 -109.5 45.5t-46.5 111.5zM380 1300q0 63 47.5 110.5t112.5 47.5q66 0 110 -46t44 -112t-46 -111.5t-112 -45.5t-111 44.5t-45 112.5z" />
<glyph unicode="&#xf1;" horiz-adv-x="1193" d="M172 0v1100h299l213 -424q27 -53 52.5 -118.5t49.5 -135.5q0 45 -7 139t-7 135l-4 404h254v-1100h-281l-204 451q-78 172 -121 280l8 -311l6 -420h-258zM217 1337q55 68 112.5 102t141.5 34q61 0 135 -41t133 -41q47 0 69.5 14t65.5 59l88 -151q-55 -68 -112.5 -101.5 t-141.5 -33.5q-61 0 -135 41t-133 41q-47 0 -69.5 -14.5t-65.5 -59.5z" />
<glyph unicode="&#xf2;" horiz-adv-x="1239" d="M86 543q0 268 142.5 418.5t394.5 150.5q242 0 386 -141.5t144 -409.5q0 -266 -133 -421.5t-387 -155.5q-258 0 -402.5 152.5t-144.5 406.5zM391 535q0 -201 53.5 -280t173.5 -79q113 0 167.5 87t54.5 298q0 180 -48.5 268.5t-173.5 88.5q-119 0 -173 -95t-54 -288z M233 1346l119 213l424 -267l-84 -151z" />
<glyph unicode="&#xf3;" horiz-adv-x="1239" d="M86 543q0 268 142.5 418.5t394.5 150.5q242 0 386 -141.5t144 -409.5q0 -266 -133 -421.5t-387 -155.5q-258 0 -402.5 152.5t-144.5 406.5zM391 535q0 -201 53.5 -280t173.5 -79q113 0 167.5 87t54.5 298q0 180 -48.5 268.5t-173.5 88.5q-119 0 -173 -95t-54 -288z M350 1292l424 267l119 -213l-459 -205z" />
<glyph unicode="&#xf4;" horiz-adv-x="1239" d="M86 543q0 268 142.5 418.5t394.5 150.5q242 0 386 -141.5t144 -409.5q0 -266 -133 -421.5t-387 -155.5q-258 0 -402.5 152.5t-144.5 406.5zM391 535q0 -201 53.5 -280t173.5 -79q113 0 167.5 87t54.5 298q0 180 -48.5 268.5t-173.5 88.5q-119 0 -173 -95t-54 -288z M242 1280l369 276l376 -276l-92 -150l-284 156l-277 -156z" />
<glyph unicode="&#xf5;" horiz-adv-x="1239" d="M86 543q0 268 142.5 418.5t394.5 150.5q242 0 386 -141.5t144 -409.5q0 -266 -133 -421.5t-387 -155.5q-258 0 -402.5 152.5t-144.5 406.5zM391 535q0 -201 53.5 -280t173.5 -79q113 0 167.5 87t54.5 298q0 180 -48.5 268.5t-173.5 88.5q-119 0 -173 -95t-54 -288z M219 1343q55 68 112.5 102t141.5 34q61 0 135 -41t133 -41q47 0 69.5 14t65.5 59l88 -151q-55 -68 -112.5 -101.5t-141.5 -33.5q-61 0 -135 41t-133 41q-47 0 -69.5 -14.5t-65.5 -59.5z" />
<glyph unicode="&#xf6;" horiz-adv-x="1239" d="M86 543q0 268 142.5 418.5t394.5 150.5q242 0 386 -141.5t144 -409.5q0 -266 -133 -421.5t-387 -155.5q-258 0 -402.5 152.5t-144.5 406.5zM391 535q0 -201 53.5 -280t173.5 -79q113 0 167.5 87t54.5 298q0 180 -48.5 268.5t-173.5 88.5q-119 0 -173 -95t-54 -288z M235 1320q0 63 47.5 110.5t112.5 47.5q66 0 110 -46t44 -112t-46 -111.5t-112 -45.5q-63 0 -109.5 45.5t-46.5 111.5zM667 1320q0 63 47.5 110.5t112.5 47.5q66 0 110 -46t44 -112t-46 -111.5t-112 -45.5t-111 44.5t-45 112.5z" />
<glyph unicode="&#xf7;" horiz-adv-x="2385" d="M172 0v1100h659l-32 -209h-355v-215h281v-215h-281v-461h-272zM1051 0v1100h659l-33 -209h-354v-215h281v-215h-281v-461h-272zM1929 0v1100h285v-1100h-285z" />
<glyph unicode="&#xf8;" horiz-adv-x="1226" d="M74 543q0 260 148.5 414.5t387.5 154.5q70 0 131.5 -10t116.5 -37l109 145l137 -73l-113 -164q150 -154 150 -412q0 -195 -79 -338t-222 -207q-45 -16 -99.5 -24t-119.5 -8q-174 0 -277 47l-117 -168l-137 67l129 197q-74 84 -109.5 191.5t-35.5 224.5zM379 535 q0 -43 2 -81t8 -79l342 504q-25 16 -58.5 27.5t-66.5 11.5q-119 0 -158.5 -67t-54 -145.5t-14.5 -170.5zM467 211q66 -35 139 -35q47 0 77 9.5t64.5 41t57 120.5t22.5 214q0 37 -5 94.5t-5 65.5z" />
<glyph unicode="&#xf9;" horiz-adv-x="1218" d="M164 352v748h278v-717q0 -63 3.5 -85t33 -61.5t129.5 -39.5q41 0 73 12t54.5 31.5t31.5 50.5t9 115v694h279v-731q0 -115 -20.5 -171.5t-71.5 -105.5t-137.5 -80.5t-207.5 -31.5q-287 0 -358.5 92t-83.5 146t-12 134zM245 1346l119 213l424 -267l-84 -151z" />
<glyph unicode="&#xfa;" horiz-adv-x="1218" d="M164 352v748h278v-717q0 -63 3.5 -85t33 -61.5t129.5 -39.5q41 0 73 12t54.5 31.5t31.5 50.5t9 115v694h279v-731q0 -115 -20.5 -171.5t-71.5 -105.5t-137.5 -80.5t-207.5 -31.5q-287 0 -358.5 92t-83.5 146t-12 134zM350 1292l424 267l119 -213l-459 -205z" />
<glyph unicode="&#xfb;" horiz-adv-x="1218" d="M164 352v748h278v-717q0 -63 3.5 -85t33 -61.5t129.5 -39.5q41 0 73 12t54.5 31.5t31.5 50.5t9 115v694h279v-731q0 -115 -20.5 -171.5t-71.5 -105.5t-137.5 -80.5t-207.5 -31.5q-287 0 -358.5 92t-83.5 146t-12 134zM199 1280l369 276l376 -276l-92 -150l-284 156 l-277 -156z" />
<glyph unicode="&#xfc;" horiz-adv-x="1218" d="M164 352v748h278v-717q0 -63 3.5 -85t33 -61.5t129.5 -39.5q41 0 73 12t54.5 31.5t31.5 50.5t9 115v694h279v-731q0 -115 -20.5 -171.5t-71.5 -105.5t-137.5 -80.5t-207.5 -31.5q-287 0 -358.5 92t-83.5 146t-12 134zM198 1320q0 63 47.5 110.5t112.5 47.5q66 0 110 -46 t44 -112t-46 -111.5t-112 -45.5q-63 0 -109.5 45.5t-46.5 111.5zM630 1320q0 63 47.5 110.5t112.5 47.5q66 0 110 -46t44 -112t-46 -111.5t-112 -45.5t-111 44.5t-45 112.5z" />
<glyph unicode="&#xfd;" horiz-adv-x="1056" d="M447 1386l424 267l119 -213l-459 -205zM6 1100h328l135 -271l68 -135q12 35 24 63.5t37 80.5l131 262h326l-389 -643v-457h-285v455z" />
<glyph unicode="&#xff;" horiz-adv-x="1056" d="M6 1100h328l135 -271l68 -135q12 35 24 63.5t37 80.5l131 262h326l-389 -643v-457h-285v455zM180 1320q0 63 47.5 110.5t112.5 47.5q66 0 110 -46t44 -112t-46 -111.5t-112 -45.5q-63 0 -109.5 45.5t-46.5 111.5zM612 1320q0 63 47.5 110.5t112.5 47.5q66 0 110 -46 t44 -112t-46 -111.5t-112 -45.5t-111 44.5t-45 112.5z" />
<glyph unicode="&#x152;" horiz-adv-x="1751" d="M72 715q0 293 101 429t192.5 188t174.5 68.5t134 19.5t147 3h813l-37 -233h-485v-330h406v-233h-406v-381h549v-246h-836q-244 0 -351 25.5t-254.5 168t-147.5 521.5zM414 741q0 -135 15 -233t54 -161.5t92.5 -93.5t135.5 -30q55 0 84.5 7.5t46.5 13.5v915 q-29 8 -67 14.5t-87 6.5q-141 0 -207.5 -107t-66.5 -332z" />
<glyph unicode="&#x153;" horiz-adv-x="1495" d="M86 555q0 209 96.5 337t227.5 169t350 41h651l-39 -213h-385v-209h322v-211h-322v-248h436v-221h-682q-225 0 -320 20.5t-183 100.5q-152 151 -152 434zM416 575q0 -109 8 -171t36.5 -109t70.5 -71.5t114 -24.5l84 2v684l-123 4q-78 0 -127 -55q-63 -62 -63 -259z" />
<glyph unicode="&#x178;" horiz-adv-x="1138" d="M-29 1423h344l183 -389q25 -49 43 -97t28 -85l76 178l184 393h338l-454 -837v-586h-299v586zM207 1628q0 63 47 110.5t113 47.5t109.5 -46t43.5 -112t-46 -112t-112 -46q-63 0 -109 46t-46 112zM639 1628q0 63 47 110.5t113 47.5t109.5 -46t43.5 -112t-46 -112t-111 -46 q-66 0 -111 45t-45 113z" />
<glyph unicode="&#x2c6;" horiz-adv-x="1363" d="M166 702l369 748h299l368 -748h-291l-227 488l-229 -488h-289z" />
<glyph unicode="&#x2c9;" horiz-adv-x="808" d="M82 1364v160h643v-160h-643z" />
<glyph unicode="&#x2da;" horiz-adv-x="645" d="M104 1350q0 90 63.5 153.5t154.5 63.5q86 0 149.5 -63.5t63.5 -153.5t-63.5 -153.5t-154.5 -63.5q-86 0 -149.5 63.5t-63.5 153.5zM215 1350q0 -43 30.5 -74t71.5 -31q43 0 74 31t31 74t-28.5 73.5t-71.5 30.5t-75 -29.5t-32 -74.5z" />
<glyph unicode="&#x2dc;" horiz-adv-x="460" d="M-372 282q55 68 112.5 102t141.5 34q61 0 135 -41t133 -41q47 0 69.5 14t65.5 59l88 -151q-55 -68 -112.5 -101.5t-141.5 -33.5q-61 0 -135 41t-133 41q-47 0 -69.5 -14.5t-65.5 -59.5z" />
<glyph unicode="&#x302;" horiz-adv-x="823" d="M39 1280l369 276l376 -276l-92 -150l-284 156l-277 -156z" />
<glyph unicode="&#x303;" horiz-adv-x="804" d="M29 1343q55 68 112.5 102t141.5 34q61 0 135 -41t133 -41q47 0 69.5 14t65.5 59l88 -151q-55 -68 -112.5 -101.5t-141.5 -33.5q-61 0 -135 41t-133 41q-47 0 -69.5 -14.5t-65.5 -59.5z" />
<glyph unicode="&#x2000;" horiz-adv-x="991" />
<glyph unicode="&#x2001;" horiz-adv-x="1982" />
<glyph unicode="&#x2002;" horiz-adv-x="991" />
<glyph unicode="&#x2003;" horiz-adv-x="1982" />
<glyph unicode="&#x2004;" horiz-adv-x="659" />
<glyph unicode="&#x2005;" horiz-adv-x="495" />
<glyph unicode="&#x2006;" horiz-adv-x="329" />
<glyph unicode="&#x2007;" horiz-adv-x="329" />
<glyph unicode="&#x2008;" horiz-adv-x="247" />
<glyph unicode="&#x2009;" horiz-adv-x="395" />
<glyph unicode="&#x200a;" horiz-adv-x="108" />
<glyph unicode="&#x2010;" horiz-adv-x="692" d="M102 442v238h492v-238h-492z" />
<glyph unicode="&#x2011;" horiz-adv-x="692" d="M102 442v238h492v-238h-492z" />
<glyph unicode="&#x2012;" horiz-adv-x="692" d="M102 442v238h492v-238h-492z" />
<glyph unicode="&#x2013;" horiz-adv-x="985" d="M-6 457v211h997v-211h-997z" />
<glyph unicode="&#x2014;" horiz-adv-x="1970" d="M254 457v211h1460v-211h-1460z" />
<glyph unicode="&#x2018;" horiz-adv-x="557" d="M80 1098q0 133 80 235.5t209 134.5l108 -114q-66 -14 -106.5 -47t-40.5 -70q0 -23 10 -35t66.5 -44t56.5 -130q0 -74 -51.5 -125t-126.5 -51q-90 0 -147.5 68.5t-57.5 177.5z" />
<glyph unicode="&#x2019;" horiz-adv-x="546" d="M66 954q147 37 147 117q0 33 -66.5 73t-66.5 136q0 74 51 125t127 51q90 0 147.5 -67.5t57.5 -178.5q0 -131 -80 -233.5t-209 -134.5z" />
<glyph unicode="&#x201a;" horiz-adv-x="546" d="M78 -182q66 14 106.5 47t40.5 69q0 33 -66.5 73t-66.5 136q0 74 51.5 125t126.5 51q90 0 147.5 -67.5t57.5 -177.5q0 -133 -80 -235.5t-209 -135.5z" />
<glyph unicode="&#x201c;" horiz-adv-x="1001" d="M80 1100q0 133 80 235.5t209 134.5l108 -114q-66 -14 -106.5 -47t-40.5 -70q0 -33 66.5 -73t66.5 -136q0 -76 -52.5 -126t-127.5 -50q-88 0 -145.5 68.5t-57.5 177.5zM543 1100q0 133 79.5 235.5t206.5 134.5l109 -114q-145 -35 -145 -117q0 -20 10 -32.5t66.5 -47.5 t56.5 -129q0 -76 -52.5 -126t-128.5 -50q-90 0 -146 68.5t-56 177.5z" />
<glyph unicode="&#x201d;" horiz-adv-x="1001" d="M72 954q147 37 147 117q0 33 -66.5 73t-66.5 136q0 74 51 125t127 51q90 0 147.5 -67.5t57.5 -178.5q0 -131 -80 -233.5t-209 -134.5zM535 954q145 37 145 117q0 35 -65.5 74t-65.5 135q0 74 51 125t127 51q90 0 146.5 -68.5t56.5 -177.5q0 -133 -79 -234.5t-208 -133.5z " />
<glyph unicode="&#x201e;" horiz-adv-x="1007" d="M74 -182q66 14 106.5 47t40.5 69q0 33 -66.5 73t-66.5 136q0 74 51 125t127 51q90 0 147.5 -67.5t57.5 -177.5q0 -133 -80 -235.5t-209 -135.5zM537 -182q68 16 106.5 47t38.5 69q0 35 -65.5 74t-65.5 135q0 74 51 125t127 51q90 0 147.5 -67.5t57.5 -177.5 q0 -133 -80 -235.5t-209 -135.5z" />
<glyph unicode="&#x2022;" horiz-adv-x="1024" d="M154 352v729l790 -364z" />
<glyph unicode="&#x2026;" horiz-adv-x="1531" d="M74 150q0 74 52 126t126 52q76 0 129 -51.5t53 -126.5q0 -76 -53 -129.5t-127 -53.5t-127 53.5t-53 129.5zM586 150q0 74 52 126t126 52q76 0 129 -51.5t53 -126.5q0 -76 -53 -129.5t-127 -53.5t-127 53.5t-53 129.5zM1098 150q0 74 52 126t126 52q76 0 129 -51.5 t53 -126.5q0 -76 -53 -129.5t-127 -53.5t-127 53.5t-53 129.5z" />
<glyph unicode="&#x202f;" horiz-adv-x="395" />
<glyph unicode="&#x2039;" horiz-adv-x="651" d="M78 510l325 479l187 -125l-238 -354l238 -354l-187 -125z" />
<glyph unicode="&#x203a;" horiz-adv-x="651" d="M76 156l237 354l-237 354l186 125l326 -479l-326 -479z" />
<glyph unicode="&#x205f;" horiz-adv-x="495" />
<glyph unicode="&#x2122;" horiz-adv-x="2113" d="M104 1253v197h709v-197h-244v-647h-221v647h-244zM993 606v844h297l201 -549l201 549h297v-844h-222v549l-204 -549h-144l-200 549l-5 -549h-221z" />
<glyph unicode="&#xe000;" horiz-adv-x="1100" d="M0 1100h1100v-1100h-1100v1100z" />
<glyph unicode="&#xfb01;" horiz-adv-x="1507" d="M1051 0v1100h285v-1100h-285zM172 0v1100h659l-32 -209h-355v-215h281v-215h-281v-461h-272z" />
<glyph unicode="&#xfb02;" horiz-adv-x="1755" d="M1051 0v1100h279v-879h421l-57 -221h-643zM172 0v1100h659l-32 -209h-355v-215h281v-215h-281v-461h-272z" />
<glyph unicode="&#xfb03;" horiz-adv-x="2385" d="M1929 0v1100h285v-1100h-285zM1051 0v1100h659l-32 -209h-355v-215h281v-215h-281v-461h-272zM172 0v1100h659l-32 -209h-355v-215h281v-215h-281v-461h-272z" />
<glyph unicode="&#xfb04;" horiz-adv-x="2633" d="M1929 0v1100h279v-879h421l-57 -221h-643zM1051 0v1100h659l-32 -209h-355v-215h281v-215h-281v-461h-272zM172 0v1100h659l-32 -209h-355v-215h281v-215h-281v-461h-272z" />
</font>
</defs>
</svg>
